<?xml version="1.0" encoding="utf-8" standalone="no"?>
<!DOCTYPE svg PUBLIC "-//W3C//DTD SVG 1.1//EN"
  "http://www.w3.org/Graphics/SVG/1.1/DTD/svg11.dtd">
<svg xmlns:xlink="http://www.w3.org/1999/xlink" width="1423.21375pt" height="199.506649pt" viewBox="0 0 1423.21375 199.506649" xmlns="http://www.w3.org/2000/svg" version="1.1">
 <metadata>
  <rdf:RDF xmlns:dc="http://purl.org/dc/elements/1.1/" xmlns:cc="http://creativecommons.org/ns#" xmlns:rdf="http://www.w3.org/1999/02/22-rdf-syntax-ns#">
   <cc:Work>
    <dc:type rdf:resource="http://purl.org/dc/dcmitype/StillImage"/>
    <dc:date>2025-04-23T21:55:48.795816</dc:date>
    <dc:format>image/svg+xml</dc:format>
    <dc:creator>
     <cc:Agent>
      <dc:title>Matplotlib v3.9.2, https://matplotlib.org/</dc:title>
     </cc:Agent>
    </dc:creator>
   </cc:Work>
  </rdf:RDF>
 </metadata>
 <defs>
  <style type="text/css">*{stroke-linejoin: round; stroke-linecap: butt}</style>
 </defs>
 <g id="figure_1">
  <g id="patch_1">
   <path d="M 0 199.506649 
L 1423.21375 199.506649 
L 1423.21375 0 
L 0 0 
z
" style="fill: #ffffff"/>
  </g>
  <g id="axes_1">
   <g id="patch_2">
    <path d="M 54.01375 171.757274 
L 198.01375 171.757274 
L 198.01375 9.757274 
L 54.01375 9.757274 
z
" style="fill: #ffffff"/>
   </g>
   <g id="patch_3">
    <path d="M 60.559205 171.757274 
L 64.618401 171.757274 
L 64.618401 17.47156 
L 60.559205 17.47156 
z
" clip-path="url(#p890b3df217)" style="fill: #ff0000; opacity: 0.7"/>
   </g>
   <g id="patch_4">
    <path d="M 65.6332 171.757274 
L 69.692397 171.757274 
L 69.692397 66.018507 
L 65.6332 66.018507 
z
" clip-path="url(#p890b3df217)" style="fill: #ff0000; opacity: 0.7"/>
   </g>
   <g id="patch_5">
    <path d="M 70.707196 171.757274 
L 74.766393 171.757274 
L 74.766393 111.209961 
L 70.707196 111.209961 
z
" clip-path="url(#p890b3df217)" style="fill: #ff0000; opacity: 0.7"/>
   </g>
   <g id="patch_6">
    <path d="M 75.781192 171.757274 
L 79.840388 171.757274 
L 79.840388 152.302934 
L 75.781192 152.302934 
z
" clip-path="url(#p890b3df217)" style="fill: #ff0000; opacity: 0.7"/>
   </g>
   <g id="patch_7">
    <path d="M 80.855188 171.757274 
L 84.914384 171.757274 
L 84.914384 168.759899 
L 80.855188 168.759899 
z
" clip-path="url(#p890b3df217)" style="fill: #ff0000; opacity: 0.7"/>
   </g>
   <g id="patch_8">
    <path d="M 85.929183 171.757274 
L 89.98838 171.757274 
L 89.98838 171.083948 
L 85.929183 171.083948 
z
" clip-path="url(#p890b3df217)" style="fill: #ff0000; opacity: 0.7"/>
   </g>
   <g id="patch_9">
    <path d="M 91.003179 171.757274 
L 95.062376 171.757274 
L 95.062376 171.640161 
L 91.003179 171.640161 
z
" clip-path="url(#p890b3df217)" style="fill: #ff0000; opacity: 0.7"/>
   </g>
   <g id="patch_10">
    <path d="M 96.077175 171.757274 
L 100.136372 171.757274 
L 100.136372 171.757274 
L 96.077175 171.757274 
z
" clip-path="url(#p890b3df217)" style="fill: #ff0000; opacity: 0.7"/>
   </g>
   <g id="patch_11">
    <path d="M 101.151171 171.757274 
L 105.210367 171.757274 
L 105.210367 171.757274 
L 101.151171 171.757274 
z
" clip-path="url(#p890b3df217)" style="fill: #ff0000; opacity: 0.7"/>
   </g>
   <g id="patch_12">
    <path d="M 106.225166 171.757274 
L 110.284363 171.757274 
L 110.284363 171.757274 
L 106.225166 171.757274 
z
" clip-path="url(#p890b3df217)" style="fill: #ff0000; opacity: 0.7"/>
   </g>
   <g id="patch_13">
    <path d="M 111.299162 171.757274 
L 115.358359 171.757274 
L 115.358359 171.757274 
L 111.299162 171.757274 
z
" clip-path="url(#p890b3df217)" style="fill: #ff0000; opacity: 0.7"/>
   </g>
   <g id="patch_14">
    <path d="M 116.373158 171.757274 
L 120.432355 171.757274 
L 120.432355 171.757274 
L 116.373158 171.757274 
z
" clip-path="url(#p890b3df217)" style="fill: #ff0000; opacity: 0.7"/>
   </g>
   <g id="patch_15">
    <path d="M 121.447154 171.757274 
L 125.50635 171.757274 
L 125.50635 171.757274 
L 121.447154 171.757274 
z
" clip-path="url(#p890b3df217)" style="fill: #ff0000; opacity: 0.7"/>
   </g>
   <g id="patch_16">
    <path d="M 126.52115 171.757274 
L 130.580346 171.757274 
L 130.580346 171.757274 
L 126.52115 171.757274 
z
" clip-path="url(#p890b3df217)" style="fill: #ff0000; opacity: 0.7"/>
   </g>
   <g id="patch_17">
    <path d="M 131.595145 171.757274 
L 135.654342 171.757274 
L 135.654342 171.757274 
L 131.595145 171.757274 
z
" clip-path="url(#p890b3df217)" style="fill: #ff0000; opacity: 0.7"/>
   </g>
   <g id="patch_18">
    <path d="M 136.669141 171.757274 
L 140.728338 171.757274 
L 140.728338 171.757274 
L 136.669141 171.757274 
z
" clip-path="url(#p890b3df217)" style="fill: #ff0000; opacity: 0.7"/>
   </g>
   <g id="patch_19">
    <path d="M 141.743137 171.757274 
L 145.802334 171.757274 
L 145.802334 171.757274 
L 141.743137 171.757274 
z
" clip-path="url(#p890b3df217)" style="fill: #ff0000; opacity: 0.7"/>
   </g>
   <g id="patch_20">
    <path d="M 146.817133 171.757274 
L 150.876329 171.757274 
L 150.876329 171.757274 
L 146.817133 171.757274 
z
" clip-path="url(#p890b3df217)" style="fill: #ff0000; opacity: 0.7"/>
   </g>
   <g id="patch_21">
    <path d="M 151.891128 171.757274 
L 155.950325 171.757274 
L 155.950325 171.757274 
L 151.891128 171.757274 
z
" clip-path="url(#p890b3df217)" style="fill: #ff0000; opacity: 0.7"/>
   </g>
   <g id="patch_22">
    <path d="M 156.965124 171.757274 
L 161.024321 171.757274 
L 161.024321 171.757274 
L 156.965124 171.757274 
z
" clip-path="url(#p890b3df217)" style="fill: #ff0000; opacity: 0.7"/>
   </g>
   <g id="patch_23">
    <path d="M 162.03912 171.757274 
L 166.098317 171.757274 
L 166.098317 171.757274 
L 162.03912 171.757274 
z
" clip-path="url(#p890b3df217)" style="fill: #ff0000; opacity: 0.7"/>
   </g>
   <g id="patch_24">
    <path d="M 167.113116 171.757274 
L 171.172312 171.757274 
L 171.172312 171.757274 
L 167.113116 171.757274 
z
" clip-path="url(#p890b3df217)" style="fill: #ff0000; opacity: 0.7"/>
   </g>
   <g id="patch_25">
    <path d="M 172.187112 171.757274 
L 176.246308 171.757274 
L 176.246308 171.757274 
L 172.187112 171.757274 
z
" clip-path="url(#p890b3df217)" style="fill: #ff0000; opacity: 0.7"/>
   </g>
   <g id="patch_26">
    <path d="M 177.261107 171.757274 
L 181.320304 171.757274 
L 181.320304 171.757274 
L 177.261107 171.757274 
z
" clip-path="url(#p890b3df217)" style="fill: #ff0000; opacity: 0.7"/>
   </g>
   <g id="patch_27">
    <path d="M 182.335103 171.757274 
L 186.3943 171.757274 
L 186.3943 171.757274 
L 182.335103 171.757274 
z
" clip-path="url(#p890b3df217)" style="fill: #ff0000; opacity: 0.7"/>
   </g>
   <g id="patch_28">
    <path d="M 187.409099 171.757274 
L 191.468295 171.757274 
L 191.468295 171.757274 
L 187.409099 171.757274 
z
" clip-path="url(#p890b3df217)" style="fill: #ff0000; opacity: 0.7"/>
   </g>
   <g id="matplotlib.axis_1">
    <g id="xtick_1">
     <g id="line2d_1">
      <defs>
       <path id="m0ebd60b6f8" d="M 0 0 
L 0 3.5 
" style="stroke: #000000; stroke-width: 0.8"/>
      </defs>
      <g>
       <use xlink:href="#m0ebd60b6f8" x="87.958782" y="171.757274" style="stroke: #000000; stroke-width: 0.8"/>
      </g>
     </g>
     <g id="text_1">
      <!-- 2030 -->
      <g transform="translate(70.143782 189.395086) scale(0.14 -0.14)">
       <defs>
        <path id="DejaVuSans-32" d="M 1228 531 
L 3431 531 
L 3431 0 
L 469 0 
L 469 531 
Q 828 903 1448 1529 
Q 2069 2156 2228 2338 
Q 2531 2678 2651 2914 
Q 2772 3150 2772 3378 
Q 2772 3750 2511 3984 
Q 2250 4219 1831 4219 
Q 1534 4219 1204 4116 
Q 875 4013 500 3803 
L 500 4441 
Q 881 4594 1212 4672 
Q 1544 4750 1819 4750 
Q 2544 4750 2975 4387 
Q 3406 4025 3406 3419 
Q 3406 3131 3298 2873 
Q 3191 2616 2906 2266 
Q 2828 2175 2409 1742 
Q 1991 1309 1228 531 
z
" transform="scale(0.015625)"/>
        <path id="DejaVuSans-30" d="M 2034 4250 
Q 1547 4250 1301 3770 
Q 1056 3291 1056 2328 
Q 1056 1369 1301 889 
Q 1547 409 2034 409 
Q 2525 409 2770 889 
Q 3016 1369 3016 2328 
Q 3016 3291 2770 3770 
Q 2525 4250 2034 4250 
z
M 2034 4750 
Q 2819 4750 3233 4129 
Q 3647 3509 3647 2328 
Q 3647 1150 3233 529 
Q 2819 -91 2034 -91 
Q 1250 -91 836 529 
Q 422 1150 422 2328 
Q 422 3509 836 4129 
Q 1250 4750 2034 4750 
z
" transform="scale(0.015625)"/>
        <path id="DejaVuSans-33" d="M 2597 2516 
Q 3050 2419 3304 2112 
Q 3559 1806 3559 1356 
Q 3559 666 3084 287 
Q 2609 -91 1734 -91 
Q 1441 -91 1130 -33 
Q 819 25 488 141 
L 488 750 
Q 750 597 1062 519 
Q 1375 441 1716 441 
Q 2309 441 2620 675 
Q 2931 909 2931 1356 
Q 2931 1769 2642 2001 
Q 2353 2234 1838 2234 
L 1294 2234 
L 1294 2753 
L 1863 2753 
Q 2328 2753 2575 2939 
Q 2822 3125 2822 3475 
Q 2822 3834 2567 4026 
Q 2313 4219 1838 4219 
Q 1578 4219 1281 4162 
Q 984 4106 628 3988 
L 628 4550 
Q 988 4650 1302 4700 
Q 1616 4750 1894 4750 
Q 2613 4750 3031 4423 
Q 3450 4097 3450 3541 
Q 3450 3153 3228 2886 
Q 3006 2619 2597 2516 
z
" transform="scale(0.015625)"/>
       </defs>
       <use xlink:href="#DejaVuSans-32"/>
       <use xlink:href="#DejaVuSans-30" x="63.623047"/>
       <use xlink:href="#DejaVuSans-33" x="127.246094"/>
       <use xlink:href="#DejaVuSans-30" x="190.869141"/>
      </g>
     </g>
    </g>
    <g id="xtick_2">
     <g id="line2d_2">
      <g>
       <use xlink:href="#m0ebd60b6f8" x="138.698739" y="171.757274" style="stroke: #000000; stroke-width: 0.8"/>
      </g>
     </g>
     <g id="text_2">
      <!-- 2040 -->
      <g transform="translate(120.883739 189.395086) scale(0.14 -0.14)">
       <defs>
        <path id="DejaVuSans-34" d="M 2419 4116 
L 825 1625 
L 2419 1625 
L 2419 4116 
z
M 2253 4666 
L 3047 4666 
L 3047 1625 
L 3713 1625 
L 3713 1100 
L 3047 1100 
L 3047 0 
L 2419 0 
L 2419 1100 
L 313 1100 
L 313 1709 
L 2253 4666 
z
" transform="scale(0.015625)"/>
       </defs>
       <use xlink:href="#DejaVuSans-32"/>
       <use xlink:href="#DejaVuSans-30" x="63.623047"/>
       <use xlink:href="#DejaVuSans-34" x="127.246094"/>
       <use xlink:href="#DejaVuSans-30" x="190.869141"/>
      </g>
     </g>
    </g>
    <g id="xtick_3">
     <g id="line2d_3">
      <g>
       <use xlink:href="#m0ebd60b6f8" x="189.438697" y="171.757274" style="stroke: #000000; stroke-width: 0.8"/>
      </g>
     </g>
     <g id="text_3">
      <!-- 2050 -->
      <g transform="translate(171.623697 189.395086) scale(0.14 -0.14)">
       <defs>
        <path id="DejaVuSans-35" d="M 691 4666 
L 3169 4666 
L 3169 4134 
L 1269 4134 
L 1269 2991 
Q 1406 3038 1543 3061 
Q 1681 3084 1819 3084 
Q 2600 3084 3056 2656 
Q 3513 2228 3513 1497 
Q 3513 744 3044 326 
Q 2575 -91 1722 -91 
Q 1428 -91 1123 -41 
Q 819 9 494 109 
L 494 744 
Q 775 591 1075 516 
Q 1375 441 1709 441 
Q 2250 441 2565 725 
Q 2881 1009 2881 1497 
Q 2881 1984 2565 2268 
Q 2250 2553 1709 2553 
Q 1456 2553 1204 2497 
Q 953 2441 691 2322 
L 691 4666 
z
" transform="scale(0.015625)"/>
       </defs>
       <use xlink:href="#DejaVuSans-32"/>
       <use xlink:href="#DejaVuSans-30" x="63.623047"/>
       <use xlink:href="#DejaVuSans-35" x="127.246094"/>
       <use xlink:href="#DejaVuSans-30" x="190.869141"/>
      </g>
     </g>
    </g>
   </g>
   <g id="matplotlib.axis_2">
    <g id="ytick_1">
     <g id="line2d_4">
      <defs>
       <path id="mf8bc7a9a48" d="M 0 0 
L -3.5 0 
" style="stroke: #000000; stroke-width: 0.8"/>
      </defs>
      <g>
       <use xlink:href="#mf8bc7a9a48" x="54.01375" y="171.757274" style="stroke: #000000; stroke-width: 0.8"/>
      </g>
     </g>
     <g id="text_4">
      <!-- 0.0 -->
      <g transform="translate(24.749375 177.07618) scale(0.14 -0.14)">
       <defs>
        <path id="DejaVuSans-2e" d="M 684 794 
L 1344 794 
L 1344 0 
L 684 0 
L 684 794 
z
" transform="scale(0.015625)"/>
       </defs>
       <use xlink:href="#DejaVuSans-30"/>
       <use xlink:href="#DejaVuSans-2e" x="63.623047"/>
       <use xlink:href="#DejaVuSans-30" x="95.410156"/>
      </g>
     </g>
    </g>
    <g id="ytick_2">
     <g id="line2d_5">
      <g>
       <use xlink:href="#mf8bc7a9a48" x="54.01375" y="118.677818" style="stroke: #000000; stroke-width: 0.8"/>
      </g>
     </g>
     <g id="text_5">
      <!-- 0.5 -->
      <g transform="translate(24.749375 123.996724) scale(0.14 -0.14)">
       <use xlink:href="#DejaVuSans-30"/>
       <use xlink:href="#DejaVuSans-2e" x="63.623047"/>
       <use xlink:href="#DejaVuSans-35" x="95.410156"/>
      </g>
     </g>
    </g>
    <g id="ytick_3">
     <g id="line2d_6">
      <g>
       <use xlink:href="#mf8bc7a9a48" x="54.01375" y="65.598362" style="stroke: #000000; stroke-width: 0.8"/>
      </g>
     </g>
     <g id="text_6">
      <!-- 1.0 -->
      <g transform="translate(24.749375 70.917268) scale(0.14 -0.14)">
       <defs>
        <path id="DejaVuSans-31" d="M 794 531 
L 1825 531 
L 1825 4091 
L 703 3866 
L 703 4441 
L 1819 4666 
L 2450 4666 
L 2450 531 
L 3481 531 
L 3481 0 
L 794 0 
L 794 531 
z
" transform="scale(0.015625)"/>
       </defs>
       <use xlink:href="#DejaVuSans-31"/>
       <use xlink:href="#DejaVuSans-2e" x="63.623047"/>
       <use xlink:href="#DejaVuSans-30" x="95.410156"/>
      </g>
     </g>
    </g>
    <g id="ytick_4">
     <g id="line2d_7">
      <g>
       <use xlink:href="#mf8bc7a9a48" x="54.01375" y="12.518906" style="stroke: #000000; stroke-width: 0.8"/>
      </g>
     </g>
     <g id="text_7">
      <!-- 1.5 -->
      <g transform="translate(24.749375 17.837813) scale(0.14 -0.14)">
       <use xlink:href="#DejaVuSans-31"/>
       <use xlink:href="#DejaVuSans-2e" x="63.623047"/>
       <use xlink:href="#DejaVuSans-35" x="95.410156"/>
      </g>
     </g>
    </g>
    <g id="text_8">
     <!-- Discharge (GWh) -->
     <g transform="translate(17.837813 150.287899) rotate(-90) scale(0.14 -0.14)">
      <defs>
       <path id="DejaVuSans-44" d="M 1259 4147 
L 1259 519 
L 2022 519 
Q 2988 519 3436 956 
Q 3884 1394 3884 2338 
Q 3884 3275 3436 3711 
Q 2988 4147 2022 4147 
L 1259 4147 
z
M 628 4666 
L 1925 4666 
Q 3281 4666 3915 4102 
Q 4550 3538 4550 2338 
Q 4550 1131 3912 565 
Q 3275 0 1925 0 
L 628 0 
L 628 4666 
z
" transform="scale(0.015625)"/>
       <path id="DejaVuSans-69" d="M 603 3500 
L 1178 3500 
L 1178 0 
L 603 0 
L 603 3500 
z
M 603 4863 
L 1178 4863 
L 1178 4134 
L 603 4134 
L 603 4863 
z
" transform="scale(0.015625)"/>
       <path id="DejaVuSans-73" d="M 2834 3397 
L 2834 2853 
Q 2591 2978 2328 3040 
Q 2066 3103 1784 3103 
Q 1356 3103 1142 2972 
Q 928 2841 928 2578 
Q 928 2378 1081 2264 
Q 1234 2150 1697 2047 
L 1894 2003 
Q 2506 1872 2764 1633 
Q 3022 1394 3022 966 
Q 3022 478 2636 193 
Q 2250 -91 1575 -91 
Q 1294 -91 989 -36 
Q 684 19 347 128 
L 347 722 
Q 666 556 975 473 
Q 1284 391 1588 391 
Q 1994 391 2212 530 
Q 2431 669 2431 922 
Q 2431 1156 2273 1281 
Q 2116 1406 1581 1522 
L 1381 1569 
Q 847 1681 609 1914 
Q 372 2147 372 2553 
Q 372 3047 722 3315 
Q 1072 3584 1716 3584 
Q 2034 3584 2315 3537 
Q 2597 3491 2834 3397 
z
" transform="scale(0.015625)"/>
       <path id="DejaVuSans-63" d="M 3122 3366 
L 3122 2828 
Q 2878 2963 2633 3030 
Q 2388 3097 2138 3097 
Q 1578 3097 1268 2742 
Q 959 2388 959 1747 
Q 959 1106 1268 751 
Q 1578 397 2138 397 
Q 2388 397 2633 464 
Q 2878 531 3122 666 
L 3122 134 
Q 2881 22 2623 -34 
Q 2366 -91 2075 -91 
Q 1284 -91 818 406 
Q 353 903 353 1747 
Q 353 2603 823 3093 
Q 1294 3584 2113 3584 
Q 2378 3584 2631 3529 
Q 2884 3475 3122 3366 
z
" transform="scale(0.015625)"/>
       <path id="DejaVuSans-68" d="M 3513 2113 
L 3513 0 
L 2938 0 
L 2938 2094 
Q 2938 2591 2744 2837 
Q 2550 3084 2163 3084 
Q 1697 3084 1428 2787 
Q 1159 2491 1159 1978 
L 1159 0 
L 581 0 
L 581 4863 
L 1159 4863 
L 1159 2956 
Q 1366 3272 1645 3428 
Q 1925 3584 2291 3584 
Q 2894 3584 3203 3211 
Q 3513 2838 3513 2113 
z
" transform="scale(0.015625)"/>
       <path id="DejaVuSans-61" d="M 2194 1759 
Q 1497 1759 1228 1600 
Q 959 1441 959 1056 
Q 959 750 1161 570 
Q 1363 391 1709 391 
Q 2188 391 2477 730 
Q 2766 1069 2766 1631 
L 2766 1759 
L 2194 1759 
z
M 3341 1997 
L 3341 0 
L 2766 0 
L 2766 531 
Q 2569 213 2275 61 
Q 1981 -91 1556 -91 
Q 1019 -91 701 211 
Q 384 513 384 1019 
Q 384 1609 779 1909 
Q 1175 2209 1959 2209 
L 2766 2209 
L 2766 2266 
Q 2766 2663 2505 2880 
Q 2244 3097 1772 3097 
Q 1472 3097 1187 3025 
Q 903 2953 641 2809 
L 641 3341 
Q 956 3463 1253 3523 
Q 1550 3584 1831 3584 
Q 2591 3584 2966 3190 
Q 3341 2797 3341 1997 
z
" transform="scale(0.015625)"/>
       <path id="DejaVuSans-72" d="M 2631 2963 
Q 2534 3019 2420 3045 
Q 2306 3072 2169 3072 
Q 1681 3072 1420 2755 
Q 1159 2438 1159 1844 
L 1159 0 
L 581 0 
L 581 3500 
L 1159 3500 
L 1159 2956 
Q 1341 3275 1631 3429 
Q 1922 3584 2338 3584 
Q 2397 3584 2469 3576 
Q 2541 3569 2628 3553 
L 2631 2963 
z
" transform="scale(0.015625)"/>
       <path id="DejaVuSans-67" d="M 2906 1791 
Q 2906 2416 2648 2759 
Q 2391 3103 1925 3103 
Q 1463 3103 1205 2759 
Q 947 2416 947 1791 
Q 947 1169 1205 825 
Q 1463 481 1925 481 
Q 2391 481 2648 825 
Q 2906 1169 2906 1791 
z
M 3481 434 
Q 3481 -459 3084 -895 
Q 2688 -1331 1869 -1331 
Q 1566 -1331 1297 -1286 
Q 1028 -1241 775 -1147 
L 775 -588 
Q 1028 -725 1275 -790 
Q 1522 -856 1778 -856 
Q 2344 -856 2625 -561 
Q 2906 -266 2906 331 
L 2906 616 
Q 2728 306 2450 153 
Q 2172 0 1784 0 
Q 1141 0 747 490 
Q 353 981 353 1791 
Q 353 2603 747 3093 
Q 1141 3584 1784 3584 
Q 2172 3584 2450 3431 
Q 2728 3278 2906 2969 
L 2906 3500 
L 3481 3500 
L 3481 434 
z
" transform="scale(0.015625)"/>
       <path id="DejaVuSans-65" d="M 3597 1894 
L 3597 1613 
L 953 1613 
Q 991 1019 1311 708 
Q 1631 397 2203 397 
Q 2534 397 2845 478 
Q 3156 559 3463 722 
L 3463 178 
Q 3153 47 2828 -22 
Q 2503 -91 2169 -91 
Q 1331 -91 842 396 
Q 353 884 353 1716 
Q 353 2575 817 3079 
Q 1281 3584 2069 3584 
Q 2775 3584 3186 3129 
Q 3597 2675 3597 1894 
z
M 3022 2063 
Q 3016 2534 2758 2815 
Q 2500 3097 2075 3097 
Q 1594 3097 1305 2825 
Q 1016 2553 972 2059 
L 3022 2063 
z
" transform="scale(0.015625)"/>
       <path id="DejaVuSans-20" transform="scale(0.015625)"/>
       <path id="DejaVuSans-28" d="M 1984 4856 
Q 1566 4138 1362 3434 
Q 1159 2731 1159 2009 
Q 1159 1288 1364 580 
Q 1569 -128 1984 -844 
L 1484 -844 
Q 1016 -109 783 600 
Q 550 1309 550 2009 
Q 550 2706 781 3412 
Q 1013 4119 1484 4856 
L 1984 4856 
z
" transform="scale(0.015625)"/>
       <path id="DejaVuSans-47" d="M 3809 666 
L 3809 1919 
L 2778 1919 
L 2778 2438 
L 4434 2438 
L 4434 434 
Q 4069 175 3628 42 
Q 3188 -91 2688 -91 
Q 1594 -91 976 548 
Q 359 1188 359 2328 
Q 359 3472 976 4111 
Q 1594 4750 2688 4750 
Q 3144 4750 3555 4637 
Q 3966 4525 4313 4306 
L 4313 3634 
Q 3963 3931 3569 4081 
Q 3175 4231 2741 4231 
Q 1884 4231 1454 3753 
Q 1025 3275 1025 2328 
Q 1025 1384 1454 906 
Q 1884 428 2741 428 
Q 3075 428 3337 486 
Q 3600 544 3809 666 
z
" transform="scale(0.015625)"/>
       <path id="DejaVuSans-57" d="M 213 4666 
L 850 4666 
L 1831 722 
L 2809 4666 
L 3519 4666 
L 4500 722 
L 5478 4666 
L 6119 4666 
L 4947 0 
L 4153 0 
L 3169 4050 
L 2175 0 
L 1381 0 
L 213 4666 
z
" transform="scale(0.015625)"/>
       <path id="DejaVuSans-29" d="M 513 4856 
L 1013 4856 
Q 1481 4119 1714 3412 
Q 1947 2706 1947 2009 
Q 1947 1309 1714 600 
Q 1481 -109 1013 -844 
L 513 -844 
Q 928 -128 1133 580 
Q 1338 1288 1338 2009 
Q 1338 2731 1133 3434 
Q 928 4138 513 4856 
z
" transform="scale(0.015625)"/>
      </defs>
      <use xlink:href="#DejaVuSans-44"/>
      <use xlink:href="#DejaVuSans-69" x="77.001953"/>
      <use xlink:href="#DejaVuSans-73" x="104.785156"/>
      <use xlink:href="#DejaVuSans-63" x="156.884766"/>
      <use xlink:href="#DejaVuSans-68" x="211.865234"/>
      <use xlink:href="#DejaVuSans-61" x="275.244141"/>
      <use xlink:href="#DejaVuSans-72" x="336.523438"/>
      <use xlink:href="#DejaVuSans-67" x="375.886719"/>
      <use xlink:href="#DejaVuSans-65" x="439.363281"/>
      <use xlink:href="#DejaVuSans-20" x="500.886719"/>
      <use xlink:href="#DejaVuSans-28" x="532.673828"/>
      <use xlink:href="#DejaVuSans-47" x="571.6875"/>
      <use xlink:href="#DejaVuSans-57" x="649.177734"/>
      <use xlink:href="#DejaVuSans-68" x="748.054688"/>
      <use xlink:href="#DejaVuSans-29" x="811.433594"/>
     </g>
    </g>
   </g>
   <g id="patch_29">
    <path d="M 54.01375 171.757274 
L 54.01375 9.757274 
" style="fill: none; stroke: #000000; stroke-width: 0.8; stroke-linejoin: miter; stroke-linecap: square"/>
   </g>
   <g id="patch_30">
    <path d="M 198.01375 171.757274 
L 198.01375 9.757274 
" style="fill: none; stroke: #000000; stroke-width: 0.8; stroke-linejoin: miter; stroke-linecap: square"/>
   </g>
   <g id="patch_31">
    <path d="M 54.01375 171.757274 
L 198.01375 171.757274 
" style="fill: none; stroke: #000000; stroke-width: 0.8; stroke-linejoin: miter; stroke-linecap: square"/>
   </g>
   <g id="patch_32">
    <path d="M 54.01375 9.757274 
L 198.01375 9.757274 
" style="fill: none; stroke: #000000; stroke-width: 0.8; stroke-linejoin: miter; stroke-linecap: square"/>
   </g>
  </g>
  <g id="axes_2">
   <g id="patch_33">
    <path d="M 198.01375 171.757274 
L 342.01375 171.757274 
L 342.01375 9.757274 
L 198.01375 9.757274 
z
" style="fill: #ffffff"/>
   </g>
   <g id="patch_34">
    <path d="M 204.559205 171.757274 
L 208.618401 171.757274 
L 208.618401 171.470539 
L 204.559205 171.470539 
z
" clip-path="url(#p05d9ab2f8c)" style="fill: #ff0000; opacity: 0.7"/>
   </g>
   <g id="patch_35">
    <path d="M 209.6332 171.757274 
L 213.692397 171.757274 
L 213.692397 170.710528 
L 209.6332 170.710528 
z
" clip-path="url(#p05d9ab2f8c)" style="fill: #ff0000; opacity: 0.7"/>
   </g>
   <g id="patch_36">
    <path d="M 214.707196 171.757274 
L 218.766393 171.757274 
L 218.766393 168.943826 
L 214.707196 168.943826 
z
" clip-path="url(#p05d9ab2f8c)" style="fill: #ff0000; opacity: 0.7"/>
   </g>
   <g id="patch_37">
    <path d="M 219.781192 171.757274 
L 223.840388 171.757274 
L 223.840388 166.114355 
L 219.781192 166.114355 
z
" clip-path="url(#p05d9ab2f8c)" style="fill: #ff0000; opacity: 0.7"/>
   </g>
   <g id="patch_38">
    <path d="M 224.855188 171.757274 
L 228.914384 171.757274 
L 228.914384 161.665763 
L 224.855188 161.665763 
z
" clip-path="url(#p05d9ab2f8c)" style="fill: #ff0000; opacity: 0.7"/>
   </g>
   <g id="patch_39">
    <path d="M 229.929183 171.757274 
L 233.98838 171.757274 
L 233.98838 155.945 
L 229.929183 155.945 
z
" clip-path="url(#p05d9ab2f8c)" style="fill: #ff0000; opacity: 0.7"/>
   </g>
   <g id="patch_40">
    <path d="M 235.003179 171.757274 
L 239.062376 171.757274 
L 239.062376 148.752073 
L 235.003179 148.752073 
z
" clip-path="url(#p05d9ab2f8c)" style="fill: #ff0000; opacity: 0.7"/>
   </g>
   <g id="patch_41">
    <path d="M 240.077175 171.757274 
L 244.136372 171.757274 
L 244.136372 140.020758 
L 240.077175 140.020758 
z
" clip-path="url(#p05d9ab2f8c)" style="fill: #ff0000; opacity: 0.7"/>
   </g>
   <g id="patch_42">
    <path d="M 245.151171 171.757274 
L 249.210367 171.757274 
L 249.210367 130.21965 
L 245.151171 130.21965 
z
" clip-path="url(#p05d9ab2f8c)" style="fill: #ff0000; opacity: 0.7"/>
   </g>
   <g id="patch_43">
    <path d="M 250.225166 171.757274 
L 254.284363 171.757274 
L 254.284363 118.900546 
L 250.225166 118.900546 
z
" clip-path="url(#p05d9ab2f8c)" style="fill: #ff0000; opacity: 0.7"/>
   </g>
   <g id="patch_44">
    <path d="M 255.299162 171.757274 
L 259.358359 171.757274 
L 259.358359 106.66219 
L 255.299162 106.66219 
z
" clip-path="url(#p05d9ab2f8c)" style="fill: #ff0000; opacity: 0.7"/>
   </g>
   <g id="patch_45">
    <path d="M 260.373158 171.757274 
L 264.432355 171.757274 
L 264.432355 92.829141 
L 260.373158 92.829141 
z
" clip-path="url(#p05d9ab2f8c)" style="fill: #ff0000; opacity: 0.7"/>
   </g>
   <g id="patch_46">
    <path d="M 265.447154 171.757274 
L 269.50635 171.757274 
L 269.50635 80.386134 
L 265.447154 80.386134 
z
" clip-path="url(#p05d9ab2f8c)" style="fill: #ff0000; opacity: 0.7"/>
   </g>
   <g id="patch_47">
    <path d="M 270.52115 171.757274 
L 274.580346 171.757274 
L 274.580346 67.816498 
L 270.52115 67.816498 
z
" clip-path="url(#p05d9ab2f8c)" style="fill: #ff0000; opacity: 0.7"/>
   </g>
   <g id="patch_48">
    <path d="M 275.595145 171.757274 
L 279.654342 171.757274 
L 279.654342 56.655112 
L 275.595145 56.655112 
z
" clip-path="url(#p05d9ab2f8c)" style="fill: #ff0000; opacity: 0.7"/>
   </g>
   <g id="patch_49">
    <path d="M 280.669141 171.757274 
L 284.728338 171.757274 
L 284.728338 48.086736 
L 280.669141 48.086736 
z
" clip-path="url(#p05d9ab2f8c)" style="fill: #ff0000; opacity: 0.7"/>
   </g>
   <g id="patch_50">
    <path d="M 285.743137 171.757274 
L 289.802334 171.757274 
L 289.802334 39.124526 
L 285.743137 39.124526 
z
" clip-path="url(#p05d9ab2f8c)" style="fill: #ff0000; opacity: 0.7"/>
   </g>
   <g id="patch_51">
    <path d="M 290.817133 171.757274 
L 294.876329 171.757274 
L 294.876329 32.406129 
L 290.817133 32.406129 
z
" clip-path="url(#p05d9ab2f8c)" style="fill: #ff0000; opacity: 0.7"/>
   </g>
   <g id="patch_52">
    <path d="M 295.891128 171.757274 
L 299.950325 171.757274 
L 299.950325 26.806015 
L 295.891128 26.806015 
z
" clip-path="url(#p05d9ab2f8c)" style="fill: #ff0000; opacity: 0.7"/>
   </g>
   <g id="patch_53">
    <path d="M 300.965124 171.757274 
L 305.024321 171.757274 
L 305.024321 22.362495 
L 300.965124 22.362495 
z
" clip-path="url(#p05d9ab2f8c)" style="fill: #ff0000; opacity: 0.7"/>
   </g>
   <g id="patch_54">
    <path d="M 306.03912 171.757274 
L 310.098317 171.757274 
L 310.098317 19.074008 
L 306.03912 19.074008 
z
" clip-path="url(#p05d9ab2f8c)" style="fill: #ff0000; opacity: 0.7"/>
   </g>
   <g id="patch_55">
    <path d="M 311.113116 171.757274 
L 315.172312 171.757274 
L 315.172312 17.588899 
L 311.113116 17.588899 
z
" clip-path="url(#p05d9ab2f8c)" style="fill: #ff0000; opacity: 0.7"/>
   </g>
   <g id="patch_56">
    <path d="M 316.187112 171.757274 
L 320.246308 171.757274 
L 320.246308 17.47156 
L 316.187112 17.47156 
z
" clip-path="url(#p05d9ab2f8c)" style="fill: #ff0000; opacity: 0.7"/>
   </g>
   <g id="patch_57">
    <path d="M 321.261107 171.757274 
L 325.320304 171.757274 
L 325.320304 18.774581 
L 321.261107 18.774581 
z
" clip-path="url(#p05d9ab2f8c)" style="fill: #ff0000; opacity: 0.7"/>
   </g>
   <g id="patch_58">
    <path d="M 326.335103 171.757274 
L 330.3943 171.757274 
L 330.3943 24.828753 
L 326.335103 24.828753 
z
" clip-path="url(#p05d9ab2f8c)" style="fill: #ff0000; opacity: 0.7"/>
   </g>
   <g id="patch_59">
    <path d="M 331.409099 171.757274 
L 335.468295 171.757274 
L 335.468295 31.350442 
L 331.409099 31.350442 
z
" clip-path="url(#p05d9ab2f8c)" style="fill: #ff0000; opacity: 0.7"/>
   </g>
   <g id="matplotlib.axis_3">
    <g id="xtick_4">
     <g id="line2d_8">
      <g>
       <use xlink:href="#m0ebd60b6f8" x="231.958782" y="171.757274" style="stroke: #000000; stroke-width: 0.8"/>
      </g>
     </g>
     <g id="text_9">
      <!-- 2030 -->
      <g transform="translate(214.143782 189.395086) scale(0.14 -0.14)">
       <use xlink:href="#DejaVuSans-32"/>
       <use xlink:href="#DejaVuSans-30" x="63.623047"/>
       <use xlink:href="#DejaVuSans-33" x="127.246094"/>
       <use xlink:href="#DejaVuSans-30" x="190.869141"/>
      </g>
     </g>
    </g>
    <g id="xtick_5">
     <g id="line2d_9">
      <g>
       <use xlink:href="#m0ebd60b6f8" x="282.698739" y="171.757274" style="stroke: #000000; stroke-width: 0.8"/>
      </g>
     </g>
     <g id="text_10">
      <!-- 2040 -->
      <g transform="translate(264.883739 189.395086) scale(0.14 -0.14)">
       <use xlink:href="#DejaVuSans-32"/>
       <use xlink:href="#DejaVuSans-30" x="63.623047"/>
       <use xlink:href="#DejaVuSans-34" x="127.246094"/>
       <use xlink:href="#DejaVuSans-30" x="190.869141"/>
      </g>
     </g>
    </g>
    <g id="xtick_6">
     <g id="line2d_10">
      <g>
       <use xlink:href="#m0ebd60b6f8" x="333.438697" y="171.757274" style="stroke: #000000; stroke-width: 0.8"/>
      </g>
     </g>
     <g id="text_11">
      <!-- 2050 -->
      <g transform="translate(315.623697 189.395086) scale(0.14 -0.14)">
       <use xlink:href="#DejaVuSans-32"/>
       <use xlink:href="#DejaVuSans-30" x="63.623047"/>
       <use xlink:href="#DejaVuSans-35" x="127.246094"/>
       <use xlink:href="#DejaVuSans-30" x="190.869141"/>
      </g>
     </g>
    </g>
   </g>
   <g id="matplotlib.axis_4"/>
   <g id="patch_60">
    <path d="M 198.01375 171.757274 
L 198.01375 9.757274 
" style="fill: none; stroke: #000000; stroke-width: 0.8; stroke-linejoin: miter; stroke-linecap: square"/>
   </g>
   <g id="patch_61">
    <path d="M 342.01375 171.757274 
L 342.01375 9.757274 
" style="fill: none; stroke: #000000; stroke-width: 0.8; stroke-linejoin: miter; stroke-linecap: square"/>
   </g>
   <g id="patch_62">
    <path d="M 198.01375 171.757274 
L 342.01375 171.757274 
" style="fill: none; stroke: #000000; stroke-width: 0.8; stroke-linejoin: miter; stroke-linecap: square"/>
   </g>
   <g id="patch_63">
    <path d="M 198.01375 9.757274 
L 342.01375 9.757274 
" style="fill: none; stroke: #000000; stroke-width: 0.8; stroke-linejoin: miter; stroke-linecap: square"/>
   </g>
  </g>
  <g id="axes_3">
   <g id="patch_64">
    <path d="M 342.01375 171.757274 
L 486.01375 171.757274 
L 486.01375 9.757274 
L 342.01375 9.757274 
z
" style="fill: #ffffff"/>
   </g>
   <g id="patch_65">
    <path d="M 348.559205 171.757274 
L 352.618401 171.757274 
L 352.618401 171.368704 
L 348.559205 171.368704 
z
" clip-path="url(#p7133b6481d)" style="fill: #ff0000; opacity: 0.7"/>
   </g>
   <g id="patch_66">
    <path d="M 353.6332 171.757274 
L 357.692397 171.757274 
L 357.692397 170.334307 
L 353.6332 170.334307 
z
" clip-path="url(#p7133b6481d)" style="fill: #ff0000; opacity: 0.7"/>
   </g>
   <g id="patch_67">
    <path d="M 358.707196 171.757274 
L 362.766393 171.757274 
L 362.766393 168.10632 
L 358.707196 168.10632 
z
" clip-path="url(#p7133b6481d)" style="fill: #ff0000; opacity: 0.7"/>
   </g>
   <g id="patch_68">
    <path d="M 363.781192 171.757274 
L 367.840388 171.757274 
L 367.840388 164.473696 
L 363.781192 164.473696 
z
" clip-path="url(#p7133b6481d)" style="fill: #ff0000; opacity: 0.7"/>
   </g>
   <g id="patch_69">
    <path d="M 368.855188 171.757274 
L 372.914384 171.757274 
L 372.914384 158.761123 
L 368.855188 158.761123 
z
" clip-path="url(#p7133b6481d)" style="fill: #ff0000; opacity: 0.7"/>
   </g>
   <g id="patch_70">
    <path d="M 373.929183 171.757274 
L 377.98838 171.757274 
L 377.98838 151.258539 
L 373.929183 151.258539 
z
" clip-path="url(#p7133b6481d)" style="fill: #ff0000; opacity: 0.7"/>
   </g>
   <g id="patch_71">
    <path d="M 379.003179 171.757274 
L 383.062376 171.757274 
L 383.062376 141.385967 
L 379.003179 141.385967 
z
" clip-path="url(#p7133b6481d)" style="fill: #ff0000; opacity: 0.7"/>
   </g>
   <g id="patch_72">
    <path d="M 384.077175 171.757274 
L 388.136372 171.757274 
L 388.136372 129.089481 
L 384.077175 129.089481 
z
" clip-path="url(#p7133b6481d)" style="fill: #ff0000; opacity: 0.7"/>
   </g>
   <g id="patch_73">
    <path d="M 389.151171 171.757274 
L 393.210367 171.757274 
L 393.210367 115.962389 
L 389.151171 115.962389 
z
" clip-path="url(#p7133b6481d)" style="fill: #ff0000; opacity: 0.7"/>
   </g>
   <g id="patch_74">
    <path d="M 394.225166 171.757274 
L 398.284363 171.757274 
L 398.284363 101.328735 
L 394.225166 101.328735 
z
" clip-path="url(#p7133b6481d)" style="fill: #ff0000; opacity: 0.7"/>
   </g>
   <g id="patch_75">
    <path d="M 399.299162 171.757274 
L 403.358359 171.757274 
L 403.358359 86.896472 
L 399.299162 86.896472 
z
" clip-path="url(#p7133b6481d)" style="fill: #ff0000; opacity: 0.7"/>
   </g>
   <g id="patch_76">
    <path d="M 404.373158 171.757274 
L 408.432355 171.757274 
L 408.432355 73.852271 
L 404.373158 73.852271 
z
" clip-path="url(#p7133b6481d)" style="fill: #ff0000; opacity: 0.7"/>
   </g>
   <g id="patch_77">
    <path d="M 409.447154 171.757274 
L 413.50635 171.757274 
L 413.50635 61.49865 
L 409.447154 61.49865 
z
" clip-path="url(#p7133b6481d)" style="fill: #ff0000; opacity: 0.7"/>
   </g>
   <g id="patch_78">
    <path d="M 414.52115 171.757274 
L 418.580346 171.757274 
L 418.580346 51.241433 
L 414.52115 51.241433 
z
" clip-path="url(#p7133b6481d)" style="fill: #ff0000; opacity: 0.7"/>
   </g>
   <g id="patch_79">
    <path d="M 419.595145 171.757274 
L 423.654342 171.757274 
L 423.654342 42.936109 
L 419.595145 42.936109 
z
" clip-path="url(#p7133b6481d)" style="fill: #ff0000; opacity: 0.7"/>
   </g>
   <g id="patch_80">
    <path d="M 424.669141 171.757274 
L 428.728338 171.757274 
L 428.728338 35.552411 
L 424.669141 35.552411 
z
" clip-path="url(#p7133b6481d)" style="fill: #ff0000; opacity: 0.7"/>
   </g>
   <g id="patch_81">
    <path d="M 429.743137 171.757274 
L 433.802334 171.757274 
L 433.802334 29.200914 
L 429.743137 29.200914 
z
" clip-path="url(#p7133b6481d)" style="fill: #ff0000; opacity: 0.7"/>
   </g>
   <g id="patch_82">
    <path d="M 434.817133 171.757274 
L 438.876329 171.757274 
L 438.876329 24.605456 
L 434.817133 24.605456 
z
" clip-path="url(#p7133b6481d)" style="fill: #ff0000; opacity: 0.7"/>
   </g>
   <g id="patch_83">
    <path d="M 439.891128 171.757274 
L 443.950325 171.757274 
L 443.950325 20.416695 
L 439.891128 20.416695 
z
" clip-path="url(#p7133b6481d)" style="fill: #ff0000; opacity: 0.7"/>
   </g>
   <g id="patch_84">
    <path d="M 444.965124 171.757274 
L 449.024321 171.757274 
L 449.024321 17.47156 
L 444.965124 17.47156 
z
" clip-path="url(#p7133b6481d)" style="fill: #ff0000; opacity: 0.7"/>
   </g>
   <g id="patch_85">
    <path d="M 450.03912 171.757274 
L 454.098317 171.757274 
L 454.098317 19.370122 
L 450.03912 19.370122 
z
" clip-path="url(#p7133b6481d)" style="fill: #ff0000; opacity: 0.7"/>
   </g>
   <g id="patch_86">
    <path d="M 455.113116 171.757274 
L 459.172312 171.757274 
L 459.172312 21.838985 
L 455.113116 21.838985 
z
" clip-path="url(#p7133b6481d)" style="fill: #ff0000; opacity: 0.7"/>
   </g>
   <g id="patch_87">
    <path d="M 460.187112 171.757274 
L 464.246308 171.757274 
L 464.246308 25.823306 
L 460.187112 25.823306 
z
" clip-path="url(#p7133b6481d)" style="fill: #ff0000; opacity: 0.7"/>
   </g>
   <g id="patch_88">
    <path d="M 465.261107 171.757274 
L 469.320304 171.757274 
L 469.320304 31.570577 
L 465.261107 31.570577 
z
" clip-path="url(#p7133b6481d)" style="fill: #ff0000; opacity: 0.7"/>
   </g>
   <g id="patch_89">
    <path d="M 470.335103 171.757274 
L 474.3943 171.757274 
L 474.3943 38.806278 
L 470.335103 38.806278 
z
" clip-path="url(#p7133b6481d)" style="fill: #ff0000; opacity: 0.7"/>
   </g>
   <g id="patch_90">
    <path d="M 475.409099 171.757274 
L 479.468295 171.757274 
L 479.468295 47.204975 
L 475.409099 47.204975 
z
" clip-path="url(#p7133b6481d)" style="fill: #ff0000; opacity: 0.7"/>
   </g>
   <g id="matplotlib.axis_5">
    <g id="xtick_7">
     <g id="line2d_11">
      <g>
       <use xlink:href="#m0ebd60b6f8" x="375.958782" y="171.757274" style="stroke: #000000; stroke-width: 0.8"/>
      </g>
     </g>
     <g id="text_12">
      <!-- 2030 -->
      <g transform="translate(358.143782 189.395086) scale(0.14 -0.14)">
       <use xlink:href="#DejaVuSans-32"/>
       <use xlink:href="#DejaVuSans-30" x="63.623047"/>
       <use xlink:href="#DejaVuSans-33" x="127.246094"/>
       <use xlink:href="#DejaVuSans-30" x="190.869141"/>
      </g>
     </g>
    </g>
    <g id="xtick_8">
     <g id="line2d_12">
      <g>
       <use xlink:href="#m0ebd60b6f8" x="426.698739" y="171.757274" style="stroke: #000000; stroke-width: 0.8"/>
      </g>
     </g>
     <g id="text_13">
      <!-- 2040 -->
      <g transform="translate(408.883739 189.395086) scale(0.14 -0.14)">
       <use xlink:href="#DejaVuSans-32"/>
       <use xlink:href="#DejaVuSans-30" x="63.623047"/>
       <use xlink:href="#DejaVuSans-34" x="127.246094"/>
       <use xlink:href="#DejaVuSans-30" x="190.869141"/>
      </g>
     </g>
    </g>
    <g id="xtick_9">
     <g id="line2d_13">
      <g>
       <use xlink:href="#m0ebd60b6f8" x="477.438697" y="171.757274" style="stroke: #000000; stroke-width: 0.8"/>
      </g>
     </g>
     <g id="text_14">
      <!-- 2050 -->
      <g transform="translate(459.623697 189.395086) scale(0.14 -0.14)">
       <use xlink:href="#DejaVuSans-32"/>
       <use xlink:href="#DejaVuSans-30" x="63.623047"/>
       <use xlink:href="#DejaVuSans-35" x="127.246094"/>
       <use xlink:href="#DejaVuSans-30" x="190.869141"/>
      </g>
     </g>
    </g>
   </g>
   <g id="matplotlib.axis_6"/>
   <g id="patch_91">
    <path d="M 342.01375 171.757274 
L 342.01375 9.757274 
" style="fill: none; stroke: #000000; stroke-width: 0.8; stroke-linejoin: miter; stroke-linecap: square"/>
   </g>
   <g id="patch_92">
    <path d="M 486.01375 171.757274 
L 486.01375 9.757274 
" style="fill: none; stroke: #000000; stroke-width: 0.8; stroke-linejoin: miter; stroke-linecap: square"/>
   </g>
   <g id="patch_93">
    <path d="M 342.01375 171.757274 
L 486.01375 171.757274 
" style="fill: none; stroke: #000000; stroke-width: 0.8; stroke-linejoin: miter; stroke-linecap: square"/>
   </g>
   <g id="patch_94">
    <path d="M 342.01375 9.757274 
L 486.01375 9.757274 
" style="fill: none; stroke: #000000; stroke-width: 0.8; stroke-linejoin: miter; stroke-linecap: square"/>
   </g>
  </g>
  <g id="axes_4">
   <g id="patch_95">
    <path d="M 486.01375 171.757274 
L 630.01375 171.757274 
L 630.01375 9.757274 
L 486.01375 9.757274 
z
" style="fill: #ffffff"/>
   </g>
   <g id="patch_96">
    <path d="M 492.559205 171.757274 
L 496.618401 171.757274 
L 496.618401 171.510318 
L 492.559205 171.510318 
z
" clip-path="url(#p0e14f84037)" style="fill: #ff0000; opacity: 0.7"/>
   </g>
   <g id="patch_97">
    <path d="M 497.6332 171.757274 
L 501.692397 171.757274 
L 501.692397 170.859778 
L 497.6332 170.859778 
z
" clip-path="url(#p0e14f84037)" style="fill: #ff0000; opacity: 0.7"/>
   </g>
   <g id="patch_98">
    <path d="M 502.707196 171.757274 
L 506.766393 171.757274 
L 506.766393 169.305605 
L 502.707196 169.305605 
z
" clip-path="url(#p0e14f84037)" style="fill: #ff0000; opacity: 0.7"/>
   </g>
   <g id="patch_99">
    <path d="M 507.781192 171.757274 
L 511.840388 171.757274 
L 511.840388 166.800159 
L 507.781192 166.800159 
z
" clip-path="url(#p0e14f84037)" style="fill: #ff0000; opacity: 0.7"/>
   </g>
   <g id="patch_100">
    <path d="M 512.855188 171.757274 
L 516.914384 171.757274 
L 516.914384 162.837701 
L 512.855188 162.837701 
z
" clip-path="url(#p0e14f84037)" style="fill: #ff0000; opacity: 0.7"/>
   </g>
   <g id="patch_101">
    <path d="M 517.929183 171.757274 
L 521.98838 171.757274 
L 521.98838 157.743112 
L 517.929183 157.743112 
z
" clip-path="url(#p0e14f84037)" style="fill: #ff0000; opacity: 0.7"/>
   </g>
   <g id="patch_102">
    <path d="M 523.003179 171.757274 
L 527.062376 171.757274 
L 527.062376 151.422498 
L 523.003179 151.422498 
z
" clip-path="url(#p0e14f84037)" style="fill: #ff0000; opacity: 0.7"/>
   </g>
   <g id="patch_103">
    <path d="M 528.077175 171.757274 
L 532.136372 171.757274 
L 532.136372 143.902677 
L 528.077175 143.902677 
z
" clip-path="url(#p0e14f84037)" style="fill: #ff0000; opacity: 0.7"/>
   </g>
   <g id="patch_104">
    <path d="M 533.151171 171.757274 
L 537.210367 171.757274 
L 537.210367 135.571044 
L 533.151171 135.571044 
z
" clip-path="url(#p0e14f84037)" style="fill: #ff0000; opacity: 0.7"/>
   </g>
   <g id="patch_105">
    <path d="M 538.225166 171.757274 
L 542.284363 171.757274 
L 542.284363 125.931658 
L 538.225166 125.931658 
z
" clip-path="url(#p0e14f84037)" style="fill: #ff0000; opacity: 0.7"/>
   </g>
   <g id="patch_106">
    <path d="M 543.299162 171.757274 
L 547.358359 171.757274 
L 547.358359 115.392344 
L 543.299162 115.392344 
z
" clip-path="url(#p0e14f84037)" style="fill: #ff0000; opacity: 0.7"/>
   </g>
   <g id="patch_107">
    <path d="M 548.373158 171.757274 
L 552.432355 171.757274 
L 552.432355 102.877818 
L 548.373158 102.877818 
z
" clip-path="url(#p0e14f84037)" style="fill: #ff0000; opacity: 0.7"/>
   </g>
   <g id="patch_108">
    <path d="M 553.447154 171.757274 
L 557.50635 171.757274 
L 557.50635 91.646836 
L 553.447154 91.646836 
z
" clip-path="url(#p0e14f84037)" style="fill: #ff0000; opacity: 0.7"/>
   </g>
   <g id="patch_109">
    <path d="M 558.52115 171.757274 
L 562.580346 171.757274 
L 562.580346 79.342137 
L 558.52115 79.342137 
z
" clip-path="url(#p0e14f84037)" style="fill: #ff0000; opacity: 0.7"/>
   </g>
   <g id="patch_110">
    <path d="M 563.595145 171.757274 
L 567.654342 171.757274 
L 567.654342 67.392687 
L 563.595145 67.392687 
z
" clip-path="url(#p0e14f84037)" style="fill: #ff0000; opacity: 0.7"/>
   </g>
   <g id="patch_111">
    <path d="M 568.669141 171.757274 
L 572.728338 171.757274 
L 572.728338 57.419238 
L 568.669141 57.419238 
z
" clip-path="url(#p0e14f84037)" style="fill: #ff0000; opacity: 0.7"/>
   </g>
   <g id="patch_112">
    <path d="M 573.743137 171.757274 
L 577.802334 171.757274 
L 577.802334 47.187361 
L 573.743137 47.187361 
z
" clip-path="url(#p0e14f84037)" style="fill: #ff0000; opacity: 0.7"/>
   </g>
   <g id="patch_113">
    <path d="M 578.817133 171.757274 
L 582.876329 171.757274 
L 582.876329 39.095965 
L 578.817133 39.095965 
z
" clip-path="url(#p0e14f84037)" style="fill: #ff0000; opacity: 0.7"/>
   </g>
   <g id="patch_114">
    <path d="M 583.891128 171.757274 
L 587.950325 171.757274 
L 587.950325 32.408707 
L 583.891128 32.408707 
z
" clip-path="url(#p0e14f84037)" style="fill: #ff0000; opacity: 0.7"/>
   </g>
   <g id="patch_115">
    <path d="M 588.965124 171.757274 
L 593.024321 171.757274 
L 593.024321 27.368705 
L 588.965124 27.368705 
z
" clip-path="url(#p0e14f84037)" style="fill: #ff0000; opacity: 0.7"/>
   </g>
   <g id="patch_116">
    <path d="M 594.03912 171.757274 
L 598.098317 171.757274 
L 598.098317 22.831885 
L 594.03912 22.831885 
z
" clip-path="url(#p0e14f84037)" style="fill: #ff0000; opacity: 0.7"/>
   </g>
   <g id="patch_117">
    <path d="M 599.113116 171.757274 
L 603.172312 171.757274 
L 603.172312 20.064379 
L 599.113116 20.064379 
z
" clip-path="url(#p0e14f84037)" style="fill: #ff0000; opacity: 0.7"/>
   </g>
   <g id="patch_118">
    <path d="M 604.187112 171.757274 
L 608.246308 171.757274 
L 608.246308 18.433935 
L 604.187112 18.433935 
z
" clip-path="url(#p0e14f84037)" style="fill: #ff0000; opacity: 0.7"/>
   </g>
   <g id="patch_119">
    <path d="M 609.261107 171.757274 
L 613.320304 171.757274 
L 613.320304 17.47156 
L 609.261107 17.47156 
z
" clip-path="url(#p0e14f84037)" style="fill: #ff0000; opacity: 0.7"/>
   </g>
   <g id="patch_120">
    <path d="M 614.335103 171.757274 
L 618.3943 171.757274 
L 618.3943 20.65391 
L 614.335103 20.65391 
z
" clip-path="url(#p0e14f84037)" style="fill: #ff0000; opacity: 0.7"/>
   </g>
   <g id="patch_121">
    <path d="M 619.409099 171.757274 
L 623.468295 171.757274 
L 623.468295 25.164211 
L 619.409099 25.164211 
z
" clip-path="url(#p0e14f84037)" style="fill: #ff0000; opacity: 0.7"/>
   </g>
   <g id="matplotlib.axis_7">
    <g id="xtick_10">
     <g id="line2d_14">
      <g>
       <use xlink:href="#m0ebd60b6f8" x="519.958782" y="171.757274" style="stroke: #000000; stroke-width: 0.8"/>
      </g>
     </g>
     <g id="text_15">
      <!-- 2030 -->
      <g transform="translate(502.143782 189.395086) scale(0.14 -0.14)">
       <use xlink:href="#DejaVuSans-32"/>
       <use xlink:href="#DejaVuSans-30" x="63.623047"/>
       <use xlink:href="#DejaVuSans-33" x="127.246094"/>
       <use xlink:href="#DejaVuSans-30" x="190.869141"/>
      </g>
     </g>
    </g>
    <g id="xtick_11">
     <g id="line2d_15">
      <g>
       <use xlink:href="#m0ebd60b6f8" x="570.698739" y="171.757274" style="stroke: #000000; stroke-width: 0.8"/>
      </g>
     </g>
     <g id="text_16">
      <!-- 2040 -->
      <g transform="translate(552.883739 189.395086) scale(0.14 -0.14)">
       <use xlink:href="#DejaVuSans-32"/>
       <use xlink:href="#DejaVuSans-30" x="63.623047"/>
       <use xlink:href="#DejaVuSans-34" x="127.246094"/>
       <use xlink:href="#DejaVuSans-30" x="190.869141"/>
      </g>
     </g>
    </g>
    <g id="xtick_12">
     <g id="line2d_16">
      <g>
       <use xlink:href="#m0ebd60b6f8" x="621.438697" y="171.757274" style="stroke: #000000; stroke-width: 0.8"/>
      </g>
     </g>
     <g id="text_17">
      <!-- 2050 -->
      <g transform="translate(603.623697 189.395086) scale(0.14 -0.14)">
       <use xlink:href="#DejaVuSans-32"/>
       <use xlink:href="#DejaVuSans-30" x="63.623047"/>
       <use xlink:href="#DejaVuSans-35" x="127.246094"/>
       <use xlink:href="#DejaVuSans-30" x="190.869141"/>
      </g>
     </g>
    </g>
   </g>
   <g id="matplotlib.axis_8"/>
   <g id="patch_122">
    <path d="M 486.01375 171.757274 
L 486.01375 9.757274 
" style="fill: none; stroke: #000000; stroke-width: 0.8; stroke-linejoin: miter; stroke-linecap: square"/>
   </g>
   <g id="patch_123">
    <path d="M 630.01375 171.757274 
L 630.01375 9.757274 
" style="fill: none; stroke: #000000; stroke-width: 0.8; stroke-linejoin: miter; stroke-linecap: square"/>
   </g>
   <g id="patch_124">
    <path d="M 486.01375 171.757274 
L 630.01375 171.757274 
" style="fill: none; stroke: #000000; stroke-width: 0.8; stroke-linejoin: miter; stroke-linecap: square"/>
   </g>
   <g id="patch_125">
    <path d="M 486.01375 9.757274 
L 630.01375 9.757274 
" style="fill: none; stroke: #000000; stroke-width: 0.8; stroke-linejoin: miter; stroke-linecap: square"/>
   </g>
  </g>
  <g id="axes_5">
   <g id="patch_126">
    <path d="M 630.01375 171.757274 
L 774.01375 171.757274 
L 774.01375 9.757274 
L 630.01375 9.757274 
z
" style="fill: #ffffff"/>
   </g>
   <g id="patch_127">
    <path d="M 636.559205 171.757274 
L 640.618401 171.757274 
L 640.618401 171.538616 
L 636.559205 171.538616 
z
" clip-path="url(#p5a94c721e7)" style="fill: #ff0000; opacity: 0.7"/>
   </g>
   <g id="patch_128">
    <path d="M 641.6332 171.757274 
L 645.692397 171.757274 
L 645.692397 171.607871 
L 641.6332 171.607871 
z
" clip-path="url(#p5a94c721e7)" style="fill: #ff0000; opacity: 0.7"/>
   </g>
   <g id="patch_129">
    <path d="M 646.707196 171.757274 
L 650.766393 171.757274 
L 650.766393 171.672458 
L 646.707196 171.672458 
z
" clip-path="url(#p5a94c721e7)" style="fill: #ff0000; opacity: 0.7"/>
   </g>
   <g id="patch_130">
    <path d="M 651.781192 171.757274 
L 655.840388 171.757274 
L 655.840388 171.729978 
L 651.781192 171.729978 
z
" clip-path="url(#p5a94c721e7)" style="fill: #ff0000; opacity: 0.7"/>
   </g>
   <g id="patch_131">
    <path d="M 656.855188 171.757274 
L 660.914384 171.757274 
L 660.914384 171.752525 
L 656.855188 171.752525 
z
" clip-path="url(#p5a94c721e7)" style="fill: #ff0000; opacity: 0.7"/>
   </g>
   <g id="patch_132">
    <path d="M 661.929183 171.757274 
L 665.98838 171.757274 
L 665.98838 171.756155 
L 661.929183 171.756155 
z
" clip-path="url(#p5a94c721e7)" style="fill: #ff0000; opacity: 0.7"/>
   </g>
   <g id="patch_133">
    <path d="M 667.003179 171.757274 
L 671.062376 171.757274 
L 671.062376 171.514673 
L 667.003179 171.514673 
z
" clip-path="url(#p5a94c721e7)" style="fill: #ff0000; opacity: 0.7"/>
   </g>
   <g id="patch_134">
    <path d="M 672.077175 171.757274 
L 676.136372 171.757274 
L 676.136372 170.040069 
L 672.077175 170.040069 
z
" clip-path="url(#p5a94c721e7)" style="fill: #ff0000; opacity: 0.7"/>
   </g>
   <g id="patch_135">
    <path d="M 677.151171 171.757274 
L 681.210367 171.757274 
L 681.210367 155.721788 
L 677.151171 155.721788 
z
" clip-path="url(#p5a94c721e7)" style="fill: #ff0000; opacity: 0.7"/>
   </g>
   <g id="patch_136">
    <path d="M 682.225166 171.757274 
L 686.284363 171.757274 
L 686.284363 97.599676 
L 682.225166 97.599676 
z
" clip-path="url(#p5a94c721e7)" style="fill: #ff0000; opacity: 0.7"/>
   </g>
   <g id="patch_137">
    <path d="M 687.299162 171.757274 
L 691.358359 171.757274 
L 691.358359 39.110474 
L 687.299162 39.110474 
z
" clip-path="url(#p5a94c721e7)" style="fill: #ff0000; opacity: 0.7"/>
   </g>
   <g id="patch_138">
    <path d="M 692.373158 171.757274 
L 696.432355 171.757274 
L 696.432355 17.47156 
L 692.373158 17.47156 
z
" clip-path="url(#p5a94c721e7)" style="fill: #ff0000; opacity: 0.7"/>
   </g>
   <g id="patch_139">
    <path d="M 697.447154 171.757274 
L 701.50635 171.757274 
L 701.50635 33.290671 
L 697.447154 33.290671 
z
" clip-path="url(#p5a94c721e7)" style="fill: #ff0000; opacity: 0.7"/>
   </g>
   <g id="patch_140">
    <path d="M 702.52115 171.757274 
L 706.580346 171.757274 
L 706.580346 62.849586 
L 702.52115 62.849586 
z
" clip-path="url(#p5a94c721e7)" style="fill: #ff0000; opacity: 0.7"/>
   </g>
   <g id="patch_141">
    <path d="M 707.595145 171.757274 
L 711.654342 171.757274 
L 711.654342 91.500806 
L 707.595145 91.500806 
z
" clip-path="url(#p5a94c721e7)" style="fill: #ff0000; opacity: 0.7"/>
   </g>
   <g id="patch_142">
    <path d="M 712.669141 171.757274 
L 716.728338 171.757274 
L 716.728338 109.327523 
L 712.669141 109.327523 
z
" clip-path="url(#p5a94c721e7)" style="fill: #ff0000; opacity: 0.7"/>
   </g>
   <g id="patch_143">
    <path d="M 717.743137 171.757274 
L 721.802334 171.757274 
L 721.802334 120.694659 
L 717.743137 120.694659 
z
" clip-path="url(#p5a94c721e7)" style="fill: #ff0000; opacity: 0.7"/>
   </g>
   <g id="patch_144">
    <path d="M 722.817133 171.757274 
L 726.876329 171.757274 
L 726.876329 127.913382 
L 722.817133 127.913382 
z
" clip-path="url(#p5a94c721e7)" style="fill: #ff0000; opacity: 0.7"/>
   </g>
   <g id="patch_145">
    <path d="M 727.891128 171.757274 
L 731.950325 171.757274 
L 731.950325 134.7208 
L 727.891128 134.7208 
z
" clip-path="url(#p5a94c721e7)" style="fill: #ff0000; opacity: 0.7"/>
   </g>
   <g id="patch_146">
    <path d="M 732.965124 171.757274 
L 737.024321 171.757274 
L 737.024321 142.814939 
L 732.965124 142.814939 
z
" clip-path="url(#p5a94c721e7)" style="fill: #ff0000; opacity: 0.7"/>
   </g>
   <g id="patch_147">
    <path d="M 738.03912 171.757274 
L 742.098317 171.757274 
L 742.098317 151.606909 
L 738.03912 151.606909 
z
" clip-path="url(#p5a94c721e7)" style="fill: #ff0000; opacity: 0.7"/>
   </g>
   <g id="patch_148">
    <path d="M 743.113116 171.757274 
L 747.172312 171.757274 
L 747.172312 159.408453 
L 743.113116 159.408453 
z
" clip-path="url(#p5a94c721e7)" style="fill: #ff0000; opacity: 0.7"/>
   </g>
   <g id="patch_149">
    <path d="M 748.187112 171.757274 
L 752.246308 171.757274 
L 752.246308 164.549241 
L 748.187112 164.549241 
z
" clip-path="url(#p5a94c721e7)" style="fill: #ff0000; opacity: 0.7"/>
   </g>
   <g id="patch_150">
    <path d="M 753.261107 171.757274 
L 757.320304 171.757274 
L 757.320304 168.119337 
L 753.261107 168.119337 
z
" clip-path="url(#p5a94c721e7)" style="fill: #ff0000; opacity: 0.7"/>
   </g>
   <g id="patch_151">
    <path d="M 758.335103 171.757274 
L 762.3943 171.757274 
L 762.3943 169.690054 
L 758.335103 169.690054 
z
" clip-path="url(#p5a94c721e7)" style="fill: #ff0000; opacity: 0.7"/>
   </g>
   <g id="patch_152">
    <path d="M 763.409099 171.757274 
L 767.468295 171.757274 
L 767.468295 170.745326 
L 763.409099 170.745326 
z
" clip-path="url(#p5a94c721e7)" style="fill: #ff0000; opacity: 0.7"/>
   </g>
   <g id="matplotlib.axis_9">
    <g id="xtick_13">
     <g id="line2d_17">
      <g>
       <use xlink:href="#m0ebd60b6f8" x="663.958782" y="171.757274" style="stroke: #000000; stroke-width: 0.8"/>
      </g>
     </g>
     <g id="text_18">
      <!-- 2030 -->
      <g transform="translate(646.143782 189.395086) scale(0.14 -0.14)">
       <use xlink:href="#DejaVuSans-32"/>
       <use xlink:href="#DejaVuSans-30" x="63.623047"/>
       <use xlink:href="#DejaVuSans-33" x="127.246094"/>
       <use xlink:href="#DejaVuSans-30" x="190.869141"/>
      </g>
     </g>
    </g>
    <g id="xtick_14">
     <g id="line2d_18">
      <g>
       <use xlink:href="#m0ebd60b6f8" x="714.698739" y="171.757274" style="stroke: #000000; stroke-width: 0.8"/>
      </g>
     </g>
     <g id="text_19">
      <!-- 2040 -->
      <g transform="translate(696.883739 189.395086) scale(0.14 -0.14)">
       <use xlink:href="#DejaVuSans-32"/>
       <use xlink:href="#DejaVuSans-30" x="63.623047"/>
       <use xlink:href="#DejaVuSans-34" x="127.246094"/>
       <use xlink:href="#DejaVuSans-30" x="190.869141"/>
      </g>
     </g>
    </g>
    <g id="xtick_15">
     <g id="line2d_19">
      <g>
       <use xlink:href="#m0ebd60b6f8" x="765.438697" y="171.757274" style="stroke: #000000; stroke-width: 0.8"/>
      </g>
     </g>
     <g id="text_20">
      <!-- 2050 -->
      <g transform="translate(747.623697 189.395086) scale(0.14 -0.14)">
       <use xlink:href="#DejaVuSans-32"/>
       <use xlink:href="#DejaVuSans-30" x="63.623047"/>
       <use xlink:href="#DejaVuSans-35" x="127.246094"/>
       <use xlink:href="#DejaVuSans-30" x="190.869141"/>
      </g>
     </g>
    </g>
   </g>
   <g id="matplotlib.axis_10"/>
   <g id="patch_153">
    <path d="M 630.01375 171.757274 
L 630.01375 9.757274 
" style="fill: none; stroke: #000000; stroke-width: 0.8; stroke-linejoin: miter; stroke-linecap: square"/>
   </g>
   <g id="patch_154">
    <path d="M 774.01375 171.757274 
L 774.01375 9.757274 
" style="fill: none; stroke: #000000; stroke-width: 0.8; stroke-linejoin: miter; stroke-linecap: square"/>
   </g>
   <g id="patch_155">
    <path d="M 630.01375 171.757274 
L 774.01375 171.757274 
" style="fill: none; stroke: #000000; stroke-width: 0.8; stroke-linejoin: miter; stroke-linecap: square"/>
   </g>
   <g id="patch_156">
    <path d="M 630.01375 9.757274 
L 774.01375 9.757274 
" style="fill: none; stroke: #000000; stroke-width: 0.8; stroke-linejoin: miter; stroke-linecap: square"/>
   </g>
  </g>
  <g id="axes_6">
   <g id="patch_157">
    <path d="M 774.01375 171.757274 
L 918.01375 171.757274 
L 918.01375 9.757274 
L 774.01375 9.757274 
z
" style="fill: #ffffff"/>
   </g>
   <g id="patch_158">
    <path d="M 780.559205 171.757274 
L 784.618401 171.757274 
L 784.618401 171.403404 
L 780.559205 171.403404 
z
" clip-path="url(#p39d6575417)" style="fill: #ff0000; opacity: 0.7"/>
   </g>
   <g id="patch_159">
    <path d="M 785.6332 171.757274 
L 789.692397 171.757274 
L 789.692397 170.45774 
L 785.6332 170.45774 
z
" clip-path="url(#p39d6575417)" style="fill: #ff0000; opacity: 0.7"/>
   </g>
   <g id="patch_160">
    <path d="M 790.707196 171.757274 
L 794.766393 171.757274 
L 794.766393 168.269317 
L 790.707196 168.269317 
z
" clip-path="url(#p39d6575417)" style="fill: #ff0000; opacity: 0.7"/>
   </g>
   <g id="patch_161">
    <path d="M 795.781192 171.757274 
L 799.840388 171.757274 
L 799.840388 164.761787 
L 795.781192 164.761787 
z
" clip-path="url(#p39d6575417)" style="fill: #ff0000; opacity: 0.7"/>
   </g>
   <g id="patch_162">
    <path d="M 800.855188 171.757274 
L 804.914384 171.757274 
L 804.914384 159.235193 
L 800.855188 159.235193 
z
" clip-path="url(#p39d6575417)" style="fill: #ff0000; opacity: 0.7"/>
   </g>
   <g id="patch_163">
    <path d="M 805.929183 171.757274 
L 809.98838 171.757274 
L 809.98838 152.148086 
L 805.929183 152.148086 
z
" clip-path="url(#p39d6575417)" style="fill: #ff0000; opacity: 0.7"/>
   </g>
   <g id="patch_164">
    <path d="M 811.003179 171.757274 
L 815.062376 171.757274 
L 815.062376 141.44048 
L 811.003179 141.44048 
z
" clip-path="url(#p39d6575417)" style="fill: #ff0000; opacity: 0.7"/>
   </g>
   <g id="patch_165">
    <path d="M 816.077175 171.757274 
L 820.136372 171.757274 
L 820.136372 127.645409 
L 816.077175 127.645409 
z
" clip-path="url(#p39d6575417)" style="fill: #ff0000; opacity: 0.7"/>
   </g>
   <g id="patch_166">
    <path d="M 821.151171 171.757274 
L 825.210367 171.757274 
L 825.210367 111.952722 
L 821.151171 111.952722 
z
" clip-path="url(#p39d6575417)" style="fill: #ff0000; opacity: 0.7"/>
   </g>
   <g id="patch_167">
    <path d="M 826.225166 171.757274 
L 830.284363 171.757274 
L 830.284363 93.777987 
L 826.225166 93.777987 
z
" clip-path="url(#p39d6575417)" style="fill: #ff0000; opacity: 0.7"/>
   </g>
   <g id="patch_168">
    <path d="M 831.299162 171.757274 
L 835.358359 171.757274 
L 835.358359 75.510446 
L 831.299162 75.510446 
z
" clip-path="url(#p39d6575417)" style="fill: #ff0000; opacity: 0.7"/>
   </g>
   <g id="patch_169">
    <path d="M 836.373158 171.757274 
L 840.432355 171.757274 
L 840.432355 59.507753 
L 836.373158 59.507753 
z
" clip-path="url(#p39d6575417)" style="fill: #ff0000; opacity: 0.7"/>
   </g>
   <g id="patch_170">
    <path d="M 841.447154 171.757274 
L 845.50635 171.757274 
L 845.50635 45.595706 
L 841.447154 45.595706 
z
" clip-path="url(#p39d6575417)" style="fill: #ff0000; opacity: 0.7"/>
   </g>
   <g id="patch_171">
    <path d="M 846.52115 171.757274 
L 850.580346 171.757274 
L 850.580346 35.235134 
L 846.52115 35.235134 
z
" clip-path="url(#p39d6575417)" style="fill: #ff0000; opacity: 0.7"/>
   </g>
   <g id="patch_172">
    <path d="M 851.595145 171.757274 
L 855.654342 171.757274 
L 855.654342 28.2014 
L 851.595145 28.2014 
z
" clip-path="url(#p39d6575417)" style="fill: #ff0000; opacity: 0.7"/>
   </g>
   <g id="patch_173">
    <path d="M 856.669141 171.757274 
L 860.728338 171.757274 
L 860.728338 22.586802 
L 856.669141 22.586802 
z
" clip-path="url(#p39d6575417)" style="fill: #ff0000; opacity: 0.7"/>
   </g>
   <g id="patch_174">
    <path d="M 861.743137 171.757274 
L 865.802334 171.757274 
L 865.802334 18.878891 
L 861.743137 18.878891 
z
" clip-path="url(#p39d6575417)" style="fill: #ff0000; opacity: 0.7"/>
   </g>
   <g id="patch_175">
    <path d="M 866.817133 171.757274 
L 870.876329 171.757274 
L 870.876329 17.504383 
L 866.817133 17.504383 
z
" clip-path="url(#p39d6575417)" style="fill: #ff0000; opacity: 0.7"/>
   </g>
   <g id="patch_176">
    <path d="M 871.891128 171.757274 
L 875.950325 171.757274 
L 875.950325 17.47156 
L 871.891128 17.47156 
z
" clip-path="url(#p39d6575417)" style="fill: #ff0000; opacity: 0.7"/>
   </g>
   <g id="patch_177">
    <path d="M 876.965124 171.757274 
L 881.024321 171.757274 
L 881.024321 18.497642 
L 876.965124 18.497642 
z
" clip-path="url(#p39d6575417)" style="fill: #ff0000; opacity: 0.7"/>
   </g>
   <g id="patch_178">
    <path d="M 882.03912 171.757274 
L 886.098317 171.757274 
L 886.098317 21.601659 
L 882.03912 21.601659 
z
" clip-path="url(#p39d6575417)" style="fill: #ff0000; opacity: 0.7"/>
   </g>
   <g id="patch_179">
    <path d="M 887.113116 171.757274 
L 891.172312 171.757274 
L 891.172312 24.986601 
L 887.113116 24.986601 
z
" clip-path="url(#p39d6575417)" style="fill: #ff0000; opacity: 0.7"/>
   </g>
   <g id="patch_180">
    <path d="M 892.187112 171.757274 
L 896.246308 171.757274 
L 896.246308 30.240411 
L 892.187112 30.240411 
z
" clip-path="url(#p39d6575417)" style="fill: #ff0000; opacity: 0.7"/>
   </g>
   <g id="patch_181">
    <path d="M 897.261107 171.757274 
L 901.320304 171.757274 
L 901.320304 37.266419 
L 897.261107 37.266419 
z
" clip-path="url(#p39d6575417)" style="fill: #ff0000; opacity: 0.7"/>
   </g>
   <g id="patch_182">
    <path d="M 902.335103 171.757274 
L 906.3943 171.757274 
L 906.3943 46.45334 
L 902.335103 46.45334 
z
" clip-path="url(#p39d6575417)" style="fill: #ff0000; opacity: 0.7"/>
   </g>
   <g id="patch_183">
    <path d="M 907.409099 171.757274 
L 911.468295 171.757274 
L 911.468295 56.080727 
L 907.409099 56.080727 
z
" clip-path="url(#p39d6575417)" style="fill: #ff0000; opacity: 0.7"/>
   </g>
   <g id="matplotlib.axis_11">
    <g id="xtick_16">
     <g id="line2d_20">
      <g>
       <use xlink:href="#m0ebd60b6f8" x="807.958782" y="171.757274" style="stroke: #000000; stroke-width: 0.8"/>
      </g>
     </g>
     <g id="text_21">
      <!-- 2030 -->
      <g transform="translate(790.143782 189.395086) scale(0.14 -0.14)">
       <use xlink:href="#DejaVuSans-32"/>
       <use xlink:href="#DejaVuSans-30" x="63.623047"/>
       <use xlink:href="#DejaVuSans-33" x="127.246094"/>
       <use xlink:href="#DejaVuSans-30" x="190.869141"/>
      </g>
     </g>
    </g>
    <g id="xtick_17">
     <g id="line2d_21">
      <g>
       <use xlink:href="#m0ebd60b6f8" x="858.698739" y="171.757274" style="stroke: #000000; stroke-width: 0.8"/>
      </g>
     </g>
     <g id="text_22">
      <!-- 2040 -->
      <g transform="translate(840.883739 189.395086) scale(0.14 -0.14)">
       <use xlink:href="#DejaVuSans-32"/>
       <use xlink:href="#DejaVuSans-30" x="63.623047"/>
       <use xlink:href="#DejaVuSans-34" x="127.246094"/>
       <use xlink:href="#DejaVuSans-30" x="190.869141"/>
      </g>
     </g>
    </g>
    <g id="xtick_18">
     <g id="line2d_22">
      <g>
       <use xlink:href="#m0ebd60b6f8" x="909.438697" y="171.757274" style="stroke: #000000; stroke-width: 0.8"/>
      </g>
     </g>
     <g id="text_23">
      <!-- 2050 -->
      <g transform="translate(891.623697 189.395086) scale(0.14 -0.14)">
       <use xlink:href="#DejaVuSans-32"/>
       <use xlink:href="#DejaVuSans-30" x="63.623047"/>
       <use xlink:href="#DejaVuSans-35" x="127.246094"/>
       <use xlink:href="#DejaVuSans-30" x="190.869141"/>
      </g>
     </g>
    </g>
   </g>
   <g id="matplotlib.axis_12"/>
   <g id="patch_184">
    <path d="M 774.01375 171.757274 
L 774.01375 9.757274 
" style="fill: none; stroke: #000000; stroke-width: 0.8; stroke-linejoin: miter; stroke-linecap: square"/>
   </g>
   <g id="patch_185">
    <path d="M 918.01375 171.757274 
L 918.01375 9.757274 
" style="fill: none; stroke: #000000; stroke-width: 0.8; stroke-linejoin: miter; stroke-linecap: square"/>
   </g>
   <g id="patch_186">
    <path d="M 774.01375 171.757274 
L 918.01375 171.757274 
" style="fill: none; stroke: #000000; stroke-width: 0.8; stroke-linejoin: miter; stroke-linecap: square"/>
   </g>
   <g id="patch_187">
    <path d="M 774.01375 9.757274 
L 918.01375 9.757274 
" style="fill: none; stroke: #000000; stroke-width: 0.8; stroke-linejoin: miter; stroke-linecap: square"/>
   </g>
  </g>
  <g id="axes_7">
   <g id="patch_188">
    <path d="M 918.01375 171.757274 
L 1062.01375 171.757274 
L 1062.01375 9.757274 
L 918.01375 9.757274 
z
" style="fill: #ffffff"/>
   </g>
   <g id="patch_189">
    <path d="M 924.559205 171.757274 
L 928.618401 171.757274 
L 928.618401 171.484339 
L 924.559205 171.484339 
z
" clip-path="url(#p4431bc108e)" style="fill: #ff0000; opacity: 0.7"/>
   </g>
   <g id="patch_190">
    <path d="M 929.6332 171.757274 
L 933.692397 171.757274 
L 933.692397 170.764748 
L 929.6332 170.764748 
z
" clip-path="url(#p4431bc108e)" style="fill: #ff0000; opacity: 0.7"/>
   </g>
   <g id="patch_191">
    <path d="M 934.707196 171.757274 
L 938.766393 171.757274 
L 938.766393 169.056329 
L 934.707196 169.056329 
z
" clip-path="url(#p4431bc108e)" style="fill: #ff0000; opacity: 0.7"/>
   </g>
   <g id="patch_192">
    <path d="M 939.781192 171.757274 
L 943.840388 171.757274 
L 943.840388 166.290245 
L 939.781192 166.290245 
z
" clip-path="url(#p4431bc108e)" style="fill: #ff0000; opacity: 0.7"/>
   </g>
   <g id="patch_193">
    <path d="M 944.855188 171.757274 
L 948.914384 171.757274 
L 948.914384 161.92102 
L 944.855188 161.92102 
z
" clip-path="url(#p4431bc108e)" style="fill: #ff0000; opacity: 0.7"/>
   </g>
   <g id="patch_194">
    <path d="M 949.929183 171.757274 
L 953.98838 171.757274 
L 953.98838 156.316091 
L 949.929183 156.316091 
z
" clip-path="url(#p4431bc108e)" style="fill: #ff0000; opacity: 0.7"/>
   </g>
   <g id="patch_195">
    <path d="M 955.003179 171.757274 
L 959.062376 171.757274 
L 959.062376 147.979236 
L 955.003179 147.979236 
z
" clip-path="url(#p4431bc108e)" style="fill: #ff0000; opacity: 0.7"/>
   </g>
   <g id="patch_196">
    <path d="M 960.077175 171.757274 
L 964.136372 171.757274 
L 964.136372 137.642414 
L 960.077175 137.642414 
z
" clip-path="url(#p4431bc108e)" style="fill: #ff0000; opacity: 0.7"/>
   </g>
   <g id="patch_197">
    <path d="M 965.151171 171.757274 
L 969.210367 171.757274 
L 969.210367 125.666129 
L 965.151171 125.666129 
z
" clip-path="url(#p4431bc108e)" style="fill: #ff0000; opacity: 0.7"/>
   </g>
   <g id="patch_198">
    <path d="M 970.225166 171.757274 
L 974.284363 171.757274 
L 974.284363 111.583913 
L 970.225166 111.583913 
z
" clip-path="url(#p4431bc108e)" style="fill: #ff0000; opacity: 0.7"/>
   </g>
   <g id="patch_199">
    <path d="M 975.299162 171.757274 
L 979.358359 171.757274 
L 979.358359 96.494741 
L 975.299162 96.494741 
z
" clip-path="url(#p4431bc108e)" style="fill: #ff0000; opacity: 0.7"/>
   </g>
   <g id="patch_200">
    <path d="M 980.373158 171.757274 
L 984.432355 171.757274 
L 984.432355 81.14077 
L 980.373158 81.14077 
z
" clip-path="url(#p4431bc108e)" style="fill: #ff0000; opacity: 0.7"/>
   </g>
   <g id="patch_201">
    <path d="M 985.447154 171.757274 
L 989.50635 171.757274 
L 989.50635 67.979899 
L 985.447154 67.979899 
z
" clip-path="url(#p4431bc108e)" style="fill: #ff0000; opacity: 0.7"/>
   </g>
   <g id="patch_202">
    <path d="M 990.52115 171.757274 
L 994.580346 171.757274 
L 994.580346 57.655085 
L 990.52115 57.655085 
z
" clip-path="url(#p4431bc108e)" style="fill: #ff0000; opacity: 0.7"/>
   </g>
   <g id="patch_203">
    <path d="M 995.595145 171.757274 
L 999.654342 171.757274 
L 999.654342 48.670659 
L 995.595145 48.670659 
z
" clip-path="url(#p4431bc108e)" style="fill: #ff0000; opacity: 0.7"/>
   </g>
   <g id="patch_204">
    <path d="M 1000.669141 171.757274 
L 1004.728338 171.757274 
L 1004.728338 41.773391 
L 1000.669141 41.773391 
z
" clip-path="url(#p4431bc108e)" style="fill: #ff0000; opacity: 0.7"/>
   </g>
   <g id="patch_205">
    <path d="M 1005.743137 171.757274 
L 1009.802334 171.757274 
L 1009.802334 34.453382 
L 1005.743137 34.453382 
z
" clip-path="url(#p4431bc108e)" style="fill: #ff0000; opacity: 0.7"/>
   </g>
   <g id="patch_206">
    <path d="M 1010.817133 171.757274 
L 1014.876329 171.757274 
L 1014.876329 28.973249 
L 1010.817133 28.973249 
z
" clip-path="url(#p4431bc108e)" style="fill: #ff0000; opacity: 0.7"/>
   </g>
   <g id="patch_207">
    <path d="M 1015.891128 171.757274 
L 1019.950325 171.757274 
L 1019.950325 24.156487 
L 1015.891128 24.156487 
z
" clip-path="url(#p4431bc108e)" style="fill: #ff0000; opacity: 0.7"/>
   </g>
   <g id="patch_208">
    <path d="M 1020.965124 171.757274 
L 1025.024321 171.757274 
L 1025.024321 20.425947 
L 1020.965124 20.425947 
z
" clip-path="url(#p4431bc108e)" style="fill: #ff0000; opacity: 0.7"/>
   </g>
   <g id="patch_209">
    <path d="M 1026.03912 171.757274 
L 1030.098317 171.757274 
L 1030.098317 18.346988 
L 1026.03912 18.346988 
z
" clip-path="url(#p4431bc108e)" style="fill: #ff0000; opacity: 0.7"/>
   </g>
   <g id="patch_210">
    <path d="M 1031.113116 171.757274 
L 1035.172312 171.757274 
L 1035.172312 17.47156 
L 1031.113116 17.47156 
z
" clip-path="url(#p4431bc108e)" style="fill: #ff0000; opacity: 0.7"/>
   </g>
   <g id="patch_211">
    <path d="M 1036.187112 171.757274 
L 1040.246308 171.757274 
L 1040.246308 17.719148 
L 1036.187112 17.719148 
z
" clip-path="url(#p4431bc108e)" style="fill: #ff0000; opacity: 0.7"/>
   </g>
   <g id="patch_212">
    <path d="M 1041.261107 171.757274 
L 1045.320304 171.757274 
L 1045.320304 19.075639 
L 1041.261107 19.075639 
z
" clip-path="url(#p4431bc108e)" style="fill: #ff0000; opacity: 0.7"/>
   </g>
   <g id="patch_213">
    <path d="M 1046.335103 171.757274 
L 1050.3943 171.757274 
L 1050.3943 25.598958 
L 1046.335103 25.598958 
z
" clip-path="url(#p4431bc108e)" style="fill: #ff0000; opacity: 0.7"/>
   </g>
   <g id="patch_214">
    <path d="M 1051.409099 171.757274 
L 1055.468295 171.757274 
L 1055.468295 32.930406 
L 1051.409099 32.930406 
z
" clip-path="url(#p4431bc108e)" style="fill: #ff0000; opacity: 0.7"/>
   </g>
   <g id="matplotlib.axis_13">
    <g id="xtick_19">
     <g id="line2d_23">
      <g>
       <use xlink:href="#m0ebd60b6f8" x="951.958782" y="171.757274" style="stroke: #000000; stroke-width: 0.8"/>
      </g>
     </g>
     <g id="text_24">
      <!-- 2030 -->
      <g transform="translate(934.143782 189.395086) scale(0.14 -0.14)">
       <use xlink:href="#DejaVuSans-32"/>
       <use xlink:href="#DejaVuSans-30" x="63.623047"/>
       <use xlink:href="#DejaVuSans-33" x="127.246094"/>
       <use xlink:href="#DejaVuSans-30" x="190.869141"/>
      </g>
     </g>
    </g>
    <g id="xtick_20">
     <g id="line2d_24">
      <g>
       <use xlink:href="#m0ebd60b6f8" x="1002.698739" y="171.757274" style="stroke: #000000; stroke-width: 0.8"/>
      </g>
     </g>
     <g id="text_25">
      <!-- 2040 -->
      <g transform="translate(984.883739 189.395086) scale(0.14 -0.14)">
       <use xlink:href="#DejaVuSans-32"/>
       <use xlink:href="#DejaVuSans-30" x="63.623047"/>
       <use xlink:href="#DejaVuSans-34" x="127.246094"/>
       <use xlink:href="#DejaVuSans-30" x="190.869141"/>
      </g>
     </g>
    </g>
    <g id="xtick_21">
     <g id="line2d_25">
      <g>
       <use xlink:href="#m0ebd60b6f8" x="1053.438697" y="171.757274" style="stroke: #000000; stroke-width: 0.8"/>
      </g>
     </g>
     <g id="text_26">
      <!-- 2050 -->
      <g transform="translate(1035.623697 189.395086) scale(0.14 -0.14)">
       <use xlink:href="#DejaVuSans-32"/>
       <use xlink:href="#DejaVuSans-30" x="63.623047"/>
       <use xlink:href="#DejaVuSans-35" x="127.246094"/>
       <use xlink:href="#DejaVuSans-30" x="190.869141"/>
      </g>
     </g>
    </g>
   </g>
   <g id="matplotlib.axis_14"/>
   <g id="patch_215">
    <path d="M 918.01375 171.757274 
L 918.01375 9.757274 
" style="fill: none; stroke: #000000; stroke-width: 0.8; stroke-linejoin: miter; stroke-linecap: square"/>
   </g>
   <g id="patch_216">
    <path d="M 1062.01375 171.757274 
L 1062.01375 9.757274 
" style="fill: none; stroke: #000000; stroke-width: 0.8; stroke-linejoin: miter; stroke-linecap: square"/>
   </g>
   <g id="patch_217">
    <path d="M 918.01375 171.757274 
L 1062.01375 171.757274 
" style="fill: none; stroke: #000000; stroke-width: 0.8; stroke-linejoin: miter; stroke-linecap: square"/>
   </g>
   <g id="patch_218">
    <path d="M 918.01375 9.757274 
L 1062.01375 9.757274 
" style="fill: none; stroke: #000000; stroke-width: 0.8; stroke-linejoin: miter; stroke-linecap: square"/>
   </g>
  </g>
  <g id="axes_8">
   <g id="patch_219">
    <path d="M 1062.01375 171.757274 
L 1206.01375 171.757274 
L 1206.01375 9.757274 
L 1062.01375 9.757274 
z
" style="fill: #ffffff"/>
   </g>
   <g id="patch_220">
    <path d="M 1068.559205 171.757274 
L 1072.618401 171.757274 
L 1072.618401 170.51646 
L 1068.559205 170.51646 
z
" clip-path="url(#p16ce7dc52c)" style="fill: #ff0000; opacity: 0.7"/>
   </g>
   <g id="patch_221">
    <path d="M 1073.6332 171.757274 
L 1077.692397 171.757274 
L 1077.692397 170.262546 
L 1073.6332 170.262546 
z
" clip-path="url(#p16ce7dc52c)" style="fill: #ff0000; opacity: 0.7"/>
   </g>
   <g id="patch_222">
    <path d="M 1078.707196 171.757274 
L 1082.766393 171.757274 
L 1082.766393 169.841156 
L 1078.707196 169.841156 
z
" clip-path="url(#p16ce7dc52c)" style="fill: #ff0000; opacity: 0.7"/>
   </g>
   <g id="patch_223">
    <path d="M 1083.781192 171.757274 
L 1087.840388 171.757274 
L 1087.840388 169.68563 
L 1083.781192 169.68563 
z
" clip-path="url(#p16ce7dc52c)" style="fill: #ff0000; opacity: 0.7"/>
   </g>
   <g id="patch_224">
    <path d="M 1088.855188 171.757274 
L 1092.914384 171.757274 
L 1092.914384 169.407151 
L 1088.855188 169.407151 
z
" clip-path="url(#p16ce7dc52c)" style="fill: #ff0000; opacity: 0.7"/>
   </g>
   <g id="patch_225">
    <path d="M 1093.929183 171.757274 
L 1097.98838 171.757274 
L 1097.98838 169.042597 
L 1093.929183 169.042597 
z
" clip-path="url(#p16ce7dc52c)" style="fill: #ff0000; opacity: 0.7"/>
   </g>
   <g id="patch_226">
    <path d="M 1099.003179 171.757274 
L 1103.062376 171.757274 
L 1103.062376 168.791389 
L 1099.003179 168.791389 
z
" clip-path="url(#p16ce7dc52c)" style="fill: #ff0000; opacity: 0.7"/>
   </g>
   <g id="patch_227">
    <path d="M 1104.077175 171.757274 
L 1108.136372 171.757274 
L 1108.136372 168.73067 
L 1104.077175 168.73067 
z
" clip-path="url(#p16ce7dc52c)" style="fill: #ff0000; opacity: 0.7"/>
   </g>
   <g id="patch_228">
    <path d="M 1109.151171 171.757274 
L 1113.210367 171.757274 
L 1113.210367 168.38042 
L 1109.151171 168.38042 
z
" clip-path="url(#p16ce7dc52c)" style="fill: #ff0000; opacity: 0.7"/>
   </g>
   <g id="patch_229">
    <path d="M 1114.225166 171.757274 
L 1118.284363 171.757274 
L 1118.284363 168.00652 
L 1114.225166 168.00652 
z
" clip-path="url(#p16ce7dc52c)" style="fill: #ff0000; opacity: 0.7"/>
   </g>
   <g id="patch_230">
    <path d="M 1119.299162 171.757274 
L 1123.358359 171.757274 
L 1123.358359 167.830015 
L 1119.299162 167.830015 
z
" clip-path="url(#p16ce7dc52c)" style="fill: #ff0000; opacity: 0.7"/>
   </g>
   <g id="patch_231">
    <path d="M 1124.373158 171.757274 
L 1128.432355 171.757274 
L 1128.432355 167.544052 
L 1124.373158 167.544052 
z
" clip-path="url(#p16ce7dc52c)" style="fill: #ff0000; opacity: 0.7"/>
   </g>
   <g id="patch_232">
    <path d="M 1129.447154 171.757274 
L 1133.50635 171.757274 
L 1133.50635 166.869783 
L 1129.447154 166.869783 
z
" clip-path="url(#p16ce7dc52c)" style="fill: #ff0000; opacity: 0.7"/>
   </g>
   <g id="patch_233">
    <path d="M 1134.52115 171.757274 
L 1138.580346 171.757274 
L 1138.580346 166.242071 
L 1134.52115 166.242071 
z
" clip-path="url(#p16ce7dc52c)" style="fill: #ff0000; opacity: 0.7"/>
   </g>
   <g id="patch_234">
    <path d="M 1139.595145 171.757274 
L 1143.654342 171.757274 
L 1143.654342 165.413804 
L 1139.595145 165.413804 
z
" clip-path="url(#p16ce7dc52c)" style="fill: #ff0000; opacity: 0.7"/>
   </g>
   <g id="patch_235">
    <path d="M 1144.669141 171.757274 
L 1148.728338 171.757274 
L 1148.728338 163.358249 
L 1144.669141 163.358249 
z
" clip-path="url(#p16ce7dc52c)" style="fill: #ff0000; opacity: 0.7"/>
   </g>
   <g id="patch_236">
    <path d="M 1149.743137 171.757274 
L 1153.802334 171.757274 
L 1153.802334 161.927083 
L 1149.743137 161.927083 
z
" clip-path="url(#p16ce7dc52c)" style="fill: #ff0000; opacity: 0.7"/>
   </g>
   <g id="patch_237">
    <path d="M 1154.817133 171.757274 
L 1158.876329 171.757274 
L 1158.876329 159.100586 
L 1154.817133 159.100586 
z
" clip-path="url(#p16ce7dc52c)" style="fill: #ff0000; opacity: 0.7"/>
   </g>
   <g id="patch_238">
    <path d="M 1159.891128 171.757274 
L 1163.950325 171.757274 
L 1163.950325 155.219536 
L 1159.891128 155.219536 
z
" clip-path="url(#p16ce7dc52c)" style="fill: #ff0000; opacity: 0.7"/>
   </g>
   <g id="patch_239">
    <path d="M 1164.965124 171.757274 
L 1169.024321 171.757274 
L 1169.024321 148.906982 
L 1164.965124 148.906982 
z
" clip-path="url(#p16ce7dc52c)" style="fill: #ff0000; opacity: 0.7"/>
   </g>
   <g id="patch_240">
    <path d="M 1170.03912 171.757274 
L 1174.098317 171.757274 
L 1174.098317 141.903697 
L 1170.03912 141.903697 
z
" clip-path="url(#p16ce7dc52c)" style="fill: #ff0000; opacity: 0.7"/>
   </g>
   <g id="patch_241">
    <path d="M 1175.113116 171.757274 
L 1179.172312 171.757274 
L 1179.172312 129.749683 
L 1175.113116 129.749683 
z
" clip-path="url(#p16ce7dc52c)" style="fill: #ff0000; opacity: 0.7"/>
   </g>
   <g id="patch_242">
    <path d="M 1180.187112 171.757274 
L 1184.246308 171.757274 
L 1184.246308 113.942925 
L 1180.187112 113.942925 
z
" clip-path="url(#p16ce7dc52c)" style="fill: #ff0000; opacity: 0.7"/>
   </g>
   <g id="patch_243">
    <path d="M 1185.261107 171.757274 
L 1189.320304 171.757274 
L 1189.320304 88.858744 
L 1185.261107 88.858744 
z
" clip-path="url(#p16ce7dc52c)" style="fill: #ff0000; opacity: 0.7"/>
   </g>
   <g id="patch_244">
    <path d="M 1190.335103 171.757274 
L 1194.3943 171.757274 
L 1194.3943 60.307471 
L 1190.335103 60.307471 
z
" clip-path="url(#p16ce7dc52c)" style="fill: #ff0000; opacity: 0.7"/>
   </g>
   <g id="patch_245">
    <path d="M 1195.409099 171.757274 
L 1199.468295 171.757274 
L 1199.468295 17.47156 
L 1195.409099 17.47156 
z
" clip-path="url(#p16ce7dc52c)" style="fill: #ff0000; opacity: 0.7"/>
   </g>
   <g id="matplotlib.axis_15">
    <g id="xtick_22">
     <g id="line2d_26">
      <g>
       <use xlink:href="#m0ebd60b6f8" x="1095.958782" y="171.757274" style="stroke: #000000; stroke-width: 0.8"/>
      </g>
     </g>
     <g id="text_27">
      <!-- 2030 -->
      <g transform="translate(1078.143782 189.395086) scale(0.14 -0.14)">
       <use xlink:href="#DejaVuSans-32"/>
       <use xlink:href="#DejaVuSans-30" x="63.623047"/>
       <use xlink:href="#DejaVuSans-33" x="127.246094"/>
       <use xlink:href="#DejaVuSans-30" x="190.869141"/>
      </g>
     </g>
    </g>
    <g id="xtick_23">
     <g id="line2d_27">
      <g>
       <use xlink:href="#m0ebd60b6f8" x="1146.698739" y="171.757274" style="stroke: #000000; stroke-width: 0.8"/>
      </g>
     </g>
     <g id="text_28">
      <!-- 2040 -->
      <g transform="translate(1128.883739 189.395086) scale(0.14 -0.14)">
       <use xlink:href="#DejaVuSans-32"/>
       <use xlink:href="#DejaVuSans-30" x="63.623047"/>
       <use xlink:href="#DejaVuSans-34" x="127.246094"/>
       <use xlink:href="#DejaVuSans-30" x="190.869141"/>
      </g>
     </g>
    </g>
    <g id="xtick_24">
     <g id="line2d_28">
      <g>
       <use xlink:href="#m0ebd60b6f8" x="1197.438697" y="171.757274" style="stroke: #000000; stroke-width: 0.8"/>
      </g>
     </g>
     <g id="text_29">
      <!-- 2050 -->
      <g transform="translate(1179.623697 189.395086) scale(0.14 -0.14)">
       <use xlink:href="#DejaVuSans-32"/>
       <use xlink:href="#DejaVuSans-30" x="63.623047"/>
       <use xlink:href="#DejaVuSans-35" x="127.246094"/>
       <use xlink:href="#DejaVuSans-30" x="190.869141"/>
      </g>
     </g>
    </g>
   </g>
   <g id="matplotlib.axis_16"/>
   <g id="patch_246">
    <path d="M 1062.01375 171.757274 
L 1062.01375 9.757274 
" style="fill: none; stroke: #000000; stroke-width: 0.8; stroke-linejoin: miter; stroke-linecap: square"/>
   </g>
   <g id="patch_247">
    <path d="M 1206.01375 171.757274 
L 1206.01375 9.757274 
" style="fill: none; stroke: #000000; stroke-width: 0.8; stroke-linejoin: miter; stroke-linecap: square"/>
   </g>
   <g id="patch_248">
    <path d="M 1062.01375 171.757274 
L 1206.01375 171.757274 
" style="fill: none; stroke: #000000; stroke-width: 0.8; stroke-linejoin: miter; stroke-linecap: square"/>
   </g>
   <g id="patch_249">
    <path d="M 1062.01375 9.757274 
L 1206.01375 9.757274 
" style="fill: none; stroke: #000000; stroke-width: 0.8; stroke-linejoin: miter; stroke-linecap: square"/>
   </g>
  </g>
  <g id="legend_1">
   <g id="patch_250">
    <path d="M 1270.478125 103.064574 
L 1294.478125 103.064574 
L 1294.478125 94.664574 
L 1270.478125 94.664574 
z
" style="fill: #ff0000; opacity: 0.7"/>
   </g>
   <g id="text_30">
    <!-- Battery Discharge -->
    <g transform="translate(1304.078125 103.064574) scale(0.12 -0.12)">
     <defs>
      <path id="DejaVuSans-42" d="M 1259 2228 
L 1259 519 
L 2272 519 
Q 2781 519 3026 730 
Q 3272 941 3272 1375 
Q 3272 1813 3026 2020 
Q 2781 2228 2272 2228 
L 1259 2228 
z
M 1259 4147 
L 1259 2741 
L 2194 2741 
Q 2656 2741 2882 2914 
Q 3109 3088 3109 3444 
Q 3109 3797 2882 3972 
Q 2656 4147 2194 4147 
L 1259 4147 
z
M 628 4666 
L 2241 4666 
Q 2963 4666 3353 4366 
Q 3744 4066 3744 3513 
Q 3744 3084 3544 2831 
Q 3344 2578 2956 2516 
Q 3422 2416 3680 2098 
Q 3938 1781 3938 1306 
Q 3938 681 3513 340 
Q 3088 0 2303 0 
L 628 0 
L 628 4666 
z
" transform="scale(0.015625)"/>
      <path id="DejaVuSans-74" d="M 1172 4494 
L 1172 3500 
L 2356 3500 
L 2356 3053 
L 1172 3053 
L 1172 1153 
Q 1172 725 1289 603 
Q 1406 481 1766 481 
L 2356 481 
L 2356 0 
L 1766 0 
Q 1100 0 847 248 
Q 594 497 594 1153 
L 594 3053 
L 172 3053 
L 172 3500 
L 594 3500 
L 594 4494 
L 1172 4494 
z
" transform="scale(0.015625)"/>
      <path id="DejaVuSans-79" d="M 2059 -325 
Q 1816 -950 1584 -1140 
Q 1353 -1331 966 -1331 
L 506 -1331 
L 506 -850 
L 844 -850 
Q 1081 -850 1212 -737 
Q 1344 -625 1503 -206 
L 1606 56 
L 191 3500 
L 800 3500 
L 1894 763 
L 2988 3500 
L 3597 3500 
L 2059 -325 
z
" transform="scale(0.015625)"/>
     </defs>
     <use xlink:href="#DejaVuSans-42"/>
     <use xlink:href="#DejaVuSans-61" x="68.603516"/>
     <use xlink:href="#DejaVuSans-74" x="129.882812"/>
     <use xlink:href="#DejaVuSans-74" x="169.091797"/>
     <use xlink:href="#DejaVuSans-65" x="208.300781"/>
     <use xlink:href="#DejaVuSans-72" x="269.824219"/>
     <use xlink:href="#DejaVuSans-79" x="310.9375"/>
     <use xlink:href="#DejaVuSans-20" x="370.117188"/>
     <use xlink:href="#DejaVuSans-44" x="401.904297"/>
     <use xlink:href="#DejaVuSans-69" x="478.90625"/>
     <use xlink:href="#DejaVuSans-73" x="506.689453"/>
     <use xlink:href="#DejaVuSans-63" x="558.789062"/>
     <use xlink:href="#DejaVuSans-68" x="613.769531"/>
     <use xlink:href="#DejaVuSans-61" x="677.148438"/>
     <use xlink:href="#DejaVuSans-72" x="738.427734"/>
     <use xlink:href="#DejaVuSans-67" x="777.791016"/>
     <use xlink:href="#DejaVuSans-65" x="841.267578"/>
    </g>
   </g>
  </g>
 </g>
 <defs>
  <clipPath id="p890b3df217">
   <rect x="54.01375" y="9.757274" width="144" height="162"/>
  </clipPath>
  <clipPath id="p05d9ab2f8c">
   <rect x="198.01375" y="9.757274" width="144" height="162"/>
  </clipPath>
  <clipPath id="p7133b6481d">
   <rect x="342.01375" y="9.757274" width="144" height="162"/>
  </clipPath>
  <clipPath id="p0e14f84037">
   <rect x="486.01375" y="9.757274" width="144" height="162"/>
  </clipPath>
  <clipPath id="p5a94c721e7">
   <rect x="630.01375" y="9.757274" width="144" height="162"/>
  </clipPath>
  <clipPath id="p39d6575417">
   <rect x="774.01375" y="9.757274" width="144" height="162"/>
  </clipPath>
  <clipPath id="p4431bc108e">
   <rect x="918.01375" y="9.757274" width="144" height="162"/>
  </clipPath>
  <clipPath id="p16ce7dc52c">
   <rect x="1062.01375" y="9.757274" width="144" height="162"/>
  </clipPath>
 </defs>
</svg>
