<?xml version="1.0" encoding="utf-8" standalone="no"?>
<!DOCTYPE svg PUBLIC "-//W3C//DTD SVG 1.1//EN"
  "http://www.w3.org/Graphics/SVG/1.1/DTD/svg11.dtd">
<svg xmlns:xlink="http://www.w3.org/1999/xlink" width="1449.93625pt" height="198.693523pt" viewBox="0 0 1449.93625 198.693523" xmlns="http://www.w3.org/2000/svg" version="1.1">
 <metadata>
  <rdf:RDF xmlns:dc="http://purl.org/dc/elements/1.1/" xmlns:cc="http://creativecommons.org/ns#" xmlns:rdf="http://www.w3.org/1999/02/22-rdf-syntax-ns#">
   <cc:Work>
    <dc:type rdf:resource="http://purl.org/dc/dcmitype/StillImage"/>
    <dc:date>2025-05-18T20:02:46.713613</dc:date>
    <dc:format>image/svg+xml</dc:format>
    <dc:creator>
     <cc:Agent>
      <dc:title>Matplotlib v3.9.2, https://matplotlib.org/</dc:title>
     </cc:Agent>
    </dc:creator>
   </cc:Work>
  </rdf:RDF>
 </metadata>
 <defs>
  <style type="text/css">*{stroke-linejoin: round; stroke-linecap: butt}</style>
 </defs>
 <g id="figure_1">
  <g id="patch_1">
   <path d="M 0 198.693523 
L 1449.93625 198.693523 
L 1449.93625 0 
L 0 0 
z
" style="fill: #ffffff"/>
  </g>
  <g id="axes_1">
   <g id="patch_2">
    <path d="M 80.73625 170.944148 
L 224.73625 170.944148 
L 224.73625 8.944148 
L 80.73625 8.944148 
z
" style="fill: #ffffff"/>
   </g>
   <g id="patch_3">
    <path d="M 87.281705 170.944148 
L 91.340901 170.944148 
L 91.340901 16.658434 
L 87.281705 16.658434 
z
" clip-path="url(#p49dcc3b5e6)" style="fill: #ff0000; opacity: 0.7"/>
   </g>
   <g id="patch_4">
    <path d="M 92.3557 170.944148 
L 96.414897 170.944148 
L 96.414897 68.005999 
L 92.3557 68.005999 
z
" clip-path="url(#p49dcc3b5e6)" style="fill: #ff0000; opacity: 0.7"/>
   </g>
   <g id="patch_5">
    <path d="M 97.429696 170.944148 
L 101.488893 170.944148 
L 101.488893 114.158849 
L 97.429696 114.158849 
z
" clip-path="url(#p49dcc3b5e6)" style="fill: #ff0000; opacity: 0.7"/>
   </g>
   <g id="patch_6">
    <path d="M 102.503692 170.944148 
L 106.562888 170.944148 
L 106.562888 150.6267 
L 102.503692 150.6267 
z
" clip-path="url(#p49dcc3b5e6)" style="fill: #ff0000; opacity: 0.7"/>
   </g>
   <g id="patch_7">
    <path d="M 107.577688 170.944148 
L 111.636884 170.944148 
L 111.636884 166.784619 
L 107.577688 166.784619 
z
" clip-path="url(#p49dcc3b5e6)" style="fill: #ff0000; opacity: 0.7"/>
   </g>
   <g id="patch_8">
    <path d="M 112.651683 170.944148 
L 116.71088 170.944148 
L 116.71088 170.250896 
L 112.651683 170.250896 
z
" clip-path="url(#p49dcc3b5e6)" style="fill: #ff0000; opacity: 0.7"/>
   </g>
   <g id="patch_9">
    <path d="M 117.725679 170.944148 
L 121.784876 170.944148 
L 121.784876 170.740203 
L 117.725679 170.740203 
z
" clip-path="url(#p49dcc3b5e6)" style="fill: #ff0000; opacity: 0.7"/>
   </g>
   <g id="patch_10">
    <path d="M 122.799675 170.944148 
L 126.858872 170.944148 
L 126.858872 170.882447 
L 122.799675 170.882447 
z
" clip-path="url(#p49dcc3b5e6)" style="fill: #ff0000; opacity: 0.7"/>
   </g>
   <g id="patch_11">
    <path d="M 127.873671 170.944148 
L 131.932867 170.944148 
L 131.932867 170.944148 
L 127.873671 170.944148 
z
" clip-path="url(#p49dcc3b5e6)" style="fill: #ff0000; opacity: 0.7"/>
   </g>
   <g id="patch_12">
    <path d="M 132.947666 170.944148 
L 137.006863 170.944148 
L 137.006863 170.944148 
L 132.947666 170.944148 
z
" clip-path="url(#p49dcc3b5e6)" style="fill: #ff0000; opacity: 0.7"/>
   </g>
   <g id="patch_13">
    <path d="M 138.021662 170.944148 
L 142.080859 170.944148 
L 142.080859 170.944148 
L 138.021662 170.944148 
z
" clip-path="url(#p49dcc3b5e6)" style="fill: #ff0000; opacity: 0.7"/>
   </g>
   <g id="patch_14">
    <path d="M 143.095658 170.944148 
L 147.154855 170.944148 
L 147.154855 170.944148 
L 143.095658 170.944148 
z
" clip-path="url(#p49dcc3b5e6)" style="fill: #ff0000; opacity: 0.7"/>
   </g>
   <g id="patch_15">
    <path d="M 148.169654 170.944148 
L 152.22885 170.944148 
L 152.22885 170.944148 
L 148.169654 170.944148 
z
" clip-path="url(#p49dcc3b5e6)" style="fill: #ff0000; opacity: 0.7"/>
   </g>
   <g id="patch_16">
    <path d="M 153.24365 170.944148 
L 157.302846 170.944148 
L 157.302846 170.944148 
L 153.24365 170.944148 
z
" clip-path="url(#p49dcc3b5e6)" style="fill: #ff0000; opacity: 0.7"/>
   </g>
   <g id="patch_17">
    <path d="M 158.317645 170.944148 
L 162.376842 170.944148 
L 162.376842 170.944148 
L 158.317645 170.944148 
z
" clip-path="url(#p49dcc3b5e6)" style="fill: #ff0000; opacity: 0.7"/>
   </g>
   <g id="patch_18">
    <path d="M 163.391641 170.944148 
L 167.450838 170.944148 
L 167.450838 170.944148 
L 163.391641 170.944148 
z
" clip-path="url(#p49dcc3b5e6)" style="fill: #ff0000; opacity: 0.7"/>
   </g>
   <g id="patch_19">
    <path d="M 168.465637 170.944148 
L 172.524834 170.944148 
L 172.524834 170.944148 
L 168.465637 170.944148 
z
" clip-path="url(#p49dcc3b5e6)" style="fill: #ff0000; opacity: 0.7"/>
   </g>
   <g id="patch_20">
    <path d="M 173.539633 170.944148 
L 177.598829 170.944148 
L 177.598829 170.944148 
L 173.539633 170.944148 
z
" clip-path="url(#p49dcc3b5e6)" style="fill: #ff0000; opacity: 0.7"/>
   </g>
   <g id="patch_21">
    <path d="M 178.613628 170.944148 
L 182.672825 170.944148 
L 182.672825 170.944148 
L 178.613628 170.944148 
z
" clip-path="url(#p49dcc3b5e6)" style="fill: #ff0000; opacity: 0.7"/>
   </g>
   <g id="patch_22">
    <path d="M 183.687624 170.944148 
L 187.746821 170.944148 
L 187.746821 170.944148 
L 183.687624 170.944148 
z
" clip-path="url(#p49dcc3b5e6)" style="fill: #ff0000; opacity: 0.7"/>
   </g>
   <g id="patch_23">
    <path d="M 188.76162 170.944148 
L 192.820817 170.944148 
L 192.820817 170.944148 
L 188.76162 170.944148 
z
" clip-path="url(#p49dcc3b5e6)" style="fill: #ff0000; opacity: 0.7"/>
   </g>
   <g id="patch_24">
    <path d="M 193.835616 170.944148 
L 197.894812 170.944148 
L 197.894812 170.944148 
L 193.835616 170.944148 
z
" clip-path="url(#p49dcc3b5e6)" style="fill: #ff0000; opacity: 0.7"/>
   </g>
   <g id="patch_25">
    <path d="M 198.909612 170.944148 
L 202.968808 170.944148 
L 202.968808 170.944148 
L 198.909612 170.944148 
z
" clip-path="url(#p49dcc3b5e6)" style="fill: #ff0000; opacity: 0.7"/>
   </g>
   <g id="patch_26">
    <path d="M 203.983607 170.944148 
L 208.042804 170.944148 
L 208.042804 170.944148 
L 203.983607 170.944148 
z
" clip-path="url(#p49dcc3b5e6)" style="fill: #ff0000; opacity: 0.7"/>
   </g>
   <g id="patch_27">
    <path d="M 209.057603 170.944148 
L 213.1168 170.944148 
L 213.1168 170.944148 
L 209.057603 170.944148 
z
" clip-path="url(#p49dcc3b5e6)" style="fill: #ff0000; opacity: 0.7"/>
   </g>
   <g id="patch_28">
    <path d="M 214.131599 170.944148 
L 218.190795 170.944148 
L 218.190795 170.944148 
L 214.131599 170.944148 
z
" clip-path="url(#p49dcc3b5e6)" style="fill: #ff0000; opacity: 0.7"/>
   </g>
   <g id="matplotlib.axis_1">
    <g id="xtick_1">
     <g id="line2d_1">
      <defs>
       <path id="m27d830a0cc" d="M 0 0 
L 0 3.5 
" style="stroke: #000000; stroke-width: 0.8"/>
      </defs>
      <g>
       <use xlink:href="#m27d830a0cc" x="114.681282" y="170.944148" style="stroke: #000000; stroke-width: 0.8"/>
      </g>
     </g>
     <g id="text_1">
      <!-- 2030 -->
      <g transform="translate(96.866282 188.58196) scale(0.14 -0.14)">
       <defs>
        <path id="DejaVuSans-32" d="M 1228 531 
L 3431 531 
L 3431 0 
L 469 0 
L 469 531 
Q 828 903 1448 1529 
Q 2069 2156 2228 2338 
Q 2531 2678 2651 2914 
Q 2772 3150 2772 3378 
Q 2772 3750 2511 3984 
Q 2250 4219 1831 4219 
Q 1534 4219 1204 4116 
Q 875 4013 500 3803 
L 500 4441 
Q 881 4594 1212 4672 
Q 1544 4750 1819 4750 
Q 2544 4750 2975 4387 
Q 3406 4025 3406 3419 
Q 3406 3131 3298 2873 
Q 3191 2616 2906 2266 
Q 2828 2175 2409 1742 
Q 1991 1309 1228 531 
z
" transform="scale(0.015625)"/>
        <path id="DejaVuSans-30" d="M 2034 4250 
Q 1547 4250 1301 3770 
Q 1056 3291 1056 2328 
Q 1056 1369 1301 889 
Q 1547 409 2034 409 
Q 2525 409 2770 889 
Q 3016 1369 3016 2328 
Q 3016 3291 2770 3770 
Q 2525 4250 2034 4250 
z
M 2034 4750 
Q 2819 4750 3233 4129 
Q 3647 3509 3647 2328 
Q 3647 1150 3233 529 
Q 2819 -91 2034 -91 
Q 1250 -91 836 529 
Q 422 1150 422 2328 
Q 422 3509 836 4129 
Q 1250 4750 2034 4750 
z
" transform="scale(0.015625)"/>
        <path id="DejaVuSans-33" d="M 2597 2516 
Q 3050 2419 3304 2112 
Q 3559 1806 3559 1356 
Q 3559 666 3084 287 
Q 2609 -91 1734 -91 
Q 1441 -91 1130 -33 
Q 819 25 488 141 
L 488 750 
Q 750 597 1062 519 
Q 1375 441 1716 441 
Q 2309 441 2620 675 
Q 2931 909 2931 1356 
Q 2931 1769 2642 2001 
Q 2353 2234 1838 2234 
L 1294 2234 
L 1294 2753 
L 1863 2753 
Q 2328 2753 2575 2939 
Q 2822 3125 2822 3475 
Q 2822 3834 2567 4026 
Q 2313 4219 1838 4219 
Q 1578 4219 1281 4162 
Q 984 4106 628 3988 
L 628 4550 
Q 988 4650 1302 4700 
Q 1616 4750 1894 4750 
Q 2613 4750 3031 4423 
Q 3450 4097 3450 3541 
Q 3450 3153 3228 2886 
Q 3006 2619 2597 2516 
z
" transform="scale(0.015625)"/>
       </defs>
       <use xlink:href="#DejaVuSans-32"/>
       <use xlink:href="#DejaVuSans-30" x="63.623047"/>
       <use xlink:href="#DejaVuSans-33" x="127.246094"/>
       <use xlink:href="#DejaVuSans-30" x="190.869141"/>
      </g>
     </g>
    </g>
    <g id="xtick_2">
     <g id="line2d_2">
      <g>
       <use xlink:href="#m27d830a0cc" x="165.421239" y="170.944148" style="stroke: #000000; stroke-width: 0.8"/>
      </g>
     </g>
     <g id="text_2">
      <!-- 2040 -->
      <g transform="translate(147.606239 188.58196) scale(0.14 -0.14)">
       <defs>
        <path id="DejaVuSans-34" d="M 2419 4116 
L 825 1625 
L 2419 1625 
L 2419 4116 
z
M 2253 4666 
L 3047 4666 
L 3047 1625 
L 3713 1625 
L 3713 1100 
L 3047 1100 
L 3047 0 
L 2419 0 
L 2419 1100 
L 313 1100 
L 313 1709 
L 2253 4666 
z
" transform="scale(0.015625)"/>
       </defs>
       <use xlink:href="#DejaVuSans-32"/>
       <use xlink:href="#DejaVuSans-30" x="63.623047"/>
       <use xlink:href="#DejaVuSans-34" x="127.246094"/>
       <use xlink:href="#DejaVuSans-30" x="190.869141"/>
      </g>
     </g>
    </g>
    <g id="xtick_3">
     <g id="line2d_3">
      <g>
       <use xlink:href="#m27d830a0cc" x="216.161197" y="170.944148" style="stroke: #000000; stroke-width: 0.8"/>
      </g>
     </g>
     <g id="text_3">
      <!-- 2050 -->
      <g transform="translate(198.346197 188.58196) scale(0.14 -0.14)">
       <defs>
        <path id="DejaVuSans-35" d="M 691 4666 
L 3169 4666 
L 3169 4134 
L 1269 4134 
L 1269 2991 
Q 1406 3038 1543 3061 
Q 1681 3084 1819 3084 
Q 2600 3084 3056 2656 
Q 3513 2228 3513 1497 
Q 3513 744 3044 326 
Q 2575 -91 1722 -91 
Q 1428 -91 1123 -41 
Q 819 9 494 109 
L 494 744 
Q 775 591 1075 516 
Q 1375 441 1709 441 
Q 2250 441 2565 725 
Q 2881 1009 2881 1497 
Q 2881 1984 2565 2268 
Q 2250 2553 1709 2553 
Q 1456 2553 1204 2497 
Q 953 2441 691 2322 
L 691 4666 
z
" transform="scale(0.015625)"/>
       </defs>
       <use xlink:href="#DejaVuSans-32"/>
       <use xlink:href="#DejaVuSans-30" x="63.623047"/>
       <use xlink:href="#DejaVuSans-35" x="127.246094"/>
       <use xlink:href="#DejaVuSans-30" x="190.869141"/>
      </g>
     </g>
    </g>
   </g>
   <g id="matplotlib.axis_2">
    <g id="ytick_1">
     <g id="line2d_4">
      <defs>
       <path id="mc9cabb7d7a" d="M 0 0 
L -3.5 0 
" style="stroke: #000000; stroke-width: 0.8"/>
      </defs>
      <g>
       <use xlink:href="#mc9cabb7d7a" x="80.73625" y="170.944148" style="stroke: #000000; stroke-width: 0.8"/>
      </g>
     </g>
     <g id="text_4">
      <!-- 0.0000 -->
      <g transform="translate(24.749375 176.263054) scale(0.14 -0.14)">
       <defs>
        <path id="DejaVuSans-2e" d="M 684 794 
L 1344 794 
L 1344 0 
L 684 0 
L 684 794 
z
" transform="scale(0.015625)"/>
       </defs>
       <use xlink:href="#DejaVuSans-30"/>
       <use xlink:href="#DejaVuSans-2e" x="63.623047"/>
       <use xlink:href="#DejaVuSans-30" x="95.410156"/>
       <use xlink:href="#DejaVuSans-30" x="159.033203"/>
       <use xlink:href="#DejaVuSans-30" x="222.65625"/>
       <use xlink:href="#DejaVuSans-30" x="286.279297"/>
      </g>
     </g>
    </g>
    <g id="ytick_2">
     <g id="line2d_5">
      <g>
       <use xlink:href="#mc9cabb7d7a" x="80.73625" y="118.135734" style="stroke: #000000; stroke-width: 0.8"/>
      </g>
     </g>
     <g id="text_5">
      <!-- 0.0005 -->
      <g transform="translate(24.749375 123.45464) scale(0.14 -0.14)">
       <use xlink:href="#DejaVuSans-30"/>
       <use xlink:href="#DejaVuSans-2e" x="63.623047"/>
       <use xlink:href="#DejaVuSans-30" x="95.410156"/>
       <use xlink:href="#DejaVuSans-30" x="159.033203"/>
       <use xlink:href="#DejaVuSans-30" x="222.65625"/>
       <use xlink:href="#DejaVuSans-35" x="286.279297"/>
      </g>
     </g>
    </g>
    <g id="ytick_3">
     <g id="line2d_6">
      <g>
       <use xlink:href="#mc9cabb7d7a" x="80.73625" y="65.32732" style="stroke: #000000; stroke-width: 0.8"/>
      </g>
     </g>
     <g id="text_6">
      <!-- 0.0010 -->
      <g transform="translate(24.749375 70.646226) scale(0.14 -0.14)">
       <defs>
        <path id="DejaVuSans-31" d="M 794 531 
L 1825 531 
L 1825 4091 
L 703 3866 
L 703 4441 
L 1819 4666 
L 2450 4666 
L 2450 531 
L 3481 531 
L 3481 0 
L 794 0 
L 794 531 
z
" transform="scale(0.015625)"/>
       </defs>
       <use xlink:href="#DejaVuSans-30"/>
       <use xlink:href="#DejaVuSans-2e" x="63.623047"/>
       <use xlink:href="#DejaVuSans-30" x="95.410156"/>
       <use xlink:href="#DejaVuSans-30" x="159.033203"/>
       <use xlink:href="#DejaVuSans-31" x="222.65625"/>
       <use xlink:href="#DejaVuSans-30" x="286.279297"/>
      </g>
     </g>
    </g>
    <g id="ytick_4">
     <g id="line2d_7">
      <g>
       <use xlink:href="#mc9cabb7d7a" x="80.73625" y="12.518906" style="stroke: #000000; stroke-width: 0.8"/>
      </g>
     </g>
     <g id="text_7">
      <!-- 0.0015 -->
      <g transform="translate(24.749375 17.837813) scale(0.14 -0.14)">
       <use xlink:href="#DejaVuSans-30"/>
       <use xlink:href="#DejaVuSans-2e" x="63.623047"/>
       <use xlink:href="#DejaVuSans-30" x="95.410156"/>
       <use xlink:href="#DejaVuSans-30" x="159.033203"/>
       <use xlink:href="#DejaVuSans-31" x="222.65625"/>
       <use xlink:href="#DejaVuSans-35" x="286.279297"/>
      </g>
     </g>
    </g>
    <g id="text_8">
     <!-- Discharge (TWh) -->
     <g transform="translate(17.837813 148.326335) rotate(-90) scale(0.14 -0.14)">
      <defs>
       <path id="DejaVuSans-44" d="M 1259 4147 
L 1259 519 
L 2022 519 
Q 2988 519 3436 956 
Q 3884 1394 3884 2338 
Q 3884 3275 3436 3711 
Q 2988 4147 2022 4147 
L 1259 4147 
z
M 628 4666 
L 1925 4666 
Q 3281 4666 3915 4102 
Q 4550 3538 4550 2338 
Q 4550 1131 3912 565 
Q 3275 0 1925 0 
L 628 0 
L 628 4666 
z
" transform="scale(0.015625)"/>
       <path id="DejaVuSans-69" d="M 603 3500 
L 1178 3500 
L 1178 0 
L 603 0 
L 603 3500 
z
M 603 4863 
L 1178 4863 
L 1178 4134 
L 603 4134 
L 603 4863 
z
" transform="scale(0.015625)"/>
       <path id="DejaVuSans-73" d="M 2834 3397 
L 2834 2853 
Q 2591 2978 2328 3040 
Q 2066 3103 1784 3103 
Q 1356 3103 1142 2972 
Q 928 2841 928 2578 
Q 928 2378 1081 2264 
Q 1234 2150 1697 2047 
L 1894 2003 
Q 2506 1872 2764 1633 
Q 3022 1394 3022 966 
Q 3022 478 2636 193 
Q 2250 -91 1575 -91 
Q 1294 -91 989 -36 
Q 684 19 347 128 
L 347 722 
Q 666 556 975 473 
Q 1284 391 1588 391 
Q 1994 391 2212 530 
Q 2431 669 2431 922 
Q 2431 1156 2273 1281 
Q 2116 1406 1581 1522 
L 1381 1569 
Q 847 1681 609 1914 
Q 372 2147 372 2553 
Q 372 3047 722 3315 
Q 1072 3584 1716 3584 
Q 2034 3584 2315 3537 
Q 2597 3491 2834 3397 
z
" transform="scale(0.015625)"/>
       <path id="DejaVuSans-63" d="M 3122 3366 
L 3122 2828 
Q 2878 2963 2633 3030 
Q 2388 3097 2138 3097 
Q 1578 3097 1268 2742 
Q 959 2388 959 1747 
Q 959 1106 1268 751 
Q 1578 397 2138 397 
Q 2388 397 2633 464 
Q 2878 531 3122 666 
L 3122 134 
Q 2881 22 2623 -34 
Q 2366 -91 2075 -91 
Q 1284 -91 818 406 
Q 353 903 353 1747 
Q 353 2603 823 3093 
Q 1294 3584 2113 3584 
Q 2378 3584 2631 3529 
Q 2884 3475 3122 3366 
z
" transform="scale(0.015625)"/>
       <path id="DejaVuSans-68" d="M 3513 2113 
L 3513 0 
L 2938 0 
L 2938 2094 
Q 2938 2591 2744 2837 
Q 2550 3084 2163 3084 
Q 1697 3084 1428 2787 
Q 1159 2491 1159 1978 
L 1159 0 
L 581 0 
L 581 4863 
L 1159 4863 
L 1159 2956 
Q 1366 3272 1645 3428 
Q 1925 3584 2291 3584 
Q 2894 3584 3203 3211 
Q 3513 2838 3513 2113 
z
" transform="scale(0.015625)"/>
       <path id="DejaVuSans-61" d="M 2194 1759 
Q 1497 1759 1228 1600 
Q 959 1441 959 1056 
Q 959 750 1161 570 
Q 1363 391 1709 391 
Q 2188 391 2477 730 
Q 2766 1069 2766 1631 
L 2766 1759 
L 2194 1759 
z
M 3341 1997 
L 3341 0 
L 2766 0 
L 2766 531 
Q 2569 213 2275 61 
Q 1981 -91 1556 -91 
Q 1019 -91 701 211 
Q 384 513 384 1019 
Q 384 1609 779 1909 
Q 1175 2209 1959 2209 
L 2766 2209 
L 2766 2266 
Q 2766 2663 2505 2880 
Q 2244 3097 1772 3097 
Q 1472 3097 1187 3025 
Q 903 2953 641 2809 
L 641 3341 
Q 956 3463 1253 3523 
Q 1550 3584 1831 3584 
Q 2591 3584 2966 3190 
Q 3341 2797 3341 1997 
z
" transform="scale(0.015625)"/>
       <path id="DejaVuSans-72" d="M 2631 2963 
Q 2534 3019 2420 3045 
Q 2306 3072 2169 3072 
Q 1681 3072 1420 2755 
Q 1159 2438 1159 1844 
L 1159 0 
L 581 0 
L 581 3500 
L 1159 3500 
L 1159 2956 
Q 1341 3275 1631 3429 
Q 1922 3584 2338 3584 
Q 2397 3584 2469 3576 
Q 2541 3569 2628 3553 
L 2631 2963 
z
" transform="scale(0.015625)"/>
       <path id="DejaVuSans-67" d="M 2906 1791 
Q 2906 2416 2648 2759 
Q 2391 3103 1925 3103 
Q 1463 3103 1205 2759 
Q 947 2416 947 1791 
Q 947 1169 1205 825 
Q 1463 481 1925 481 
Q 2391 481 2648 825 
Q 2906 1169 2906 1791 
z
M 3481 434 
Q 3481 -459 3084 -895 
Q 2688 -1331 1869 -1331 
Q 1566 -1331 1297 -1286 
Q 1028 -1241 775 -1147 
L 775 -588 
Q 1028 -725 1275 -790 
Q 1522 -856 1778 -856 
Q 2344 -856 2625 -561 
Q 2906 -266 2906 331 
L 2906 616 
Q 2728 306 2450 153 
Q 2172 0 1784 0 
Q 1141 0 747 490 
Q 353 981 353 1791 
Q 353 2603 747 3093 
Q 1141 3584 1784 3584 
Q 2172 3584 2450 3431 
Q 2728 3278 2906 2969 
L 2906 3500 
L 3481 3500 
L 3481 434 
z
" transform="scale(0.015625)"/>
       <path id="DejaVuSans-65" d="M 3597 1894 
L 3597 1613 
L 953 1613 
Q 991 1019 1311 708 
Q 1631 397 2203 397 
Q 2534 397 2845 478 
Q 3156 559 3463 722 
L 3463 178 
Q 3153 47 2828 -22 
Q 2503 -91 2169 -91 
Q 1331 -91 842 396 
Q 353 884 353 1716 
Q 353 2575 817 3079 
Q 1281 3584 2069 3584 
Q 2775 3584 3186 3129 
Q 3597 2675 3597 1894 
z
M 3022 2063 
Q 3016 2534 2758 2815 
Q 2500 3097 2075 3097 
Q 1594 3097 1305 2825 
Q 1016 2553 972 2059 
L 3022 2063 
z
" transform="scale(0.015625)"/>
       <path id="DejaVuSans-20" transform="scale(0.015625)"/>
       <path id="DejaVuSans-28" d="M 1984 4856 
Q 1566 4138 1362 3434 
Q 1159 2731 1159 2009 
Q 1159 1288 1364 580 
Q 1569 -128 1984 -844 
L 1484 -844 
Q 1016 -109 783 600 
Q 550 1309 550 2009 
Q 550 2706 781 3412 
Q 1013 4119 1484 4856 
L 1984 4856 
z
" transform="scale(0.015625)"/>
       <path id="DejaVuSans-54" d="M -19 4666 
L 3928 4666 
L 3928 4134 
L 2272 4134 
L 2272 0 
L 1638 0 
L 1638 4134 
L -19 4134 
L -19 4666 
z
" transform="scale(0.015625)"/>
       <path id="DejaVuSans-57" d="M 213 4666 
L 850 4666 
L 1831 722 
L 2809 4666 
L 3519 4666 
L 4500 722 
L 5478 4666 
L 6119 4666 
L 4947 0 
L 4153 0 
L 3169 4050 
L 2175 0 
L 1381 0 
L 213 4666 
z
" transform="scale(0.015625)"/>
       <path id="DejaVuSans-29" d="M 513 4856 
L 1013 4856 
Q 1481 4119 1714 3412 
Q 1947 2706 1947 2009 
Q 1947 1309 1714 600 
Q 1481 -109 1013 -844 
L 513 -844 
Q 928 -128 1133 580 
Q 1338 1288 1338 2009 
Q 1338 2731 1133 3434 
Q 928 4138 513 4856 
z
" transform="scale(0.015625)"/>
      </defs>
      <use xlink:href="#DejaVuSans-44"/>
      <use xlink:href="#DejaVuSans-69" x="77.001953"/>
      <use xlink:href="#DejaVuSans-73" x="104.785156"/>
      <use xlink:href="#DejaVuSans-63" x="156.884766"/>
      <use xlink:href="#DejaVuSans-68" x="211.865234"/>
      <use xlink:href="#DejaVuSans-61" x="275.244141"/>
      <use xlink:href="#DejaVuSans-72" x="336.523438"/>
      <use xlink:href="#DejaVuSans-67" x="375.886719"/>
      <use xlink:href="#DejaVuSans-65" x="439.363281"/>
      <use xlink:href="#DejaVuSans-20" x="500.886719"/>
      <use xlink:href="#DejaVuSans-28" x="532.673828"/>
      <use xlink:href="#DejaVuSans-54" x="571.6875"/>
      <use xlink:href="#DejaVuSans-57" x="632.771484"/>
      <use xlink:href="#DejaVuSans-68" x="731.648438"/>
      <use xlink:href="#DejaVuSans-29" x="795.027344"/>
     </g>
    </g>
   </g>
   <g id="patch_29">
    <path d="M 80.73625 170.944148 
L 80.73625 8.944148 
" style="fill: none; stroke: #000000; stroke-width: 0.8; stroke-linejoin: miter; stroke-linecap: square"/>
   </g>
   <g id="patch_30">
    <path d="M 224.73625 170.944148 
L 224.73625 8.944148 
" style="fill: none; stroke: #000000; stroke-width: 0.8; stroke-linejoin: miter; stroke-linecap: square"/>
   </g>
   <g id="patch_31">
    <path d="M 80.73625 170.944148 
L 224.73625 170.944148 
" style="fill: none; stroke: #000000; stroke-width: 0.8; stroke-linejoin: miter; stroke-linecap: square"/>
   </g>
   <g id="patch_32">
    <path d="M 80.73625 8.944148 
L 224.73625 8.944148 
" style="fill: none; stroke: #000000; stroke-width: 0.8; stroke-linejoin: miter; stroke-linecap: square"/>
   </g>
  </g>
  <g id="axes_2">
   <g id="patch_33">
    <path d="M 224.73625 170.944148 
L 368.73625 170.944148 
L 368.73625 8.944148 
L 224.73625 8.944148 
z
" style="fill: #ffffff"/>
   </g>
   <g id="patch_34">
    <path d="M 231.281705 170.944148 
L 235.340901 170.944148 
L 235.340901 170.663675 
L 231.281705 170.663675 
z
" clip-path="url(#pe8fe971de4)" style="fill: #ff0000; opacity: 0.7"/>
   </g>
   <g id="patch_35">
    <path d="M 236.3557 170.944148 
L 240.414897 170.944148 
L 240.414897 169.88823 
L 236.3557 169.88823 
z
" clip-path="url(#pe8fe971de4)" style="fill: #ff0000; opacity: 0.7"/>
   </g>
   <g id="patch_36">
    <path d="M 241.429696 170.944148 
L 245.488893 170.944148 
L 245.488893 168.149027 
L 241.429696 168.149027 
z
" clip-path="url(#pe8fe971de4)" style="fill: #ff0000; opacity: 0.7"/>
   </g>
   <g id="patch_37">
    <path d="M 246.503692 170.944148 
L 250.562888 170.944148 
L 250.562888 165.305646 
L 246.503692 165.305646 
z
" clip-path="url(#pe8fe971de4)" style="fill: #ff0000; opacity: 0.7"/>
   </g>
   <g id="patch_38">
    <path d="M 251.577688 170.944148 
L 255.636884 170.944148 
L 255.636884 160.870392 
L 251.577688 160.870392 
z
" clip-path="url(#pe8fe971de4)" style="fill: #ff0000; opacity: 0.7"/>
   </g>
   <g id="patch_39">
    <path d="M 256.651683 170.944148 
L 260.71088 170.944148 
L 260.71088 155.122913 
L 256.651683 155.122913 
z
" clip-path="url(#pe8fe971de4)" style="fill: #ff0000; opacity: 0.7"/>
   </g>
   <g id="patch_40">
    <path d="M 261.725679 170.944148 
L 265.784876 170.944148 
L 265.784876 147.976411 
L 261.725679 147.976411 
z
" clip-path="url(#pe8fe971de4)" style="fill: #ff0000; opacity: 0.7"/>
   </g>
   <g id="patch_41">
    <path d="M 266.799675 170.944148 
L 270.858872 170.944148 
L 270.858872 139.195461 
L 266.799675 139.195461 
z
" clip-path="url(#pe8fe971de4)" style="fill: #ff0000; opacity: 0.7"/>
   </g>
   <g id="patch_42">
    <path d="M 271.873671 170.944148 
L 275.932867 170.944148 
L 275.932867 129.440053 
L 271.873671 129.440053 
z
" clip-path="url(#pe8fe971de4)" style="fill: #ff0000; opacity: 0.7"/>
   </g>
   <g id="patch_43">
    <path d="M 276.947666 170.944148 
L 281.006863 170.944148 
L 281.006863 118.063782 
L 276.947666 118.063782 
z
" clip-path="url(#pe8fe971de4)" style="fill: #ff0000; opacity: 0.7"/>
   </g>
   <g id="patch_44">
    <path d="M 282.021662 170.944148 
L 286.080859 170.944148 
L 286.080859 105.680931 
L 282.021662 105.680931 
z
" clip-path="url(#pe8fe971de4)" style="fill: #ff0000; opacity: 0.7"/>
   </g>
   <g id="patch_45">
    <path d="M 287.095658 170.944148 
L 291.154855 170.944148 
L 291.154855 92.137335 
L 287.095658 92.137335 
z
" clip-path="url(#pe8fe971de4)" style="fill: #ff0000; opacity: 0.7"/>
   </g>
   <g id="patch_46">
    <path d="M 292.169654 170.944148 
L 296.22885 170.944148 
L 296.22885 79.447533 
L 292.169654 79.447533 
z
" clip-path="url(#pe8fe971de4)" style="fill: #ff0000; opacity: 0.7"/>
   </g>
   <g id="patch_47">
    <path d="M 297.24365 170.944148 
L 301.302846 170.944148 
L 301.302846 67.110606 
L 297.24365 67.110606 
z
" clip-path="url(#pe8fe971de4)" style="fill: #ff0000; opacity: 0.7"/>
   </g>
   <g id="patch_48">
    <path d="M 302.317645 170.944148 
L 306.376842 170.944148 
L 306.376842 55.943024 
L 302.317645 55.943024 
z
" clip-path="url(#pe8fe971de4)" style="fill: #ff0000; opacity: 0.7"/>
   </g>
   <g id="patch_49">
    <path d="M 307.391641 170.944148 
L 311.450838 170.944148 
L 311.450838 47.196362 
L 307.391641 47.196362 
z
" clip-path="url(#pe8fe971de4)" style="fill: #ff0000; opacity: 0.7"/>
   </g>
   <g id="patch_50">
    <path d="M 312.465637 170.944148 
L 316.524834 170.944148 
L 316.524834 38.282876 
L 312.465637 38.282876 
z
" clip-path="url(#pe8fe971de4)" style="fill: #ff0000; opacity: 0.7"/>
   </g>
   <g id="patch_51">
    <path d="M 317.539633 170.944148 
L 321.598829 170.944148 
L 321.598829 31.500091 
L 317.539633 31.500091 
z
" clip-path="url(#pe8fe971de4)" style="fill: #ff0000; opacity: 0.7"/>
   </g>
   <g id="patch_52">
    <path d="M 322.613628 170.944148 
L 326.672825 170.944148 
L 326.672825 26.058725 
L 322.613628 26.058725 
z
" clip-path="url(#pe8fe971de4)" style="fill: #ff0000; opacity: 0.7"/>
   </g>
   <g id="patch_53">
    <path d="M 327.687624 170.944148 
L 331.746821 170.944148 
L 331.746821 21.372935 
L 327.687624 21.372935 
z
" clip-path="url(#pe8fe971de4)" style="fill: #ff0000; opacity: 0.7"/>
   </g>
   <g id="patch_54">
    <path d="M 332.76162 170.944148 
L 336.820817 170.944148 
L 336.820817 18.375435 
L 332.76162 18.375435 
z
" clip-path="url(#pe8fe971de4)" style="fill: #ff0000; opacity: 0.7"/>
   </g>
   <g id="patch_55">
    <path d="M 337.835616 170.944148 
L 341.894812 170.944148 
L 341.894812 16.658434 
L 337.835616 16.658434 
z
" clip-path="url(#pe8fe971de4)" style="fill: #ff0000; opacity: 0.7"/>
   </g>
   <g id="patch_56">
    <path d="M 342.909612 170.944148 
L 346.968808 170.944148 
L 346.968808 16.743476 
L 342.909612 16.743476 
z
" clip-path="url(#pe8fe971de4)" style="fill: #ff0000; opacity: 0.7"/>
   </g>
   <g id="patch_57">
    <path d="M 347.983607 170.944148 
L 352.042804 170.944148 
L 352.042804 17.619444 
L 347.983607 17.619444 
z
" clip-path="url(#pe8fe971de4)" style="fill: #ff0000; opacity: 0.7"/>
   </g>
   <g id="patch_58">
    <path d="M 353.057603 170.944148 
L 357.1168 170.944148 
L 357.1168 23.786445 
L 353.057603 23.786445 
z
" clip-path="url(#pe8fe971de4)" style="fill: #ff0000; opacity: 0.7"/>
   </g>
   <g id="patch_59">
    <path d="M 358.131599 170.944148 
L 362.190795 170.944148 
L 362.190795 30.584364 
L 358.131599 30.584364 
z
" clip-path="url(#pe8fe971de4)" style="fill: #ff0000; opacity: 0.7"/>
   </g>
   <g id="matplotlib.axis_3">
    <g id="xtick_4">
     <g id="line2d_8">
      <g>
       <use xlink:href="#m27d830a0cc" x="258.681282" y="170.944148" style="stroke: #000000; stroke-width: 0.8"/>
      </g>
     </g>
     <g id="text_9">
      <!-- 2030 -->
      <g transform="translate(240.866282 188.58196) scale(0.14 -0.14)">
       <use xlink:href="#DejaVuSans-32"/>
       <use xlink:href="#DejaVuSans-30" x="63.623047"/>
       <use xlink:href="#DejaVuSans-33" x="127.246094"/>
       <use xlink:href="#DejaVuSans-30" x="190.869141"/>
      </g>
     </g>
    </g>
    <g id="xtick_5">
     <g id="line2d_9">
      <g>
       <use xlink:href="#m27d830a0cc" x="309.421239" y="170.944148" style="stroke: #000000; stroke-width: 0.8"/>
      </g>
     </g>
     <g id="text_10">
      <!-- 2040 -->
      <g transform="translate(291.606239 188.58196) scale(0.14 -0.14)">
       <use xlink:href="#DejaVuSans-32"/>
       <use xlink:href="#DejaVuSans-30" x="63.623047"/>
       <use xlink:href="#DejaVuSans-34" x="127.246094"/>
       <use xlink:href="#DejaVuSans-30" x="190.869141"/>
      </g>
     </g>
    </g>
    <g id="xtick_6">
     <g id="line2d_10">
      <g>
       <use xlink:href="#m27d830a0cc" x="360.161197" y="170.944148" style="stroke: #000000; stroke-width: 0.8"/>
      </g>
     </g>
     <g id="text_11">
      <!-- 2050 -->
      <g transform="translate(342.346197 188.58196) scale(0.14 -0.14)">
       <use xlink:href="#DejaVuSans-32"/>
       <use xlink:href="#DejaVuSans-30" x="63.623047"/>
       <use xlink:href="#DejaVuSans-35" x="127.246094"/>
       <use xlink:href="#DejaVuSans-30" x="190.869141"/>
      </g>
     </g>
    </g>
   </g>
   <g id="matplotlib.axis_4"/>
   <g id="patch_60">
    <path d="M 224.73625 170.944148 
L 224.73625 8.944148 
" style="fill: none; stroke: #000000; stroke-width: 0.8; stroke-linejoin: miter; stroke-linecap: square"/>
   </g>
   <g id="patch_61">
    <path d="M 368.73625 170.944148 
L 368.73625 8.944148 
" style="fill: none; stroke: #000000; stroke-width: 0.8; stroke-linejoin: miter; stroke-linecap: square"/>
   </g>
   <g id="patch_62">
    <path d="M 224.73625 170.944148 
L 368.73625 170.944148 
" style="fill: none; stroke: #000000; stroke-width: 0.8; stroke-linejoin: miter; stroke-linecap: square"/>
   </g>
   <g id="patch_63">
    <path d="M 224.73625 8.944148 
L 368.73625 8.944148 
" style="fill: none; stroke: #000000; stroke-width: 0.8; stroke-linejoin: miter; stroke-linecap: square"/>
   </g>
  </g>
  <g id="axes_3">
   <g id="patch_64">
    <path d="M 368.73625 170.944148 
L 512.73625 170.944148 
L 512.73625 8.944148 
L 368.73625 8.944148 
z
" style="fill: #ffffff"/>
   </g>
   <g id="patch_65">
    <path d="M 375.281705 170.944148 
L 379.340901 170.944148 
L 379.340901 170.56318 
L 375.281705 170.56318 
z
" clip-path="url(#p3f93b4c3fe)" style="fill: #ff0000; opacity: 0.7"/>
   </g>
   <g id="patch_66">
    <path d="M 380.3557 170.944148 
L 384.414897 170.944148 
L 384.414897 169.517775 
L 380.3557 169.517775 
z
" clip-path="url(#p3f93b4c3fe)" style="fill: #ff0000; opacity: 0.7"/>
   </g>
   <g id="patch_67">
    <path d="M 385.429696 170.944148 
L 389.488893 170.944148 
L 389.488893 167.30963 
L 385.429696 167.30963 
z
" clip-path="url(#p3f93b4c3fe)" style="fill: #ff0000; opacity: 0.7"/>
   </g>
   <g id="patch_68">
    <path d="M 390.503692 170.944148 
L 394.562888 170.944148 
L 394.562888 163.674513 
L 390.503692 163.674513 
z
" clip-path="url(#p3f93b4c3fe)" style="fill: #ff0000; opacity: 0.7"/>
   </g>
   <g id="patch_69">
    <path d="M 395.577688 170.944148 
L 399.636884 170.944148 
L 399.636884 157.959458 
L 395.577688 157.959458 
z
" clip-path="url(#p3f93b4c3fe)" style="fill: #ff0000; opacity: 0.7"/>
   </g>
   <g id="patch_70">
    <path d="M 400.651683 170.944148 
L 404.71088 170.944148 
L 404.71088 150.441629 
L 400.651683 150.441629 
z
" clip-path="url(#p3f93b4c3fe)" style="fill: #ff0000; opacity: 0.7"/>
   </g>
   <g id="patch_71">
    <path d="M 405.725679 170.944148 
L 409.784876 170.944148 
L 409.784876 140.645038 
L 405.725679 140.645038 
z
" clip-path="url(#p3f93b4c3fe)" style="fill: #ff0000; opacity: 0.7"/>
   </g>
   <g id="patch_72">
    <path d="M 410.799675 170.944148 
L 414.858872 170.944148 
L 414.858872 128.269922 
L 410.799675 128.269922 
z
" clip-path="url(#p3f93b4c3fe)" style="fill: #ff0000; opacity: 0.7"/>
   </g>
   <g id="patch_73">
    <path d="M 415.873671 170.944148 
L 419.932867 170.944148 
L 419.932867 115.201151 
L 415.873671 115.201151 
z
" clip-path="url(#p3f93b4c3fe)" style="fill: #ff0000; opacity: 0.7"/>
   </g>
   <g id="patch_74">
    <path d="M 420.947666 170.944148 
L 425.006863 170.944148 
L 425.006863 100.522649 
L 420.947666 100.522649 
z
" clip-path="url(#p3f93b4c3fe)" style="fill: #ff0000; opacity: 0.7"/>
   </g>
   <g id="patch_75">
    <path d="M 426.021662 170.944148 
L 430.080859 170.944148 
L 430.080859 85.923412 
L 426.021662 85.923412 
z
" clip-path="url(#p3f93b4c3fe)" style="fill: #ff0000; opacity: 0.7"/>
   </g>
   <g id="patch_76">
    <path d="M 431.095658 170.944148 
L 435.154855 170.944148 
L 435.154855 73.122314 
L 431.095658 73.122314 
z
" clip-path="url(#p3f93b4c3fe)" style="fill: #ff0000; opacity: 0.7"/>
   </g>
   <g id="patch_77">
    <path d="M 436.169654 170.944148 
L 440.22885 170.944148 
L 440.22885 60.591236 
L 436.169654 60.591236 
z
" clip-path="url(#p3f93b4c3fe)" style="fill: #ff0000; opacity: 0.7"/>
   </g>
   <g id="patch_78">
    <path d="M 441.24365 170.944148 
L 445.302846 170.944148 
L 445.302846 50.57198 
L 441.24365 50.57198 
z
" clip-path="url(#p3f93b4c3fe)" style="fill: #ff0000; opacity: 0.7"/>
   </g>
   <g id="patch_79">
    <path d="M 446.317645 170.944148 
L 450.376842 170.944148 
L 450.376842 42.035137 
L 446.317645 42.035137 
z
" clip-path="url(#p3f93b4c3fe)" style="fill: #ff0000; opacity: 0.7"/>
   </g>
   <g id="patch_80">
    <path d="M 451.391641 170.944148 
L 455.450838 170.944148 
L 455.450838 34.889279 
L 451.391641 34.889279 
z
" clip-path="url(#p3f93b4c3fe)" style="fill: #ff0000; opacity: 0.7"/>
   </g>
   <g id="patch_81">
    <path d="M 456.465637 170.944148 
L 460.524834 170.944148 
L 460.524834 28.516451 
L 456.465637 28.516451 
z
" clip-path="url(#p3f93b4c3fe)" style="fill: #ff0000; opacity: 0.7"/>
   </g>
   <g id="patch_82">
    <path d="M 461.539633 170.944148 
L 465.598829 170.944148 
L 465.598829 23.611374 
L 461.539633 23.611374 
z
" clip-path="url(#p3f93b4c3fe)" style="fill: #ff0000; opacity: 0.7"/>
   </g>
   <g id="patch_83">
    <path d="M 466.613628 170.944148 
L 470.672825 170.944148 
L 470.672825 20.010616 
L 466.613628 20.010616 
z
" clip-path="url(#p3f93b4c3fe)" style="fill: #ff0000; opacity: 0.7"/>
   </g>
   <g id="patch_84">
    <path d="M 471.687624 170.944148 
L 475.746821 170.944148 
L 475.746821 16.658434 
L 471.687624 16.658434 
z
" clip-path="url(#p3f93b4c3fe)" style="fill: #ff0000; opacity: 0.7"/>
   </g>
   <g id="patch_85">
    <path d="M 476.76162 170.944148 
L 480.820817 170.944148 
L 480.820817 18.599577 
L 476.76162 18.599577 
z
" clip-path="url(#p3f93b4c3fe)" style="fill: #ff0000; opacity: 0.7"/>
   </g>
   <g id="patch_86">
    <path d="M 481.835616 170.944148 
L 485.894812 170.944148 
L 485.894812 20.849829 
L 481.835616 20.849829 
z
" clip-path="url(#p3f93b4c3fe)" style="fill: #ff0000; opacity: 0.7"/>
   </g>
   <g id="patch_87">
    <path d="M 486.909612 170.944148 
L 490.968808 170.944148 
L 490.968808 25.250128 
L 486.909612 25.250128 
z
" clip-path="url(#p3f93b4c3fe)" style="fill: #ff0000; opacity: 0.7"/>
   </g>
   <g id="patch_88">
    <path d="M 491.983607 170.944148 
L 496.042804 170.944148 
L 496.042804 30.646607 
L 491.983607 30.646607 
z
" clip-path="url(#p3f93b4c3fe)" style="fill: #ff0000; opacity: 0.7"/>
   </g>
   <g id="patch_89">
    <path d="M 497.057603 170.944148 
L 501.1168 170.944148 
L 501.1168 38.175001 
L 497.057603 38.175001 
z
" clip-path="url(#p3f93b4c3fe)" style="fill: #ff0000; opacity: 0.7"/>
   </g>
   <g id="patch_90">
    <path d="M 502.131599 170.944148 
L 506.190795 170.944148 
L 506.190795 46.471933 
L 502.131599 46.471933 
z
" clip-path="url(#p3f93b4c3fe)" style="fill: #ff0000; opacity: 0.7"/>
   </g>
   <g id="matplotlib.axis_5">
    <g id="xtick_7">
     <g id="line2d_11">
      <g>
       <use xlink:href="#m27d830a0cc" x="402.681282" y="170.944148" style="stroke: #000000; stroke-width: 0.8"/>
      </g>
     </g>
     <g id="text_12">
      <!-- 2030 -->
      <g transform="translate(384.866282 188.58196) scale(0.14 -0.14)">
       <use xlink:href="#DejaVuSans-32"/>
       <use xlink:href="#DejaVuSans-30" x="63.623047"/>
       <use xlink:href="#DejaVuSans-33" x="127.246094"/>
       <use xlink:href="#DejaVuSans-30" x="190.869141"/>
      </g>
     </g>
    </g>
    <g id="xtick_8">
     <g id="line2d_12">
      <g>
       <use xlink:href="#m27d830a0cc" x="453.421239" y="170.944148" style="stroke: #000000; stroke-width: 0.8"/>
      </g>
     </g>
     <g id="text_13">
      <!-- 2040 -->
      <g transform="translate(435.606239 188.58196) scale(0.14 -0.14)">
       <use xlink:href="#DejaVuSans-32"/>
       <use xlink:href="#DejaVuSans-30" x="63.623047"/>
       <use xlink:href="#DejaVuSans-34" x="127.246094"/>
       <use xlink:href="#DejaVuSans-30" x="190.869141"/>
      </g>
     </g>
    </g>
    <g id="xtick_9">
     <g id="line2d_13">
      <g>
       <use xlink:href="#m27d830a0cc" x="504.161197" y="170.944148" style="stroke: #000000; stroke-width: 0.8"/>
      </g>
     </g>
     <g id="text_14">
      <!-- 2050 -->
      <g transform="translate(486.346197 188.58196) scale(0.14 -0.14)">
       <use xlink:href="#DejaVuSans-32"/>
       <use xlink:href="#DejaVuSans-30" x="63.623047"/>
       <use xlink:href="#DejaVuSans-35" x="127.246094"/>
       <use xlink:href="#DejaVuSans-30" x="190.869141"/>
      </g>
     </g>
    </g>
   </g>
   <g id="matplotlib.axis_6"/>
   <g id="patch_91">
    <path d="M 368.73625 170.944148 
L 368.73625 8.944148 
" style="fill: none; stroke: #000000; stroke-width: 0.8; stroke-linejoin: miter; stroke-linecap: square"/>
   </g>
   <g id="patch_92">
    <path d="M 512.73625 170.944148 
L 512.73625 8.944148 
" style="fill: none; stroke: #000000; stroke-width: 0.8; stroke-linejoin: miter; stroke-linecap: square"/>
   </g>
   <g id="patch_93">
    <path d="M 368.73625 170.944148 
L 512.73625 170.944148 
" style="fill: none; stroke: #000000; stroke-width: 0.8; stroke-linejoin: miter; stroke-linecap: square"/>
   </g>
   <g id="patch_94">
    <path d="M 368.73625 8.944148 
L 512.73625 8.944148 
" style="fill: none; stroke: #000000; stroke-width: 0.8; stroke-linejoin: miter; stroke-linecap: square"/>
   </g>
  </g>
  <g id="axes_4">
   <g id="patch_95">
    <path d="M 512.73625 170.944148 
L 656.73625 170.944148 
L 656.73625 8.944148 
L 512.73625 8.944148 
z
" style="fill: #ffffff"/>
   </g>
   <g id="patch_96">
    <path d="M 519.281705 170.944148 
L 523.340901 170.944148 
L 523.340901 170.703387 
L 519.281705 170.703387 
z
" clip-path="url(#pc4ebeb8584)" style="fill: #ff0000; opacity: 0.7"/>
   </g>
   <g id="patch_97">
    <path d="M 524.3557 170.944148 
L 528.414897 170.944148 
L 528.414897 170.040467 
L 524.3557 170.040467 
z
" clip-path="url(#pc4ebeb8584)" style="fill: #ff0000; opacity: 0.7"/>
   </g>
   <g id="patch_98">
    <path d="M 529.429696 170.944148 
L 533.488893 170.944148 
L 533.488893 168.512676 
L 529.429696 168.512676 
z
" clip-path="url(#pc4ebeb8584)" style="fill: #ff0000; opacity: 0.7"/>
   </g>
   <g id="patch_99">
    <path d="M 534.503692 170.944148 
L 538.562888 170.944148 
L 538.562888 166.00034 
L 534.503692 166.00034 
z
" clip-path="url(#pc4ebeb8584)" style="fill: #ff0000; opacity: 0.7"/>
   </g>
   <g id="patch_100">
    <path d="M 539.577688 170.944148 
L 543.636884 170.944148 
L 543.636884 162.067566 
L 539.577688 162.067566 
z
" clip-path="url(#pc4ebeb8584)" style="fill: #ff0000; opacity: 0.7"/>
   </g>
   <g id="patch_101">
    <path d="M 544.651683 170.944148 
L 548.71088 170.944148 
L 548.71088 156.968758 
L 544.651683 156.968758 
z
" clip-path="url(#pc4ebeb8584)" style="fill: #ff0000; opacity: 0.7"/>
   </g>
   <g id="patch_102">
    <path d="M 549.725679 170.944148 
L 553.784876 170.944148 
L 553.784876 150.701053 
L 549.725679 150.701053 
z
" clip-path="url(#pc4ebeb8584)" style="fill: #ff0000; opacity: 0.7"/>
   </g>
   <g id="patch_103">
    <path d="M 554.799675 170.944148 
L 558.858872 170.944148 
L 558.858872 143.166878 
L 554.799675 143.166878 
z
" clip-path="url(#pc4ebeb8584)" style="fill: #ff0000; opacity: 0.7"/>
   </g>
   <g id="patch_104">
    <path d="M 559.873671 170.944148 
L 563.932867 170.944148 
L 563.932867 134.890475 
L 559.873671 134.890475 
z
" clip-path="url(#pc4ebeb8584)" style="fill: #ff0000; opacity: 0.7"/>
   </g>
   <g id="patch_105">
    <path d="M 564.947666 170.944148 
L 569.006863 170.944148 
L 569.006863 125.257705 
L 564.947666 125.257705 
z
" clip-path="url(#pc4ebeb8584)" style="fill: #ff0000; opacity: 0.7"/>
   </g>
   <g id="patch_106">
    <path d="M 570.021662 170.944148 
L 574.080859 170.944148 
L 574.080859 114.644943 
L 570.021662 114.644943 
z
" clip-path="url(#pc4ebeb8584)" style="fill: #ff0000; opacity: 0.7"/>
   </g>
   <g id="patch_107">
    <path d="M 575.095658 170.944148 
L 579.154855 170.944148 
L 579.154855 102.41044 
L 575.095658 102.41044 
z
" clip-path="url(#pc4ebeb8584)" style="fill: #ff0000; opacity: 0.7"/>
   </g>
   <g id="patch_108">
    <path d="M 580.169654 170.944148 
L 584.22885 170.944148 
L 584.22885 90.969366 
L 580.169654 90.969366 
z
" clip-path="url(#pc4ebeb8584)" style="fill: #ff0000; opacity: 0.7"/>
   </g>
   <g id="patch_109">
    <path d="M 585.24365 170.944148 
L 589.302846 170.944148 
L 589.302846 78.827762 
L 585.24365 78.827762 
z
" clip-path="url(#pc4ebeb8584)" style="fill: #ff0000; opacity: 0.7"/>
   </g>
   <g id="patch_110">
    <path d="M 590.317645 170.944148 
L 594.376842 170.944148 
L 594.376842 67.023582 
L 590.317645 67.023582 
z
" clip-path="url(#pc4ebeb8584)" style="fill: #ff0000; opacity: 0.7"/>
   </g>
   <g id="patch_111">
    <path d="M 595.391641 170.944148 
L 599.450838 170.944148 
L 599.450838 56.848668 
L 595.391641 56.848668 
z
" clip-path="url(#pc4ebeb8584)" style="fill: #ff0000; opacity: 0.7"/>
   </g>
   <g id="patch_112">
    <path d="M 600.465637 170.944148 
L 604.524834 170.944148 
L 604.524834 46.632564 
L 600.465637 46.632564 
z
" clip-path="url(#pc4ebeb8584)" style="fill: #ff0000; opacity: 0.7"/>
   </g>
   <g id="patch_113">
    <path d="M 605.539633 170.944148 
L 609.598829 170.944148 
L 609.598829 38.608473 
L 605.539633 38.608473 
z
" clip-path="url(#pc4ebeb8584)" style="fill: #ff0000; opacity: 0.7"/>
   </g>
   <g id="patch_114">
    <path d="M 610.613628 170.944148 
L 614.672825 170.944148 
L 614.672825 32.048778 
L 610.613628 32.048778 
z
" clip-path="url(#pc4ebeb8584)" style="fill: #ff0000; opacity: 0.7"/>
   </g>
   <g id="patch_115">
    <path d="M 615.687624 170.944148 
L 619.746821 170.944148 
L 619.746821 26.834373 
L 615.687624 26.834373 
z
" clip-path="url(#pc4ebeb8584)" style="fill: #ff0000; opacity: 0.7"/>
   </g>
   <g id="patch_116">
    <path d="M 620.76162 170.944148 
L 624.820817 170.944148 
L 624.820817 22.438865 
L 620.76162 22.438865 
z
" clip-path="url(#pc4ebeb8584)" style="fill: #ff0000; opacity: 0.7"/>
   </g>
   <g id="patch_117">
    <path d="M 625.835616 170.944148 
L 629.894812 170.944148 
L 629.894812 19.525484 
L 625.835616 19.525484 
z
" clip-path="url(#pc4ebeb8584)" style="fill: #ff0000; opacity: 0.7"/>
   </g>
   <g id="patch_118">
    <path d="M 630.909612 170.944148 
L 634.968808 170.944148 
L 634.968808 18.124996 
L 630.909612 18.124996 
z
" clip-path="url(#pc4ebeb8584)" style="fill: #ff0000; opacity: 0.7"/>
   </g>
   <g id="patch_119">
    <path d="M 635.983607 170.944148 
L 640.042804 170.944148 
L 640.042804 16.658434 
L 635.983607 16.658434 
z
" clip-path="url(#pc4ebeb8584)" style="fill: #ff0000; opacity: 0.7"/>
   </g>
   <g id="patch_120">
    <path d="M 641.057603 170.944148 
L 645.1168 170.944148 
L 645.1168 20.16447 
L 641.057603 20.16447 
z
" clip-path="url(#pc4ebeb8584)" style="fill: #ff0000; opacity: 0.7"/>
   </g>
   <g id="patch_121">
    <path d="M 646.131599 170.944148 
L 650.190795 170.944148 
L 650.190795 24.860205 
L 646.131599 24.860205 
z
" clip-path="url(#pc4ebeb8584)" style="fill: #ff0000; opacity: 0.7"/>
   </g>
   <g id="matplotlib.axis_7">
    <g id="xtick_10">
     <g id="line2d_14">
      <g>
       <use xlink:href="#m27d830a0cc" x="546.681282" y="170.944148" style="stroke: #000000; stroke-width: 0.8"/>
      </g>
     </g>
     <g id="text_15">
      <!-- 2030 -->
      <g transform="translate(528.866282 188.58196) scale(0.14 -0.14)">
       <use xlink:href="#DejaVuSans-32"/>
       <use xlink:href="#DejaVuSans-30" x="63.623047"/>
       <use xlink:href="#DejaVuSans-33" x="127.246094"/>
       <use xlink:href="#DejaVuSans-30" x="190.869141"/>
      </g>
     </g>
    </g>
    <g id="xtick_11">
     <g id="line2d_15">
      <g>
       <use xlink:href="#m27d830a0cc" x="597.421239" y="170.944148" style="stroke: #000000; stroke-width: 0.8"/>
      </g>
     </g>
     <g id="text_16">
      <!-- 2040 -->
      <g transform="translate(579.606239 188.58196) scale(0.14 -0.14)">
       <use xlink:href="#DejaVuSans-32"/>
       <use xlink:href="#DejaVuSans-30" x="63.623047"/>
       <use xlink:href="#DejaVuSans-34" x="127.246094"/>
       <use xlink:href="#DejaVuSans-30" x="190.869141"/>
      </g>
     </g>
    </g>
    <g id="xtick_12">
     <g id="line2d_16">
      <g>
       <use xlink:href="#m27d830a0cc" x="648.161197" y="170.944148" style="stroke: #000000; stroke-width: 0.8"/>
      </g>
     </g>
     <g id="text_17">
      <!-- 2050 -->
      <g transform="translate(630.346197 188.58196) scale(0.14 -0.14)">
       <use xlink:href="#DejaVuSans-32"/>
       <use xlink:href="#DejaVuSans-30" x="63.623047"/>
       <use xlink:href="#DejaVuSans-35" x="127.246094"/>
       <use xlink:href="#DejaVuSans-30" x="190.869141"/>
      </g>
     </g>
    </g>
   </g>
   <g id="matplotlib.axis_8"/>
   <g id="patch_122">
    <path d="M 512.73625 170.944148 
L 512.73625 8.944148 
" style="fill: none; stroke: #000000; stroke-width: 0.8; stroke-linejoin: miter; stroke-linecap: square"/>
   </g>
   <g id="patch_123">
    <path d="M 656.73625 170.944148 
L 656.73625 8.944148 
" style="fill: none; stroke: #000000; stroke-width: 0.8; stroke-linejoin: miter; stroke-linecap: square"/>
   </g>
   <g id="patch_124">
    <path d="M 512.73625 170.944148 
L 656.73625 170.944148 
" style="fill: none; stroke: #000000; stroke-width: 0.8; stroke-linejoin: miter; stroke-linecap: square"/>
   </g>
   <g id="patch_125">
    <path d="M 512.73625 8.944148 
L 656.73625 8.944148 
" style="fill: none; stroke: #000000; stroke-width: 0.8; stroke-linejoin: miter; stroke-linecap: square"/>
   </g>
  </g>
  <g id="axes_5">
   <g id="patch_126">
    <path d="M 656.73625 170.944148 
L 800.73625 170.944148 
L 800.73625 8.944148 
L 656.73625 8.944148 
z
" style="fill: #ffffff"/>
   </g>
   <g id="patch_127">
    <path d="M 663.281705 170.944148 
L 667.340901 170.944148 
L 667.340901 170.726779 
L 663.281705 170.726779 
z
" clip-path="url(#p0bd75f0602)" style="fill: #ff0000; opacity: 0.7"/>
   </g>
   <g id="patch_128">
    <path d="M 668.3557 170.944148 
L 672.414897 170.944148 
L 672.414897 170.799154 
L 668.3557 170.799154 
z
" clip-path="url(#p0bd75f0602)" style="fill: #ff0000; opacity: 0.7"/>
   </g>
   <g id="patch_129">
    <path d="M 673.429696 170.944148 
L 677.488893 170.944148 
L 677.488893 170.864212 
L 673.429696 170.864212 
z
" clip-path="url(#p0bd75f0602)" style="fill: #ff0000; opacity: 0.7"/>
   </g>
   <g id="patch_130">
    <path d="M 678.503692 170.944148 
L 682.562888 170.944148 
L 682.562888 170.915501 
L 678.503692 170.915501 
z
" clip-path="url(#p0bd75f0602)" style="fill: #ff0000; opacity: 0.7"/>
   </g>
   <g id="patch_131">
    <path d="M 683.577688 170.944148 
L 687.636884 170.944148 
L 687.636884 170.938283 
L 683.577688 170.938283 
z
" clip-path="url(#p0bd75f0602)" style="fill: #ff0000; opacity: 0.7"/>
   </g>
   <g id="patch_132">
    <path d="M 688.651683 170.944148 
L 692.71088 170.944148 
L 692.71088 170.943171 
L 688.651683 170.943171 
z
" clip-path="url(#p0bd75f0602)" style="fill: #ff0000; opacity: 0.7"/>
   </g>
   <g id="patch_133">
    <path d="M 693.725679 170.944148 
L 697.784876 170.944148 
L 697.784876 170.713609 
L 693.725679 170.713609 
z
" clip-path="url(#p0bd75f0602)" style="fill: #ff0000; opacity: 0.7"/>
   </g>
   <g id="patch_134">
    <path d="M 698.799675 170.944148 
L 702.858872 170.944148 
L 702.858872 169.230904 
L 698.799675 169.230904 
z
" clip-path="url(#p0bd75f0602)" style="fill: #ff0000; opacity: 0.7"/>
   </g>
   <g id="patch_135">
    <path d="M 703.873671 170.944148 
L 707.932867 170.944148 
L 707.932867 154.877699 
L 703.873671 154.877699 
z
" clip-path="url(#p0bd75f0602)" style="fill: #ff0000; opacity: 0.7"/>
   </g>
   <g id="patch_136">
    <path d="M 708.947666 170.944148 
L 713.006863 170.944148 
L 713.006863 96.818817 
L 708.947666 96.818817 
z
" clip-path="url(#p0bd75f0602)" style="fill: #ff0000; opacity: 0.7"/>
   </g>
   <g id="patch_137">
    <path d="M 714.021662 170.944148 
L 718.080859 170.944148 
L 718.080859 38.298791 
L 714.021662 38.298791 
z
" clip-path="url(#p0bd75f0602)" style="fill: #ff0000; opacity: 0.7"/>
   </g>
   <g id="patch_138">
    <path d="M 719.095658 170.944148 
L 723.154855 170.944148 
L 723.154855 16.658434 
L 719.095658 16.658434 
z
" clip-path="url(#p0bd75f0602)" style="fill: #ff0000; opacity: 0.7"/>
   </g>
   <g id="patch_139">
    <path d="M 724.169654 170.944148 
L 728.22885 170.944148 
L 728.22885 32.387747 
L 724.169654 32.387747 
z
" clip-path="url(#p0bd75f0602)" style="fill: #ff0000; opacity: 0.7"/>
   </g>
   <g id="patch_140">
    <path d="M 729.24365 170.944148 
L 733.302846 170.944148 
L 733.302846 62.121948 
L 729.24365 62.121948 
z
" clip-path="url(#p0bd75f0602)" style="fill: #ff0000; opacity: 0.7"/>
   </g>
   <g id="patch_141">
    <path d="M 734.317645 170.944148 
L 738.376842 170.944148 
L 738.376842 90.820281 
L 734.317645 90.820281 
z
" clip-path="url(#p0bd75f0602)" style="fill: #ff0000; opacity: 0.7"/>
   </g>
   <g id="patch_142">
    <path d="M 739.391641 170.944148 
L 743.450838 170.944148 
L 743.450838 108.409336 
L 739.391641 108.409336 
z
" clip-path="url(#p0bd75f0602)" style="fill: #ff0000; opacity: 0.7"/>
   </g>
   <g id="patch_143">
    <path d="M 744.465637 170.944148 
L 748.524834 170.944148 
L 748.524834 119.936708 
L 744.465637 119.936708 
z
" clip-path="url(#p0bd75f0602)" style="fill: #ff0000; opacity: 0.7"/>
   </g>
   <g id="patch_144">
    <path d="M 749.539633 170.944148 
L 753.598829 170.944148 
L 753.598829 127.111103 
L 749.539633 127.111103 
z
" clip-path="url(#p0bd75f0602)" style="fill: #ff0000; opacity: 0.7"/>
   </g>
   <g id="patch_145">
    <path d="M 754.613628 170.944148 
L 758.672825 170.944148 
L 758.672825 133.965074 
L 754.613628 133.965074 
z
" clip-path="url(#p0bd75f0602)" style="fill: #ff0000; opacity: 0.7"/>
   </g>
   <g id="patch_146">
    <path d="M 759.687624 170.944148 
L 763.746821 170.944148 
L 763.746821 142.022084 
L 759.687624 142.022084 
z
" clip-path="url(#p0bd75f0602)" style="fill: #ff0000; opacity: 0.7"/>
   </g>
   <g id="patch_147">
    <path d="M 764.76162 170.944148 
L 768.820817 170.944148 
L 768.820817 150.822113 
L 764.76162 150.822113 
z
" clip-path="url(#p0bd75f0602)" style="fill: #ff0000; opacity: 0.7"/>
   </g>
   <g id="patch_148">
    <path d="M 769.835616 170.944148 
L 773.894812 170.944148 
L 773.894812 158.645946 
L 769.835616 158.645946 
z
" clip-path="url(#p0bd75f0602)" style="fill: #ff0000; opacity: 0.7"/>
   </g>
   <g id="patch_149">
    <path d="M 774.909612 170.944148 
L 778.968808 170.944148 
L 778.968808 163.71808 
L 774.909612 163.71808 
z
" clip-path="url(#p0bd75f0602)" style="fill: #ff0000; opacity: 0.7"/>
   </g>
   <g id="patch_150">
    <path d="M 779.983607 170.944148 
L 784.042804 170.944148 
L 784.042804 167.302175 
L 779.983607 167.302175 
z
" clip-path="url(#p0bd75f0602)" style="fill: #ff0000; opacity: 0.7"/>
   </g>
   <g id="patch_151">
    <path d="M 785.057603 170.944148 
L 789.1168 170.944148 
L 789.1168 168.874993 
L 785.057603 168.874993 
z
" clip-path="url(#p0bd75f0602)" style="fill: #ff0000; opacity: 0.7"/>
   </g>
   <g id="patch_152">
    <path d="M 790.131599 170.944148 
L 794.190795 170.944148 
L 794.190795 169.923948 
L 790.131599 169.923948 
z
" clip-path="url(#p0bd75f0602)" style="fill: #ff0000; opacity: 0.7"/>
   </g>
   <g id="matplotlib.axis_9">
    <g id="xtick_13">
     <g id="line2d_17">
      <g>
       <use xlink:href="#m27d830a0cc" x="690.681282" y="170.944148" style="stroke: #000000; stroke-width: 0.8"/>
      </g>
     </g>
     <g id="text_18">
      <!-- 2030 -->
      <g transform="translate(672.866282 188.58196) scale(0.14 -0.14)">
       <use xlink:href="#DejaVuSans-32"/>
       <use xlink:href="#DejaVuSans-30" x="63.623047"/>
       <use xlink:href="#DejaVuSans-33" x="127.246094"/>
       <use xlink:href="#DejaVuSans-30" x="190.869141"/>
      </g>
     </g>
    </g>
    <g id="xtick_14">
     <g id="line2d_18">
      <g>
       <use xlink:href="#m27d830a0cc" x="741.421239" y="170.944148" style="stroke: #000000; stroke-width: 0.8"/>
      </g>
     </g>
     <g id="text_19">
      <!-- 2040 -->
      <g transform="translate(723.606239 188.58196) scale(0.14 -0.14)">
       <use xlink:href="#DejaVuSans-32"/>
       <use xlink:href="#DejaVuSans-30" x="63.623047"/>
       <use xlink:href="#DejaVuSans-34" x="127.246094"/>
       <use xlink:href="#DejaVuSans-30" x="190.869141"/>
      </g>
     </g>
    </g>
    <g id="xtick_15">
     <g id="line2d_19">
      <g>
       <use xlink:href="#m27d830a0cc" x="792.161197" y="170.944148" style="stroke: #000000; stroke-width: 0.8"/>
      </g>
     </g>
     <g id="text_20">
      <!-- 2050 -->
      <g transform="translate(774.346197 188.58196) scale(0.14 -0.14)">
       <use xlink:href="#DejaVuSans-32"/>
       <use xlink:href="#DejaVuSans-30" x="63.623047"/>
       <use xlink:href="#DejaVuSans-35" x="127.246094"/>
       <use xlink:href="#DejaVuSans-30" x="190.869141"/>
      </g>
     </g>
    </g>
   </g>
   <g id="matplotlib.axis_10"/>
   <g id="patch_153">
    <path d="M 656.73625 170.944148 
L 656.73625 8.944148 
" style="fill: none; stroke: #000000; stroke-width: 0.8; stroke-linejoin: miter; stroke-linecap: square"/>
   </g>
   <g id="patch_154">
    <path d="M 800.73625 170.944148 
L 800.73625 8.944148 
" style="fill: none; stroke: #000000; stroke-width: 0.8; stroke-linejoin: miter; stroke-linecap: square"/>
   </g>
   <g id="patch_155">
    <path d="M 656.73625 170.944148 
L 800.73625 170.944148 
" style="fill: none; stroke: #000000; stroke-width: 0.8; stroke-linejoin: miter; stroke-linecap: square"/>
   </g>
   <g id="patch_156">
    <path d="M 656.73625 8.944148 
L 800.73625 8.944148 
" style="fill: none; stroke: #000000; stroke-width: 0.8; stroke-linejoin: miter; stroke-linecap: square"/>
   </g>
  </g>
  <g id="axes_6">
   <g id="patch_157">
    <path d="M 800.73625 170.944148 
L 944.73625 170.944148 
L 944.73625 8.944148 
L 800.73625 8.944148 
z
" style="fill: #ffffff"/>
   </g>
   <g id="patch_158">
    <path d="M 807.281705 170.944148 
L 811.340901 170.944148 
L 811.340901 170.596653 
L 807.281705 170.596653 
z
" clip-path="url(#pf8bedf9856)" style="fill: #ff0000; opacity: 0.7"/>
   </g>
   <g id="patch_159">
    <path d="M 812.3557 170.944148 
L 816.414897 170.944148 
L 816.414897 169.635928 
L 812.3557 169.635928 
z
" clip-path="url(#pf8bedf9856)" style="fill: #ff0000; opacity: 0.7"/>
   </g>
   <g id="patch_160">
    <path d="M 817.429696 170.944148 
L 821.488893 170.944148 
L 821.488893 167.48077 
L 817.429696 167.48077 
z
" clip-path="url(#pf8bedf9856)" style="fill: #ff0000; opacity: 0.7"/>
   </g>
   <g id="patch_161">
    <path d="M 822.503692 170.944148 
L 826.562888 170.944148 
L 826.562888 163.957629 
L 822.503692 163.957629 
z
" clip-path="url(#pf8bedf9856)" style="fill: #ff0000; opacity: 0.7"/>
   </g>
   <g id="patch_162">
    <path d="M 827.577688 170.944148 
L 831.636884 170.944148 
L 831.636884 158.463096 
L 827.577688 158.463096 
z
" clip-path="url(#pf8bedf9856)" style="fill: #ff0000; opacity: 0.7"/>
   </g>
   <g id="patch_163">
    <path d="M 832.651683 170.944148 
L 836.71088 170.944148 
L 836.71088 151.342213 
L 832.651683 151.342213 
z
" clip-path="url(#pf8bedf9856)" style="fill: #ff0000; opacity: 0.7"/>
   </g>
   <g id="patch_164">
    <path d="M 837.725679 170.944148 
L 841.784876 170.944148 
L 841.784876 140.69937 
L 837.725679 140.69937 
z
" clip-path="url(#pf8bedf9856)" style="fill: #ff0000; opacity: 0.7"/>
   </g>
   <g id="patch_165">
    <path d="M 842.799675 170.944148 
L 846.858872 170.944148 
L 846.858872 126.867048 
L 842.799675 126.867048 
z
" clip-path="url(#pf8bedf9856)" style="fill: #ff0000; opacity: 0.7"/>
   </g>
   <g id="patch_166">
    <path d="M 847.873671 170.944148 
L 851.932867 170.944148 
L 851.932867 111.204536 
L 847.873671 111.204536 
z
" clip-path="url(#pf8bedf9856)" style="fill: #ff0000; opacity: 0.7"/>
   </g>
   <g id="patch_167">
    <path d="M 852.947666 170.944148 
L 857.006863 170.944148 
L 857.006863 92.966958 
L 852.947666 92.966958 
z
" clip-path="url(#pf8bedf9856)" style="fill: #ff0000; opacity: 0.7"/>
   </g>
   <g id="patch_168">
    <path d="M 858.021662 170.944148 
L 862.080859 170.944148 
L 862.080859 74.537886 
L 858.021662 74.537886 
z
" clip-path="url(#pf8bedf9856)" style="fill: #ff0000; opacity: 0.7"/>
   </g>
   <g id="patch_169">
    <path d="M 863.095658 170.944148 
L 867.154855 170.944148 
L 867.154855 58.788517 
L 863.095658 58.788517 
z
" clip-path="url(#pf8bedf9856)" style="fill: #ff0000; opacity: 0.7"/>
   </g>
   <g id="patch_170">
    <path d="M 868.169654 170.944148 
L 872.22885 170.944148 
L 872.22885 44.703184 
L 868.169654 44.703184 
z
" clip-path="url(#pf8bedf9856)" style="fill: #ff0000; opacity: 0.7"/>
   </g>
   <g id="patch_171">
    <path d="M 873.24365 170.944148 
L 877.302846 170.944148 
L 877.302846 34.750281 
L 873.24365 34.750281 
z
" clip-path="url(#pf8bedf9856)" style="fill: #ff0000; opacity: 0.7"/>
   </g>
   <g id="patch_172">
    <path d="M 878.317645 170.944148 
L 882.376842 170.944148 
L 882.376842 27.302317 
L 878.317645 27.302317 
z
" clip-path="url(#pf8bedf9856)" style="fill: #ff0000; opacity: 0.7"/>
   </g>
   <g id="patch_173">
    <path d="M 883.391641 170.944148 
L 887.450838 170.944148 
L 887.450838 21.920348 
L 883.391641 21.920348 
z
" clip-path="url(#pf8bedf9856)" style="fill: #ff0000; opacity: 0.7"/>
   </g>
   <g id="patch_174">
    <path d="M 888.465637 170.944148 
L 892.524834 170.944148 
L 892.524834 18.294991 
L 888.465637 18.294991 
z
" clip-path="url(#pf8bedf9856)" style="fill: #ff0000; opacity: 0.7"/>
   </g>
   <g id="patch_175">
    <path d="M 893.539633 170.944148 
L 897.598829 170.944148 
L 897.598829 16.658434 
L 893.539633 16.658434 
z
" clip-path="url(#pf8bedf9856)" style="fill: #ff0000; opacity: 0.7"/>
   </g>
   <g id="patch_176">
    <path d="M 898.613628 170.944148 
L 902.672825 170.944148 
L 902.672825 16.932346 
L 898.613628 16.932346 
z
" clip-path="url(#pf8bedf9856)" style="fill: #ff0000; opacity: 0.7"/>
   </g>
   <g id="patch_177">
    <path d="M 903.687624 170.944148 
L 907.746821 170.944148 
L 907.746821 17.720716 
L 903.687624 17.720716 
z
" clip-path="url(#pf8bedf9856)" style="fill: #ff0000; opacity: 0.7"/>
   </g>
   <g id="patch_178">
    <path d="M 908.76162 170.944148 
L 912.820817 170.944148 
L 912.820817 20.837106 
L 908.76162 20.837106 
z
" clip-path="url(#pf8bedf9856)" style="fill: #ff0000; opacity: 0.7"/>
   </g>
   <g id="patch_179">
    <path d="M 913.835616 170.944148 
L 917.894812 170.944148 
L 917.894812 24.1501 
L 913.835616 24.1501 
z
" clip-path="url(#pf8bedf9856)" style="fill: #ff0000; opacity: 0.7"/>
   </g>
   <g id="patch_180">
    <path d="M 918.909612 170.944148 
L 922.968808 170.944148 
L 922.968808 29.741019 
L 918.909612 29.741019 
z
" clip-path="url(#pf8bedf9856)" style="fill: #ff0000; opacity: 0.7"/>
   </g>
   <g id="patch_181">
    <path d="M 923.983607 170.944148 
L 928.042804 170.944148 
L 928.042804 36.365937 
L 923.983607 36.365937 
z
" clip-path="url(#pf8bedf9856)" style="fill: #ff0000; opacity: 0.7"/>
   </g>
   <g id="patch_182">
    <path d="M 929.057603 170.944148 
L 933.1168 170.944148 
L 933.1168 45.812453 
L 929.057603 45.812453 
z
" clip-path="url(#pf8bedf9856)" style="fill: #ff0000; opacity: 0.7"/>
   </g>
   <g id="patch_183">
    <path d="M 934.131599 170.944148 
L 938.190795 170.944148 
L 938.190795 55.453578 
L 934.131599 55.453578 
z
" clip-path="url(#pf8bedf9856)" style="fill: #ff0000; opacity: 0.7"/>
   </g>
   <g id="matplotlib.axis_11">
    <g id="xtick_16">
     <g id="line2d_20">
      <g>
       <use xlink:href="#m27d830a0cc" x="834.681282" y="170.944148" style="stroke: #000000; stroke-width: 0.8"/>
      </g>
     </g>
     <g id="text_21">
      <!-- 2030 -->
      <g transform="translate(816.866282 188.58196) scale(0.14 -0.14)">
       <use xlink:href="#DejaVuSans-32"/>
       <use xlink:href="#DejaVuSans-30" x="63.623047"/>
       <use xlink:href="#DejaVuSans-33" x="127.246094"/>
       <use xlink:href="#DejaVuSans-30" x="190.869141"/>
      </g>
     </g>
    </g>
    <g id="xtick_17">
     <g id="line2d_21">
      <g>
       <use xlink:href="#m27d830a0cc" x="885.421239" y="170.944148" style="stroke: #000000; stroke-width: 0.8"/>
      </g>
     </g>
     <g id="text_22">
      <!-- 2040 -->
      <g transform="translate(867.606239 188.58196) scale(0.14 -0.14)">
       <use xlink:href="#DejaVuSans-32"/>
       <use xlink:href="#DejaVuSans-30" x="63.623047"/>
       <use xlink:href="#DejaVuSans-34" x="127.246094"/>
       <use xlink:href="#DejaVuSans-30" x="190.869141"/>
      </g>
     </g>
    </g>
    <g id="xtick_18">
     <g id="line2d_22">
      <g>
       <use xlink:href="#m27d830a0cc" x="936.161197" y="170.944148" style="stroke: #000000; stroke-width: 0.8"/>
      </g>
     </g>
     <g id="text_23">
      <!-- 2050 -->
      <g transform="translate(918.346197 188.58196) scale(0.14 -0.14)">
       <use xlink:href="#DejaVuSans-32"/>
       <use xlink:href="#DejaVuSans-30" x="63.623047"/>
       <use xlink:href="#DejaVuSans-35" x="127.246094"/>
       <use xlink:href="#DejaVuSans-30" x="190.869141"/>
      </g>
     </g>
    </g>
   </g>
   <g id="matplotlib.axis_12"/>
   <g id="patch_184">
    <path d="M 800.73625 170.944148 
L 800.73625 8.944148 
" style="fill: none; stroke: #000000; stroke-width: 0.8; stroke-linejoin: miter; stroke-linecap: square"/>
   </g>
   <g id="patch_185">
    <path d="M 944.73625 170.944148 
L 944.73625 8.944148 
" style="fill: none; stroke: #000000; stroke-width: 0.8; stroke-linejoin: miter; stroke-linecap: square"/>
   </g>
   <g id="patch_186">
    <path d="M 800.73625 170.944148 
L 944.73625 170.944148 
" style="fill: none; stroke: #000000; stroke-width: 0.8; stroke-linejoin: miter; stroke-linecap: square"/>
   </g>
   <g id="patch_187">
    <path d="M 800.73625 8.944148 
L 944.73625 8.944148 
" style="fill: none; stroke: #000000; stroke-width: 0.8; stroke-linejoin: miter; stroke-linecap: square"/>
   </g>
  </g>
  <g id="axes_7">
   <g id="patch_188">
    <path d="M 944.73625 170.944148 
L 1088.73625 170.944148 
L 1088.73625 8.944148 
L 944.73625 8.944148 
z
" style="fill: #ffffff"/>
   </g>
   <g id="patch_189">
    <path d="M 951.281705 170.944148 
L 955.340901 170.944148 
L 955.340901 170.678107 
L 951.281705 170.678107 
z
" clip-path="url(#p8a77aa4de9)" style="fill: #ff0000; opacity: 0.7"/>
   </g>
   <g id="patch_190">
    <path d="M 956.3557 170.944148 
L 960.414897 170.944148 
L 960.414897 169.945661 
L 956.3557 169.945661 
z
" clip-path="url(#p8a77aa4de9)" style="fill: #ff0000; opacity: 0.7"/>
   </g>
   <g id="patch_191">
    <path d="M 961.429696 170.944148 
L 965.488893 170.944148 
L 965.488893 168.257225 
L 961.429696 168.257225 
z
" clip-path="url(#p8a77aa4de9)" style="fill: #ff0000; opacity: 0.7"/>
   </g>
   <g id="patch_192">
    <path d="M 966.503692 170.944148 
L 970.562888 170.944148 
L 970.562888 165.481134 
L 966.503692 165.481134 
z
" clip-path="url(#p8a77aa4de9)" style="fill: #ff0000; opacity: 0.7"/>
   </g>
   <g id="patch_193">
    <path d="M 971.577688 170.944148 
L 975.636884 170.944148 
L 975.636884 161.136456 
L 971.577688 161.136456 
z
" clip-path="url(#p8a77aa4de9)" style="fill: #ff0000; opacity: 0.7"/>
   </g>
   <g id="patch_194">
    <path d="M 976.651683 170.944148 
L 980.71088 170.944148 
L 980.71088 155.501981 
L 976.651683 155.501981 
z
" clip-path="url(#p8a77aa4de9)" style="fill: #ff0000; opacity: 0.7"/>
   </g>
   <g id="patch_195">
    <path d="M 981.725679 170.944148 
L 985.784876 170.944148 
L 985.784876 147.230057 
L 981.725679 147.230057 
z
" clip-path="url(#p8a77aa4de9)" style="fill: #ff0000; opacity: 0.7"/>
   </g>
   <g id="patch_196">
    <path d="M 986.799675 170.944148 
L 990.858872 170.944148 
L 990.858872 136.830832 
L 986.799675 136.830832 
z
" clip-path="url(#p8a77aa4de9)" style="fill: #ff0000; opacity: 0.7"/>
   </g>
   <g id="patch_197">
    <path d="M 991.873671 170.944148 
L 995.932867 170.944148 
L 995.932867 124.918735 
L 991.873671 124.918735 
z
" clip-path="url(#p8a77aa4de9)" style="fill: #ff0000; opacity: 0.7"/>
   </g>
   <g id="patch_198">
    <path d="M 996.947666 170.944148 
L 1001.006863 170.944148 
L 1001.006863 110.792461 
L 996.947666 110.792461 
z
" clip-path="url(#p8a77aa4de9)" style="fill: #ff0000; opacity: 0.7"/>
   </g>
   <g id="patch_199">
    <path d="M 1002.021662 170.944148 
L 1006.080859 170.944148 
L 1006.080859 95.562699 
L 1002.021662 95.562699 
z
" clip-path="url(#p8a77aa4de9)" style="fill: #ff0000; opacity: 0.7"/>
   </g>
   <g id="patch_200">
    <path d="M 1007.095658 170.944148 
L 1011.154855 170.944148 
L 1011.154855 80.537861 
L 1007.095658 80.537861 
z
" clip-path="url(#p8a77aa4de9)" style="fill: #ff0000; opacity: 0.7"/>
   </g>
   <g id="patch_201">
    <path d="M 1012.169654 170.944148 
L 1016.22885 170.944148 
L 1016.22885 67.055301 
L 1012.169654 67.055301 
z
" clip-path="url(#p8a77aa4de9)" style="fill: #ff0000; opacity: 0.7"/>
   </g>
   <g id="patch_202">
    <path d="M 1017.24365 170.944148 
L 1021.302846 170.944148 
L 1021.302846 56.996825 
L 1017.24365 56.996825 
z
" clip-path="url(#p8a77aa4de9)" style="fill: #ff0000; opacity: 0.7"/>
   </g>
   <g id="patch_203">
    <path d="M 1022.317645 170.944148 
L 1026.376842 170.944148 
L 1026.376842 48.025034 
L 1022.317645 48.025034 
z
" clip-path="url(#p8a77aa4de9)" style="fill: #ff0000; opacity: 0.7"/>
   </g>
   <g id="patch_204">
    <path d="M 1027.391641 170.944148 
L 1031.450838 170.944148 
L 1031.450838 41.138789 
L 1027.391641 41.138789 
z
" clip-path="url(#p8a77aa4de9)" style="fill: #ff0000; opacity: 0.7"/>
   </g>
   <g id="patch_205">
    <path d="M 1032.465637 170.944148 
L 1036.524834 170.944148 
L 1036.524834 33.72249 
L 1032.465637 33.72249 
z
" clip-path="url(#p8a77aa4de9)" style="fill: #ff0000; opacity: 0.7"/>
   </g>
   <g id="patch_206">
    <path d="M 1037.539633 170.944148 
L 1041.598829 170.944148 
L 1041.598829 28.181681 
L 1037.539633 28.181681 
z
" clip-path="url(#p8a77aa4de9)" style="fill: #ff0000; opacity: 0.7"/>
   </g>
   <g id="patch_207">
    <path d="M 1042.613628 170.944148 
L 1046.672825 170.944148 
L 1046.672825 23.670225 
L 1042.613628 23.670225 
z
" clip-path="url(#p8a77aa4de9)" style="fill: #ff0000; opacity: 0.7"/>
   </g>
   <g id="patch_208">
    <path d="M 1047.687624 170.944148 
L 1051.746821 170.944148 
L 1051.746821 19.592867 
L 1047.687624 19.592867 
z
" clip-path="url(#p8a77aa4de9)" style="fill: #ff0000; opacity: 0.7"/>
   </g>
   <g id="patch_209">
    <path d="M 1052.76162 170.944148 
L 1056.820817 170.944148 
L 1056.820817 17.65194 
L 1052.76162 17.65194 
z
" clip-path="url(#p8a77aa4de9)" style="fill: #ff0000; opacity: 0.7"/>
   </g>
   <g id="patch_210">
    <path d="M 1057.835616 170.944148 
L 1061.894812 170.944148 
L 1061.894812 16.658434 
L 1057.835616 16.658434 
z
" clip-path="url(#p8a77aa4de9)" style="fill: #ff0000; opacity: 0.7"/>
   </g>
   <g id="patch_211">
    <path d="M 1062.909612 170.944148 
L 1066.968808 170.944148 
L 1066.968808 17.226252 
L 1062.909612 17.226252 
z
" clip-path="url(#p8a77aa4de9)" style="fill: #ff0000; opacity: 0.7"/>
   </g>
   <g id="patch_212">
    <path d="M 1067.983607 170.944148 
L 1072.042804 170.944148 
L 1072.042804 18.263082 
L 1067.983607 18.263082 
z
" clip-path="url(#p8a77aa4de9)" style="fill: #ff0000; opacity: 0.7"/>
   </g>
   <g id="patch_213">
    <path d="M 1073.057603 170.944148 
L 1077.1168 170.944148 
L 1077.1168 24.853863 
L 1073.057603 24.853863 
z
" clip-path="url(#p8a77aa4de9)" style="fill: #ff0000; opacity: 0.7"/>
   </g>
   <g id="patch_214">
    <path d="M 1078.131599 170.944148 
L 1082.190795 170.944148 
L 1082.190795 32.371101 
L 1078.131599 32.371101 
z
" clip-path="url(#p8a77aa4de9)" style="fill: #ff0000; opacity: 0.7"/>
   </g>
   <g id="matplotlib.axis_13">
    <g id="xtick_19">
     <g id="line2d_23">
      <g>
       <use xlink:href="#m27d830a0cc" x="978.681282" y="170.944148" style="stroke: #000000; stroke-width: 0.8"/>
      </g>
     </g>
     <g id="text_24">
      <!-- 2030 -->
      <g transform="translate(960.866282 188.58196) scale(0.14 -0.14)">
       <use xlink:href="#DejaVuSans-32"/>
       <use xlink:href="#DejaVuSans-30" x="63.623047"/>
       <use xlink:href="#DejaVuSans-33" x="127.246094"/>
       <use xlink:href="#DejaVuSans-30" x="190.869141"/>
      </g>
     </g>
    </g>
    <g id="xtick_20">
     <g id="line2d_24">
      <g>
       <use xlink:href="#m27d830a0cc" x="1029.421239" y="170.944148" style="stroke: #000000; stroke-width: 0.8"/>
      </g>
     </g>
     <g id="text_25">
      <!-- 2040 -->
      <g transform="translate(1011.606239 188.58196) scale(0.14 -0.14)">
       <use xlink:href="#DejaVuSans-32"/>
       <use xlink:href="#DejaVuSans-30" x="63.623047"/>
       <use xlink:href="#DejaVuSans-34" x="127.246094"/>
       <use xlink:href="#DejaVuSans-30" x="190.869141"/>
      </g>
     </g>
    </g>
    <g id="xtick_21">
     <g id="line2d_25">
      <g>
       <use xlink:href="#m27d830a0cc" x="1080.161197" y="170.944148" style="stroke: #000000; stroke-width: 0.8"/>
      </g>
     </g>
     <g id="text_26">
      <!-- 2050 -->
      <g transform="translate(1062.346197 188.58196) scale(0.14 -0.14)">
       <use xlink:href="#DejaVuSans-32"/>
       <use xlink:href="#DejaVuSans-30" x="63.623047"/>
       <use xlink:href="#DejaVuSans-35" x="127.246094"/>
       <use xlink:href="#DejaVuSans-30" x="190.869141"/>
      </g>
     </g>
    </g>
   </g>
   <g id="matplotlib.axis_14"/>
   <g id="patch_215">
    <path d="M 944.73625 170.944148 
L 944.73625 8.944148 
" style="fill: none; stroke: #000000; stroke-width: 0.8; stroke-linejoin: miter; stroke-linecap: square"/>
   </g>
   <g id="patch_216">
    <path d="M 1088.73625 170.944148 
L 1088.73625 8.944148 
" style="fill: none; stroke: #000000; stroke-width: 0.8; stroke-linejoin: miter; stroke-linecap: square"/>
   </g>
   <g id="patch_217">
    <path d="M 944.73625 170.944148 
L 1088.73625 170.944148 
" style="fill: none; stroke: #000000; stroke-width: 0.8; stroke-linejoin: miter; stroke-linecap: square"/>
   </g>
   <g id="patch_218">
    <path d="M 944.73625 8.944148 
L 1088.73625 8.944148 
" style="fill: none; stroke: #000000; stroke-width: 0.8; stroke-linejoin: miter; stroke-linecap: square"/>
   </g>
  </g>
  <g id="axes_8">
   <g id="patch_219">
    <path d="M 1088.73625 170.944148 
L 1232.73625 170.944148 
L 1232.73625 8.944148 
L 1088.73625 8.944148 
z
" style="fill: #ffffff"/>
   </g>
   <g id="patch_220">
    <path d="M 1095.281705 170.944148 
L 1099.340901 170.944148 
L 1099.340901 169.733541 
L 1095.281705 169.733541 
z
" clip-path="url(#p2201fd1587)" style="fill: #ff0000; opacity: 0.7"/>
   </g>
   <g id="patch_221">
    <path d="M 1100.3557 170.944148 
L 1104.414897 170.944148 
L 1104.414897 169.416589 
L 1100.3557 169.416589 
z
" clip-path="url(#p2201fd1587)" style="fill: #ff0000; opacity: 0.7"/>
   </g>
   <g id="patch_222">
    <path d="M 1105.429696 170.944148 
L 1109.488893 170.944148 
L 1109.488893 169.13007 
L 1105.429696 169.13007 
z
" clip-path="url(#p2201fd1587)" style="fill: #ff0000; opacity: 0.7"/>
   </g>
   <g id="patch_223">
    <path d="M 1110.503692 170.944148 
L 1114.562888 170.944148 
L 1114.562888 168.893989 
L 1110.503692 168.893989 
z
" clip-path="url(#p2201fd1587)" style="fill: #ff0000; opacity: 0.7"/>
   </g>
   <g id="patch_224">
    <path d="M 1115.577688 170.944148 
L 1119.636884 170.944148 
L 1119.636884 168.569626 
L 1115.577688 168.569626 
z
" clip-path="url(#p2201fd1587)" style="fill: #ff0000; opacity: 0.7"/>
   </g>
   <g id="patch_225">
    <path d="M 1120.651683 170.944148 
L 1124.71088 170.944148 
L 1124.71088 168.270803 
L 1120.651683 168.270803 
z
" clip-path="url(#p2201fd1587)" style="fill: #ff0000; opacity: 0.7"/>
   </g>
   <g id="patch_226">
    <path d="M 1125.725679 170.944148 
L 1129.784876 170.944148 
L 1129.784876 168.044647 
L 1125.725679 168.044647 
z
" clip-path="url(#p2201fd1587)" style="fill: #ff0000; opacity: 0.7"/>
   </g>
   <g id="patch_227">
    <path d="M 1130.799675 170.944148 
L 1134.858872 170.944148 
L 1134.858872 167.951903 
L 1130.799675 167.951903 
z
" clip-path="url(#p2201fd1587)" style="fill: #ff0000; opacity: 0.7"/>
   </g>
   <g id="patch_228">
    <path d="M 1135.873671 170.944148 
L 1139.932867 170.944148 
L 1139.932867 167.588981 
L 1135.873671 167.588981 
z
" clip-path="url(#p2201fd1587)" style="fill: #ff0000; opacity: 0.7"/>
   </g>
   <g id="patch_229">
    <path d="M 1140.947666 170.944148 
L 1145.006863 170.944148 
L 1145.006863 167.284702 
L 1140.947666 167.284702 
z
" clip-path="url(#p2201fd1587)" style="fill: #ff0000; opacity: 0.7"/>
   </g>
   <g id="patch_230">
    <path d="M 1146.021662 170.944148 
L 1150.080859 170.944148 
L 1150.080859 166.975232 
L 1146.021662 166.975232 
z
" clip-path="url(#p2201fd1587)" style="fill: #ff0000; opacity: 0.7"/>
   </g>
   <g id="patch_231">
    <path d="M 1151.095658 170.944148 
L 1155.154855 170.944148 
L 1155.154855 166.737024 
L 1151.095658 166.737024 
z
" clip-path="url(#p2201fd1587)" style="fill: #ff0000; opacity: 0.7"/>
   </g>
   <g id="patch_232">
    <path d="M 1156.169654 170.944148 
L 1160.22885 170.944148 
L 1160.22885 166.018438 
L 1156.169654 166.018438 
z
" clip-path="url(#p2201fd1587)" style="fill: #ff0000; opacity: 0.7"/>
   </g>
   <g id="patch_233">
    <path d="M 1161.24365 170.944148 
L 1165.302846 170.944148 
L 1165.302846 165.327722 
L 1161.24365 165.327722 
z
" clip-path="url(#p2201fd1587)" style="fill: #ff0000; opacity: 0.7"/>
   </g>
   <g id="patch_234">
    <path d="M 1166.317645 170.944148 
L 1170.376842 170.944148 
L 1170.376842 164.433895 
L 1166.317645 164.433895 
z
" clip-path="url(#p2201fd1587)" style="fill: #ff0000; opacity: 0.7"/>
   </g>
   <g id="patch_235">
    <path d="M 1171.391641 170.944148 
L 1175.450838 170.944148 
L 1175.450838 162.906184 
L 1171.391641 162.906184 
z
" clip-path="url(#p2201fd1587)" style="fill: #ff0000; opacity: 0.7"/>
   </g>
   <g id="patch_236">
    <path d="M 1176.465637 170.944148 
L 1180.524834 170.944148 
L 1180.524834 161.106487 
L 1176.465637 161.106487 
z
" clip-path="url(#p2201fd1587)" style="fill: #ff0000; opacity: 0.7"/>
   </g>
   <g id="patch_237">
    <path d="M 1181.539633 170.944148 
L 1185.598829 170.944148 
L 1185.598829 158.518344 
L 1181.539633 158.518344 
z
" clip-path="url(#p2201fd1587)" style="fill: #ff0000; opacity: 0.7"/>
   </g>
   <g id="patch_238">
    <path d="M 1186.613628 170.944148 
L 1190.672825 170.944148 
L 1190.672825 154.562981 
L 1186.613628 154.562981 
z
" clip-path="url(#p2201fd1587)" style="fill: #ff0000; opacity: 0.7"/>
   </g>
   <g id="patch_239">
    <path d="M 1191.687624 170.944148 
L 1195.746821 170.944148 
L 1195.746821 148.257206 
L 1191.687624 148.257206 
z
" clip-path="url(#p2201fd1587)" style="fill: #ff0000; opacity: 0.7"/>
   </g>
   <g id="patch_240">
    <path d="M 1196.76162 170.944148 
L 1200.820817 170.944148 
L 1200.820817 141.052535 
L 1196.76162 141.052535 
z
" clip-path="url(#p2201fd1587)" style="fill: #ff0000; opacity: 0.7"/>
   </g>
   <g id="patch_241">
    <path d="M 1201.835616 170.944148 
L 1205.894812 170.944148 
L 1205.894812 129.618004 
L 1201.835616 129.618004 
z
" clip-path="url(#p2201fd1587)" style="fill: #ff0000; opacity: 0.7"/>
   </g>
   <g id="patch_242">
    <path d="M 1206.909612 170.944148 
L 1210.968808 170.944148 
L 1210.968808 112.990039 
L 1206.909612 112.990039 
z
" clip-path="url(#p2201fd1587)" style="fill: #ff0000; opacity: 0.7"/>
   </g>
   <g id="patch_243">
    <path d="M 1211.983607 170.944148 
L 1216.042804 170.944148 
L 1216.042804 89.112237 
L 1211.983607 89.112237 
z
" clip-path="url(#p2201fd1587)" style="fill: #ff0000; opacity: 0.7"/>
   </g>
   <g id="patch_244">
    <path d="M 1217.057603 170.944148 
L 1221.1168 170.944148 
L 1221.1168 59.538541 
L 1217.057603 59.538541 
z
" clip-path="url(#p2201fd1587)" style="fill: #ff0000; opacity: 0.7"/>
   </g>
   <g id="patch_245">
    <path d="M 1222.131599 170.944148 
L 1226.190795 170.944148 
L 1226.190795 16.658434 
L 1222.131599 16.658434 
z
" clip-path="url(#p2201fd1587)" style="fill: #ff0000; opacity: 0.7"/>
   </g>
   <g id="matplotlib.axis_15">
    <g id="xtick_22">
     <g id="line2d_26">
      <g>
       <use xlink:href="#m27d830a0cc" x="1122.681282" y="170.944148" style="stroke: #000000; stroke-width: 0.8"/>
      </g>
     </g>
     <g id="text_27">
      <!-- 2030 -->
      <g transform="translate(1104.866282 188.58196) scale(0.14 -0.14)">
       <use xlink:href="#DejaVuSans-32"/>
       <use xlink:href="#DejaVuSans-30" x="63.623047"/>
       <use xlink:href="#DejaVuSans-33" x="127.246094"/>
       <use xlink:href="#DejaVuSans-30" x="190.869141"/>
      </g>
     </g>
    </g>
    <g id="xtick_23">
     <g id="line2d_27">
      <g>
       <use xlink:href="#m27d830a0cc" x="1173.421239" y="170.944148" style="stroke: #000000; stroke-width: 0.8"/>
      </g>
     </g>
     <g id="text_28">
      <!-- 2040 -->
      <g transform="translate(1155.606239 188.58196) scale(0.14 -0.14)">
       <use xlink:href="#DejaVuSans-32"/>
       <use xlink:href="#DejaVuSans-30" x="63.623047"/>
       <use xlink:href="#DejaVuSans-34" x="127.246094"/>
       <use xlink:href="#DejaVuSans-30" x="190.869141"/>
      </g>
     </g>
    </g>
    <g id="xtick_24">
     <g id="line2d_28">
      <g>
       <use xlink:href="#m27d830a0cc" x="1224.161197" y="170.944148" style="stroke: #000000; stroke-width: 0.8"/>
      </g>
     </g>
     <g id="text_29">
      <!-- 2050 -->
      <g transform="translate(1206.346197 188.58196) scale(0.14 -0.14)">
       <use xlink:href="#DejaVuSans-32"/>
       <use xlink:href="#DejaVuSans-30" x="63.623047"/>
       <use xlink:href="#DejaVuSans-35" x="127.246094"/>
       <use xlink:href="#DejaVuSans-30" x="190.869141"/>
      </g>
     </g>
    </g>
   </g>
   <g id="matplotlib.axis_16"/>
   <g id="patch_246">
    <path d="M 1088.73625 170.944148 
L 1088.73625 8.944148 
" style="fill: none; stroke: #000000; stroke-width: 0.8; stroke-linejoin: miter; stroke-linecap: square"/>
   </g>
   <g id="patch_247">
    <path d="M 1232.73625 170.944148 
L 1232.73625 8.944148 
" style="fill: none; stroke: #000000; stroke-width: 0.8; stroke-linejoin: miter; stroke-linecap: square"/>
   </g>
   <g id="patch_248">
    <path d="M 1088.73625 170.944148 
L 1232.73625 170.944148 
" style="fill: none; stroke: #000000; stroke-width: 0.8; stroke-linejoin: miter; stroke-linecap: square"/>
   </g>
   <g id="patch_249">
    <path d="M 1088.73625 8.944148 
L 1232.73625 8.944148 
" style="fill: none; stroke: #000000; stroke-width: 0.8; stroke-linejoin: miter; stroke-linecap: square"/>
   </g>
  </g>
  <g id="legend_1">
   <g id="patch_250">
    <path d="M 1297.200625 102.658011 
L 1321.200625 102.658011 
L 1321.200625 94.258011 
L 1297.200625 94.258011 
z
" style="fill: #ff0000; opacity: 0.7"/>
   </g>
   <g id="text_30">
    <!-- Battery Discharge -->
    <g transform="translate(1330.800625 102.658011) scale(0.12 -0.12)">
     <defs>
      <path id="DejaVuSans-42" d="M 1259 2228 
L 1259 519 
L 2272 519 
Q 2781 519 3026 730 
Q 3272 941 3272 1375 
Q 3272 1813 3026 2020 
Q 2781 2228 2272 2228 
L 1259 2228 
z
M 1259 4147 
L 1259 2741 
L 2194 2741 
Q 2656 2741 2882 2914 
Q 3109 3088 3109 3444 
Q 3109 3797 2882 3972 
Q 2656 4147 2194 4147 
L 1259 4147 
z
M 628 4666 
L 2241 4666 
Q 2963 4666 3353 4366 
Q 3744 4066 3744 3513 
Q 3744 3084 3544 2831 
Q 3344 2578 2956 2516 
Q 3422 2416 3680 2098 
Q 3938 1781 3938 1306 
Q 3938 681 3513 340 
Q 3088 0 2303 0 
L 628 0 
L 628 4666 
z
" transform="scale(0.015625)"/>
      <path id="DejaVuSans-74" d="M 1172 4494 
L 1172 3500 
L 2356 3500 
L 2356 3053 
L 1172 3053 
L 1172 1153 
Q 1172 725 1289 603 
Q 1406 481 1766 481 
L 2356 481 
L 2356 0 
L 1766 0 
Q 1100 0 847 248 
Q 594 497 594 1153 
L 594 3053 
L 172 3053 
L 172 3500 
L 594 3500 
L 594 4494 
L 1172 4494 
z
" transform="scale(0.015625)"/>
      <path id="DejaVuSans-79" d="M 2059 -325 
Q 1816 -950 1584 -1140 
Q 1353 -1331 966 -1331 
L 506 -1331 
L 506 -850 
L 844 -850 
Q 1081 -850 1212 -737 
Q 1344 -625 1503 -206 
L 1606 56 
L 191 3500 
L 800 3500 
L 1894 763 
L 2988 3500 
L 3597 3500 
L 2059 -325 
z
" transform="scale(0.015625)"/>
     </defs>
     <use xlink:href="#DejaVuSans-42"/>
     <use xlink:href="#DejaVuSans-61" x="68.603516"/>
     <use xlink:href="#DejaVuSans-74" x="129.882812"/>
     <use xlink:href="#DejaVuSans-74" x="169.091797"/>
     <use xlink:href="#DejaVuSans-65" x="208.300781"/>
     <use xlink:href="#DejaVuSans-72" x="269.824219"/>
     <use xlink:href="#DejaVuSans-79" x="310.9375"/>
     <use xlink:href="#DejaVuSans-20" x="370.117188"/>
     <use xlink:href="#DejaVuSans-44" x="401.904297"/>
     <use xlink:href="#DejaVuSans-69" x="478.90625"/>
     <use xlink:href="#DejaVuSans-73" x="506.689453"/>
     <use xlink:href="#DejaVuSans-63" x="558.789062"/>
     <use xlink:href="#DejaVuSans-68" x="613.769531"/>
     <use xlink:href="#DejaVuSans-61" x="677.148438"/>
     <use xlink:href="#DejaVuSans-72" x="738.427734"/>
     <use xlink:href="#DejaVuSans-67" x="777.791016"/>
     <use xlink:href="#DejaVuSans-65" x="841.267578"/>
    </g>
   </g>
  </g>
 </g>
 <defs>
  <clipPath id="p49dcc3b5e6">
   <rect x="80.73625" y="8.944148" width="144" height="162"/>
  </clipPath>
  <clipPath id="pe8fe971de4">
   <rect x="224.73625" y="8.944148" width="144" height="162"/>
  </clipPath>
  <clipPath id="p3f93b4c3fe">
   <rect x="368.73625" y="8.944148" width="144" height="162"/>
  </clipPath>
  <clipPath id="pc4ebeb8584">
   <rect x="512.73625" y="8.944148" width="144" height="162"/>
  </clipPath>
  <clipPath id="p0bd75f0602">
   <rect x="656.73625" y="8.944148" width="144" height="162"/>
  </clipPath>
  <clipPath id="pf8bedf9856">
   <rect x="800.73625" y="8.944148" width="144" height="162"/>
  </clipPath>
  <clipPath id="p8a77aa4de9">
   <rect x="944.73625" y="8.944148" width="144" height="162"/>
  </clipPath>
  <clipPath id="p2201fd1587">
   <rect x="1088.73625" y="8.944148" width="144" height="162"/>
  </clipPath>
 </defs>
</svg>
