<?xml version="1.0" encoding="utf-8" standalone="no"?>
<!DOCTYPE svg PUBLIC "-//W3C//DTD SVG 1.1//EN"
  "http://www.w3.org/Graphics/SVG/1.1/DTD/svg11.dtd">
<svg xmlns:xlink="http://www.w3.org/1999/xlink" width="565.087375pt" height="424.237344pt" viewBox="0 0 565.087375 424.237344" xmlns="http://www.w3.org/2000/svg" version="1.1">
 <metadata>
  <rdf:RDF xmlns:dc="http://purl.org/dc/elements/1.1/" xmlns:cc="http://creativecommons.org/ns#" xmlns:rdf="http://www.w3.org/1999/02/22-rdf-syntax-ns#">
   <cc:Work>
    <dc:type rdf:resource="http://purl.org/dc/dcmitype/StillImage"/>
    <dc:date>2025-04-25T18:14:03.423899</dc:date>
    <dc:format>image/svg+xml</dc:format>
    <dc:creator>
     <cc:Agent>
      <dc:title>Matplotlib v3.9.2, https://matplotlib.org/</dc:title>
     </cc:Agent>
    </dc:creator>
   </cc:Work>
  </rdf:RDF>
 </metadata>
 <defs>
  <style type="text/css">*{stroke-linejoin: round; stroke-linecap: butt}</style>
 </defs>
 <g id="figure_1">
  <g id="patch_1">
   <path d="M 0 424.237344 
L 565.087375 424.237344 
L 565.087375 0 
L 0 0 
z
" style="fill: #ffffff"/>
  </g>
  <g id="axes_1">
   <g id="patch_2">
    <path d="M 26.925 400.359219 
L 397.785 400.359219 
L 397.785 10.999219 
L 26.925 10.999219 
z
" style="fill: #ffffff"/>
   </g>
   <g id="patch_3">
    <path d="M 26.925 400.359219 
L 397.785 400.359219 
L 397.785 205.679219 
L 26.925 205.679219 
z
" clip-path="url(#p188d0b6a68)" style="fill: #f9e8d4; opacity: 0.5; stroke: #f9e8d4; stroke-linejoin: miter"/>
   </g>
   <g id="PathCollection_1">
    <path d="M 46.016532 321.37721 
C 48.424041 321.37721 50.733269 320.420696 52.435635 318.71833 
C 54.138001 317.015964 55.094514 314.706736 55.094514 312.299227 
C 55.094514 309.891718 54.138001 307.58249 52.435635 305.880124 
C 50.733269 304.177758 48.424041 303.221244 46.016532 303.221244 
C 43.609023 303.221244 41.299795 304.177758 39.597429 305.880124 
C 37.895063 307.58249 36.938549 309.891718 36.938549 312.299227 
C 36.938549 314.706736 37.895063 317.015964 39.597429 318.71833 
C 41.299795 320.420696 43.609023 321.37721 46.016532 321.37721 
z
" clip-path="url(#p188d0b6a68)" style="fill: #189ab4; stroke: #4c5270; stroke-width: 0.5"/>
    <path d="M 46.660769 307.539892 
C 49.035255 307.539892 51.312808 306.596498 52.991823 304.917483 
C 54.670839 303.238468 55.614232 300.960915 55.614232 298.586429 
C 55.614232 296.211942 54.670839 293.934389 52.991823 292.255374 
C 51.312808 290.576359 49.035255 289.632965 46.660769 289.632965 
C 44.286283 289.632965 42.00873 290.576359 40.329714 292.255374 
C 38.650699 293.934389 37.707306 296.211942 37.707306 298.586429 
C 37.707306 300.960915 38.650699 303.238468 40.329714 304.917483 
C 42.00873 306.596498 44.286283 307.539892 46.660769 307.539892 
z
" clip-path="url(#p188d0b6a68)" style="fill: #189ab4; stroke: #4c5270; stroke-width: 0.5"/>
    <path d="M 46.985519 292.315131 
C 49.318836 292.315131 51.5569 291.388094 53.206805 289.73819 
C 54.856709 288.088286 55.783746 285.850221 55.783746 283.516904 
C 55.783746 281.183587 54.856709 278.945523 53.206805 277.295619 
C 51.5569 275.645714 49.318836 274.718678 46.985519 274.718678 
C 44.652202 274.718678 42.414137 275.645714 40.764233 277.295619 
C 39.114329 278.945523 38.187292 281.183587 38.187292 283.516904 
C 38.187292 285.850221 39.114329 288.088286 40.764233 289.73819 
C 42.414137 291.388094 44.652202 292.315131 46.985519 292.315131 
z
" clip-path="url(#p188d0b6a68)" style="fill: #189ab4; stroke: #4c5270; stroke-width: 0.5"/>
    <path d="M 48.032219 278.107293 
C 50.332455 278.107293 52.53879 277.1934 54.165302 275.566887 
C 55.791815 273.940375 56.705708 271.73404 56.705708 269.433804 
C 56.705708 267.133568 55.791815 264.927234 54.165302 263.300721 
C 52.53879 261.674208 50.332455 260.760315 48.032219 260.760315 
C 45.731983 260.760315 43.525649 261.674208 41.899136 263.300721 
C 40.272623 264.927234 39.35873 267.133568 39.35873 269.433804 
C 39.35873 271.73404 40.272623 273.940375 41.899136 275.566887 
C 43.525649 277.1934 45.731983 278.107293 48.032219 278.107293 
z
" clip-path="url(#p188d0b6a68)" style="fill: #189ab4; stroke: #4c5270; stroke-width: 0.5"/>
    <path d="M 48.149681 263.160769 
C 50.409805 263.160769 52.577664 262.262812 54.175812 260.664663 
C 55.773961 259.066515 56.671918 256.898656 56.671918 254.638532 
C 56.671918 252.378409 55.773961 250.21055 54.175812 248.612401 
C 52.577664 247.014252 50.409805 246.116296 48.149681 246.116296 
C 45.889557 246.116296 43.721698 247.014252 42.12355 248.612401 
C 40.525401 250.21055 39.627445 252.378409 39.627445 254.638532 
C 39.627445 256.898656 40.525401 259.066515 42.12355 260.664663 
C 43.721698 262.262812 45.889557 263.160769 48.149681 263.160769 
z
" clip-path="url(#p188d0b6a68)" style="fill: #189ab4; stroke: #4c5270; stroke-width: 0.5"/>
    <path d="M 49.403614 246.440935 
C 51.572076 246.440935 53.652015 245.579396 55.18535 244.046061 
C 56.718684 242.512727 57.580223 240.432788 57.580223 238.264326 
C 57.580223 236.095863 56.718684 234.015924 55.18535 232.48259 
C 53.652015 230.949255 51.572076 230.087716 49.403614 230.087716 
C 47.235152 230.087716 45.155212 230.949255 43.621878 232.48259 
C 42.088544 234.015924 41.227004 236.095863 41.227004 238.264326 
C 41.227004 240.432788 42.088544 242.512727 43.621878 244.046061 
C 45.155212 245.579396 47.235152 246.440935 49.403614 246.440935 
z
" clip-path="url(#p188d0b6a68)" style="fill: #189ab4; stroke: #4c5270; stroke-width: 0.5"/>
    <path d="M 74.125034 229.961528 
C 76.095501 229.961528 77.985529 229.178653 79.37886 227.785322 
C 80.772191 226.391991 81.555066 224.501964 81.555066 222.531496 
C 81.555066 220.561029 80.772191 218.671001 79.37886 217.27767 
C 77.985529 215.884339 76.095501 215.101464 74.125034 215.101464 
C 72.154566 215.101464 70.264539 215.884339 68.871208 217.27767 
C 67.477877 218.671001 66.695002 220.561029 66.695002 222.531496 
C 66.695002 224.501964 67.477877 226.391991 68.871208 227.785322 
C 70.264539 229.178653 72.154566 229.961528 74.125034 229.961528 
z
" clip-path="url(#p188d0b6a68)" style="fill: #189ab4; stroke: #4c5270; stroke-width: 0.5"/>
    <path d="M 81.251934 215.961539 
C 83.192169 215.961539 85.053198 215.190675 86.425152 213.818722 
C 87.797105 212.446768 88.567969 210.585739 88.567969 208.645504 
C 88.567969 206.705269 87.797105 204.84424 86.425152 203.472286 
C 85.053198 202.100333 83.192169 201.329469 81.251934 201.329469 
C 79.311699 201.329469 77.450669 202.100333 76.078716 203.472286 
C 74.706762 204.84424 73.935899 206.705269 73.935899 208.645504 
C 73.935899 210.585739 74.706762 212.446768 76.078716 213.818722 
C 77.450669 215.190675 79.311699 215.961539 81.251934 215.961539 
z
" clip-path="url(#p188d0b6a68)" style="fill: #189ab4; stroke: #4c5270; stroke-width: 0.5"/>
    <path d="M 93.618631 202.417161 
C 95.515958 202.417161 97.335831 201.663345 98.677444 200.321732 
C 100.019056 198.98012 100.772872 197.160247 100.772872 195.26292 
C 100.772872 193.365593 100.019056 191.545721 98.677444 190.204108 
C 97.335831 188.862495 95.515958 188.108679 93.618631 188.108679 
C 91.721305 188.108679 89.901432 188.862495 88.559819 190.204108 
C 87.218207 191.545721 86.464391 193.365593 86.464391 195.26292 
C 86.464391 197.160247 87.218207 198.98012 88.559819 200.321732 
C 89.901432 201.663345 91.721305 202.417161 93.618631 202.417161 
z
" clip-path="url(#p188d0b6a68)" style="fill: #189ab4; stroke: #4c5270; stroke-width: 0.5"/>
    <path d="M 104.916072 188.276297 
C 106.76945 188.276297 108.547167 187.539943 109.857703 186.229407 
C 111.168239 184.918871 111.904594 183.141153 111.904594 181.287775 
C 111.904594 179.434397 111.168239 177.656679 109.857703 176.346143 
C 108.547167 175.035607 106.76945 174.299252 104.916072 174.299252 
C 103.062694 174.299252 101.284976 175.035607 99.97444 176.346143 
C 98.663904 177.656679 97.927549 179.434397 97.927549 181.287775 
C 97.927549 183.141153 98.663904 184.918871 99.97444 186.229407 
C 101.284976 187.539943 103.062694 188.276297 104.916072 188.276297 
z
" clip-path="url(#p188d0b6a68)" style="fill: #189ab4; stroke: #4c5270; stroke-width: 0.5"/>
    <path d="M 123.528508 174.812389 
C 125.323875 174.812389 127.04595 174.099082 128.315467 172.829566 
C 129.584983 171.560049 130.29829 169.837974 130.29829 168.042606 
C 130.29829 166.247239 129.584983 164.525163 128.315467 163.255647 
C 127.04595 161.98613 125.323875 161.272823 123.528508 161.272823 
C 121.73314 161.272823 120.011065 161.98613 118.741548 163.255647 
C 117.472032 164.525163 116.758725 166.247239 116.758725 168.042606 
C 116.758725 169.837974 117.472032 171.560049 118.741548 172.829566 
C 120.011065 174.099082 121.73314 174.812389 123.528508 174.812389 
z
" clip-path="url(#p188d0b6a68)" style="fill: #189ab4; stroke: #4c5270; stroke-width: 0.5"/>
    <path d="M 135.649305 163.419273 
C 137.422514 163.419273 139.123336 162.714769 140.377185 161.460921 
C 141.631033 160.207072 142.335537 158.50625 142.335537 156.733041 
C 142.335537 154.959831 141.631033 153.259009 140.377185 152.005161 
C 139.123336 150.751312 137.422514 150.046808 135.649305 150.046808 
C 133.876095 150.046808 132.175273 150.751312 130.921424 152.005161 
C 129.667576 153.259009 128.963072 154.959831 128.963072 156.733041 
C 128.963072 158.50625 129.667576 160.207072 130.921424 161.460921 
C 132.175273 162.714769 133.876095 163.419273 135.649305 163.419273 
z
" clip-path="url(#p188d0b6a68)" style="fill: #189ab4; stroke: #4c5270; stroke-width: 0.5"/>
    <path d="M 155.376554 151.65912 
C 157.093682 151.65912 158.740711 150.976898 159.954904 149.762705 
C 161.169097 148.548512 161.851319 146.901483 161.851319 145.184355 
C 161.851319 143.467227 161.169097 141.820197 159.954904 140.606004 
C 158.740711 139.391811 157.093682 138.709589 155.376554 138.709589 
C 153.659426 138.709589 152.012396 139.391811 150.798203 140.606004 
C 149.58401 141.820197 148.901788 143.467227 148.901788 145.184355 
C 148.901788 146.901483 149.58401 148.548512 150.798203 149.762705 
C 152.012396 150.976898 153.659426 151.65912 155.376554 151.65912 
z
" clip-path="url(#p188d0b6a68)" style="fill: #189ab4; stroke: #4c5270; stroke-width: 0.5"/>
    <path d="M 166.771867 139.927417 
C 168.445087 139.927417 170.050001 139.26264 171.233147 138.079495 
C 172.416292 136.89635 173.081069 135.291435 173.081069 133.618215 
C 173.081069 131.944995 172.416292 130.340081 171.233147 129.156936 
C 170.050001 127.973791 168.445087 127.309014 166.771867 127.309014 
C 165.098647 127.309014 163.493733 127.973791 162.310588 129.156936 
C 161.127443 130.340081 160.462665 131.944995 160.462665 133.618215 
C 160.462665 135.291435 161.127443 136.89635 162.310588 138.079495 
C 163.493733 139.26264 165.098647 139.927417 166.771867 139.927417 
z
" clip-path="url(#p188d0b6a68)" style="fill: #189ab4; stroke: #4c5270; stroke-width: 0.5"/>
    <path d="M 178.205848 129.87551 
C 179.838923 129.87551 181.405332 129.226683 182.560091 128.071924 
C 183.714849 126.917165 184.363677 125.350757 184.363677 123.717681 
C 184.363677 122.084606 183.714849 120.518197 182.560091 119.363439 
C 181.405332 118.20868 179.838923 117.559852 178.205848 117.559852 
C 176.572772 117.559852 175.006364 118.20868 173.851605 119.363439 
C 172.696846 120.518197 172.048019 122.084606 172.048019 123.717681 
C 172.048019 125.350757 172.696846 126.917165 173.851605 128.071924 
C 175.006364 129.226683 176.572772 129.87551 178.205848 129.87551 
z
" clip-path="url(#p188d0b6a68)" style="fill: #189ab4; stroke: #4c5270; stroke-width: 0.5"/>
    <path d="M 187.674995 120.120693 
C 189.276919 120.120693 190.813448 119.484241 191.94618 118.35151 
C 193.078911 117.218778 193.715363 115.682249 193.715363 114.080325 
C 193.715363 112.4784 193.078911 110.941871 191.94618 109.80914 
C 190.813448 108.676408 189.276919 108.039957 187.674995 108.039957 
C 186.07307 108.039957 184.536541 108.676408 183.40381 109.80914 
C 182.271078 110.941871 181.634627 112.4784 181.634627 114.080325 
C 181.634627 115.682249 182.271078 117.218778 183.40381 118.35151 
C 184.536541 119.484241 186.07307 120.120693 187.674995 120.120693 
z
" clip-path="url(#p188d0b6a68)" style="fill: #189ab4; stroke: #4c5270; stroke-width: 0.5"/>
    <path d="M 202.830062 112.374891 
C 204.351903 112.374891 205.811619 111.770257 206.887723 110.694153 
C 207.963827 109.618048 208.568461 108.158333 208.568461 106.636492 
C 208.568461 105.11465 207.963827 103.654935 206.887723 102.57883 
C 205.811619 101.502726 204.351903 100.898092 202.830062 100.898092 
C 201.30822 100.898092 199.848505 101.502726 198.7724 102.57883 
C 197.696296 103.654935 197.091662 105.11465 197.091662 106.636492 
C 197.091662 108.158333 197.696296 109.618048 198.7724 110.694153 
C 199.848505 111.770257 201.30822 112.374891 202.830062 112.374891 
z
" clip-path="url(#p188d0b6a68)" style="fill: #189ab4; stroke: #4c5270; stroke-width: 0.5"/>
    <path d="M 205.293094 102.092561 
C 206.76041 102.092561 208.167827 101.50959 209.205376 100.472041 
C 210.242925 99.434491 210.825896 98.027075 210.825896 96.559759 
C 210.825896 95.092443 210.242925 93.685026 209.205376 92.647477 
C 208.167827 91.609928 206.76041 91.026957 205.293094 91.026957 
C 203.825778 91.026957 202.418362 91.609928 201.380812 92.647477 
C 200.343263 93.685026 199.760292 95.092443 199.760292 96.559759 
C 199.760292 98.027075 200.343263 99.434491 201.380812 100.472041 
C 202.418362 101.50959 203.825778 102.092561 205.293094 102.092561 
z
" clip-path="url(#p188d0b6a68)" style="fill: #189ab4; stroke: #4c5270; stroke-width: 0.5"/>
    <path d="M 219.308897 94.951862 
C 220.745271 94.951862 222.123009 94.381185 223.138678 93.365515 
C 224.154348 92.349845 224.725026 90.972108 224.725026 89.535733 
C 224.725026 88.099359 224.154348 86.721622 223.138678 85.705952 
C 222.123009 84.690282 220.745271 84.119605 219.308897 84.119605 
C 217.872523 84.119605 216.494786 84.690282 215.479116 85.705952 
C 214.463446 86.721622 213.892768 88.099359 213.892768 89.535733 
C 213.892768 90.972108 214.463446 92.349845 215.479116 93.365515 
C 216.494786 94.381185 217.872523 94.951862 219.308897 94.951862 
z
" clip-path="url(#p188d0b6a68)" style="fill: #189ab4; stroke: #4c5270; stroke-width: 0.5"/>
    <path d="M 223.865114 85.144754 
C 225.24095 85.144754 226.560621 84.598129 227.533484 83.625266 
C 228.506347 82.652402 229.052973 81.332732 229.052973 79.956896 
C 229.052973 78.581059 228.506347 77.261389 227.533484 76.288526 
C 226.560621 75.315662 225.24095 74.769037 223.865114 74.769037 
C 222.489278 74.769037 221.169607 75.315662 220.196744 76.288526 
C 219.223881 77.261389 218.677255 78.581059 218.677255 79.956896 
C 218.677255 81.332732 219.223881 82.652402 220.196744 83.625266 
C 221.169607 84.598129 222.489278 85.144754 223.865114 85.144754 
z
" clip-path="url(#p188d0b6a68)" style="fill: #189ab4; stroke: #4c5270; stroke-width: 0.5"/>
    <path d="M 218.683429 78.281494 
C 220.011921 78.281494 221.286179 77.753679 222.225565 76.814294 
C 223.16495 75.874909 223.692765 74.60065 223.692765 73.272159 
C 223.692765 71.943667 223.16495 70.669409 222.225565 69.730024 
C 221.286179 68.790638 220.011921 68.262823 218.683429 68.262823 
C 217.354938 68.262823 216.080679 68.790638 215.141294 69.730024 
C 214.201909 70.669409 213.674094 71.943667 213.674094 73.272159 
C 213.674094 74.60065 214.201909 75.874909 215.141294 76.814294 
C 216.080679 77.753679 217.354938 78.281494 218.683429 78.281494 
z
" clip-path="url(#p188d0b6a68)" style="fill: #189ab4; stroke: #4c5270; stroke-width: 0.5"/>
    <path d="M 228.216777 69.346795 
C 229.460348 69.346795 230.653153 68.852719 231.532491 67.973381 
C 232.411828 67.094043 232.905904 65.901238 232.905904 64.657667 
C 232.905904 63.414096 232.411828 62.221291 231.532491 61.341953 
C 230.653153 60.462616 229.460348 59.968539 228.216777 59.968539 
C 226.973206 59.968539 225.780401 60.462616 224.901063 61.341953 
C 224.021725 62.221291 223.527649 63.414096 223.527649 64.657667 
C 223.527649 65.901238 224.021725 67.094043 224.901063 67.973381 
C 225.780401 68.852719 226.973206 69.346795 228.216777 69.346795 
z
" clip-path="url(#p188d0b6a68)" style="fill: #189ab4; stroke: #4c5270; stroke-width: 0.5"/>
    <path d="M 226.819661 63.708736 
C 228.035714 63.708736 229.202124 63.225593 230.062004 62.365714 
C 230.921883 61.505834 231.405026 60.339423 231.405026 59.12337 
C 231.405026 57.907317 230.921883 56.740906 230.062004 55.881027 
C 229.202124 55.021147 228.035714 54.538004 226.819661 54.538004 
C 225.603607 54.538004 224.437197 55.021147 223.577317 55.881027 
C 222.717438 56.740906 222.234295 57.907317 222.234295 59.12337 
C 222.234295 60.339423 222.717438 61.505834 223.577317 62.365714 
C 224.437197 63.225593 225.603607 63.708736 226.819661 63.708736 
z
" clip-path="url(#p188d0b6a68)" style="fill: #189ab4; stroke: #4c5270; stroke-width: 0.5"/>
    <path d="M 226.261046 55.11553 
C 227.380687 55.11553 228.454621 54.670692 229.246327 53.878986 
C 230.038033 53.08728 230.482871 52.013346 230.482871 50.893705 
C 230.482871 49.774064 230.038033 48.70013 229.246327 47.908424 
C 228.454621 47.116718 227.380687 46.67188 226.261046 46.67188 
C 225.141405 46.67188 224.067471 47.116718 223.275765 47.908424 
C 222.484059 48.70013 222.039221 49.774064 222.039221 50.893705 
C 222.039221 52.013346 222.484059 53.08728 223.275765 53.878986 
C 224.067471 54.670692 225.141405 55.11553 226.261046 55.11553 
z
" clip-path="url(#p188d0b6a68)" style="fill: #189ab4; stroke: #4c5270; stroke-width: 0.5"/>
    <path d="M 225.160699 50.394228 
C 226.266491 50.394228 227.327142 49.954893 228.109055 49.172979 
C 228.890968 48.391066 229.330304 47.330415 229.330304 46.224623 
C 229.330304 45.118831 228.890968 44.05818 228.109055 43.276267 
C 227.327142 42.494354 226.266491 42.055018 225.160699 42.055018 
C 224.054907 42.055018 222.994256 42.494354 222.212343 43.276267 
C 221.43043 44.05818 220.991094 45.118831 220.991094 46.224623 
C 220.991094 47.330415 221.43043 48.391066 222.212343 49.172979 
C 222.994256 49.954893 224.054907 50.394228 225.160699 50.394228 
z
" clip-path="url(#p188d0b6a68)" style="fill: #189ab4; stroke: #4c5270; stroke-width: 0.5"/>
    <path d="M 225.770842 42.523346 
C 226.765346 42.523346 227.719252 42.128225 228.422473 41.425004 
C 229.125694 40.721784 229.520815 39.767877 229.520815 38.773373 
C 229.520815 37.778868 229.125694 36.824962 228.422473 36.121741 
C 227.719252 35.41852 226.765346 35.023399 225.770842 35.023399 
C 224.776337 35.023399 223.822431 35.41852 223.11921 36.121741 
C 222.415989 36.824962 222.020868 37.778868 222.020868 38.773373 
C 222.020868 39.767877 222.415989 40.721784 223.11921 41.425004 
C 223.822431 42.128225 224.776337 42.523346 225.770842 42.523346 
z
" clip-path="url(#p188d0b6a68)" style="fill: #189ab4; stroke: #4c5270; stroke-width: 0.5"/>
   </g>
   <g id="PathCollection_2">
    <path d="M 46.321654 327.558479 
C 48.761315 327.558479 51.101383 326.589191 52.826484 324.86409 
C 54.551585 323.138989 55.520873 320.798922 55.520873 318.35926 
C 55.520873 315.919599 54.551585 313.579531 52.826484 311.85443 
C 51.101383 310.129329 48.761315 309.160041 46.321654 309.160041 
C 43.881993 309.160041 41.541925 310.129329 39.816824 311.85443 
C 38.091723 313.579531 37.122435 315.919599 37.122435 318.35926 
C 37.122435 320.798922 38.091723 323.138989 39.816824 324.86409 
C 41.541925 326.589191 43.881993 327.558479 46.321654 327.558479 
z
" clip-path="url(#p188d0b6a68)" style="fill: #75e6da; stroke: #4c5270; stroke-width: 0.5"/>
    <path d="M 44.941018 315.828357 
C 47.184259 315.828357 49.335926 314.937108 50.922137 313.350897 
C 52.508348 311.764685 53.399598 309.613019 53.399598 307.369777 
C 53.399598 305.126536 52.508348 302.974869 50.922137 301.388658 
C 49.335926 299.802447 47.184259 298.911197 44.941018 298.911197 
C 42.697776 298.911197 40.54611 299.802447 38.959899 301.388658 
C 37.373687 302.974869 36.482438 305.126536 36.482438 307.369777 
C 36.482438 309.613019 37.373687 311.764685 38.959899 313.350897 
C 40.54611 314.937108 42.697776 315.828357 44.941018 315.828357 
z
" clip-path="url(#p188d0b6a68)" style="fill: #75e6da; stroke: #4c5270; stroke-width: 0.5"/>
    <path d="M 45.096151 303.377171 
C 47.314626 303.377171 49.442536 302.495762 51.011235 300.927063 
C 52.579934 299.358365 53.461343 297.230454 53.461343 295.01198 
C 53.461343 292.793505 52.579934 290.665594 51.011235 289.096896 
C 49.442536 287.528197 47.314626 286.646788 45.096151 286.646788 
C 42.877676 286.646788 40.749766 287.528197 39.181067 289.096896 
C 37.612369 290.665594 36.730959 292.793505 36.730959 295.01198 
C 36.730959 297.230454 37.612369 299.358365 39.181067 300.927063 
C 40.749766 302.495762 42.877676 303.377171 45.096151 303.377171 
z
" clip-path="url(#p188d0b6a68)" style="fill: #75e6da; stroke: #4c5270; stroke-width: 0.5"/>
    <path d="M 46.673079 291.852382 
C 48.873695 291.852382 50.984476 290.978068 52.540546 289.421998 
C 54.096617 287.865927 54.970931 285.755147 54.970931 283.554531 
C 54.970931 281.353915 54.096617 279.243134 52.540546 277.687064 
C 50.984476 276.130993 48.873695 275.25668 46.673079 275.25668 
C 44.472463 275.25668 42.361683 276.130993 40.805612 277.687064 
C 39.249542 279.243134 38.375228 281.353915 38.375228 283.554531 
C 38.375228 285.755147 39.249542 287.865927 40.805612 289.421998 
C 42.361683 290.978068 44.472463 291.852382 46.673079 291.852382 
z
" clip-path="url(#p188d0b6a68)" style="fill: #75e6da; stroke: #4c5270; stroke-width: 0.5"/>
    <path d="M 46.35099 279.546015 
C 48.532693 279.546015 50.625333 278.679216 52.16803 277.136518 
C 53.710728 275.593821 54.577528 273.501181 54.577528 271.319477 
C 54.577528 269.137774 53.710728 267.045134 52.16803 265.502437 
C 50.625333 263.959739 48.532693 263.092939 46.35099 263.092939 
C 44.169286 263.092939 42.076646 263.959739 40.533949 265.502437 
C 38.991251 267.045134 38.124452 269.137774 38.124452 271.319477 
C 38.124452 273.501181 38.991251 275.593821 40.533949 277.136518 
C 42.076646 278.679216 44.169286 279.546015 46.35099 279.546015 
z
" clip-path="url(#p188d0b6a68)" style="fill: #75e6da; stroke: #4c5270; stroke-width: 0.5"/>
    <path d="M 48.044102 265.775137 
C 50.154178 265.775137 52.178116 264.936794 53.670165 263.444745 
C 55.162215 261.952695 56.000557 259.928758 56.000557 257.818681 
C 56.000557 255.708605 55.162215 253.684667 53.670165 252.192618 
C 52.178116 250.700568 50.154178 249.862226 48.044102 249.862226 
C 45.934025 249.862226 43.910087 250.700568 42.418038 252.192618 
C 40.925988 253.684667 40.087646 255.708605 40.087646 257.818681 
C 40.087646 259.928758 40.925988 261.952695 42.418038 263.444745 
C 43.910087 264.936794 45.934025 265.775137 48.044102 265.775137 
z
" clip-path="url(#p188d0b6a68)" style="fill: #75e6da; stroke: #4c5270; stroke-width: 0.5"/>
    <path d="M 61.745241 253.622804 
C 63.506212 253.622804 65.195295 252.923163 66.44049 251.677968 
C 67.685684 250.432774 68.385326 248.743691 68.385326 246.98272 
C 68.385326 245.221749 67.685684 243.532665 66.44049 242.287471 
C 65.195295 241.042276 63.506212 240.342635 61.745241 240.342635 
C 59.98427 240.342635 58.295187 241.042276 57.049992 242.287471 
C 55.804798 243.532665 55.105157 245.221749 55.105157 246.98272 
C 55.105157 248.743691 55.804798 250.432774 57.049992 251.677968 
C 58.295187 252.923163 59.98427 253.622804 61.745241 253.622804 
z
" clip-path="url(#p188d0b6a68)" style="fill: #75e6da; stroke: #4c5270; stroke-width: 0.5"/>
    <path d="M 68.504641 242.400591 
C 70.259627 242.400591 71.942969 241.703328 73.183931 240.462365 
C 74.424894 239.221403 75.122157 237.538061 75.122157 235.783075 
C 75.122157 234.028089 74.424894 232.344747 73.183931 231.103784 
C 71.942969 229.862822 70.259627 229.165559 68.504641 229.165559 
C 66.749655 229.165559 65.066313 229.862822 63.82535 231.103784 
C 62.584388 232.344747 61.887125 234.028089 61.887125 235.783075 
C 61.887125 237.538061 62.584388 239.221403 63.82535 240.462365 
C 65.066313 241.703328 66.749655 242.400591 68.504641 242.400591 
z
" clip-path="url(#p188d0b6a68)" style="fill: #75e6da; stroke: #4c5270; stroke-width: 0.5"/>
    <path d="M 81.119529 231.125115 
C 82.851727 231.125115 84.513212 230.436905 85.738062 229.212056 
C 86.962911 227.987207 87.65112 226.325722 87.65112 224.593524 
C 87.65112 222.861325 86.962911 221.19984 85.738062 219.974991 
C 84.513212 218.750142 82.851727 218.061933 81.119529 218.061933 
C 79.387331 218.061933 77.725846 218.750142 76.500997 219.974991 
C 75.276148 221.19984 74.587938 222.861325 74.587938 224.593524 
C 74.587938 226.325722 75.276148 227.987207 76.500997 229.212056 
C 77.725846 230.436905 79.387331 231.125115 81.119529 231.125115 
z
" clip-path="url(#p188d0b6a68)" style="fill: #75e6da; stroke: #4c5270; stroke-width: 0.5"/>
    <path d="M 91.774941 219.608455 
C 93.486761 219.608455 95.1287 218.928342 96.33914 217.717902 
C 97.549579 216.507462 98.229693 214.865524 98.229693 213.153704 
C 98.229693 211.441883 97.549579 209.799945 96.33914 208.589505 
C 95.1287 207.379065 93.486761 206.698952 91.774941 206.698952 
C 90.063121 206.698952 88.421182 207.379065 87.210743 208.589505 
C 86.000303 209.799945 85.32019 211.441883 85.32019 213.153704 
C 85.32019 214.865524 86.000303 216.507462 87.210743 217.717902 
C 88.421182 218.928342 90.063121 219.608455 91.774941 219.608455 
z
" clip-path="url(#p188d0b6a68)" style="fill: #75e6da; stroke: #4c5270; stroke-width: 0.5"/>
    <path d="M 109.129511 208.651059 
C 110.813042 208.651059 112.427847 207.982185 113.618283 206.791749 
C 114.808719 205.601313 115.477593 203.986509 115.477593 202.302978 
C 115.477593 200.619447 114.808719 199.004643 113.618283 197.814206 
C 112.427847 196.62377 110.813042 195.954896 109.129511 195.954896 
C 107.44598 195.954896 105.831176 196.62377 104.64074 197.814206 
C 103.450304 199.004643 102.78143 200.619447 102.78143 202.302978 
C 102.78143 203.986509 103.450304 205.601313 104.64074 206.791749 
C 105.831176 207.982185 107.44598 208.651059 109.129511 208.651059 
z
" clip-path="url(#p188d0b6a68)" style="fill: #75e6da; stroke: #4c5270; stroke-width: 0.5"/>
    <path d="M 140.0442 202.111452 
C 141.569354 202.111452 143.032248 201.505502 144.110695 200.427055 
C 145.189142 199.348608 145.795093 197.885714 145.795093 196.360559 
C 145.795093 194.835405 145.189142 193.372511 144.110695 192.294064 
C 143.032248 191.215617 141.569354 190.609666 140.0442 190.609666 
C 138.519045 190.609666 137.056151 191.215617 135.977704 192.294064 
C 134.899257 193.372511 134.293307 194.835405 134.293307 196.360559 
C 134.293307 197.885714 134.899257 199.348608 135.977704 200.427055 
C 137.056151 201.505502 138.519045 202.111452 140.0442 202.111452 
z
" clip-path="url(#p188d0b6a68)" style="fill: #75e6da; stroke: #4c5270; stroke-width: 0.5"/>
    <path d="M 161.648796 192.142735 
C 163.139989 192.142735 164.570308 191.550277 165.624741 190.495844 
C 166.679174 189.441411 167.271632 188.011092 167.271632 186.519898 
C 167.271632 185.028705 166.679174 183.598386 165.624741 182.543953 
C 164.570308 181.48952 163.139989 180.897062 161.648796 180.897062 
C 160.157602 180.897062 158.727283 181.48952 157.67285 182.543953 
C 156.618417 183.598386 156.02596 185.028705 156.02596 186.519898 
C 156.02596 188.011092 156.618417 189.441411 157.67285 190.495844 
C 158.727283 191.550277 160.157602 192.142735 161.648796 192.142735 
z
" clip-path="url(#p188d0b6a68)" style="fill: #75e6da; stroke: #4c5270; stroke-width: 0.5"/>
    <path d="M 182.046055 182.130905 
C 183.51407 182.130905 184.922156 181.547656 185.960199 180.509613 
C 186.998242 179.47157 187.58149 178.063484 187.58149 176.59547 
C 187.58149 175.127456 186.998242 173.71937 185.960199 172.681327 
C 184.922156 171.643284 183.51407 171.060035 182.046055 171.060035 
C 180.578041 171.060035 179.169955 171.643284 178.131912 172.681327 
C 177.093869 173.71937 176.510621 175.127456 176.510621 176.59547 
C 176.510621 178.063484 177.093869 179.47157 178.131912 180.509613 
C 179.169955 181.547656 180.578041 182.130905 182.046055 182.130905 
z
" clip-path="url(#p188d0b6a68)" style="fill: #75e6da; stroke: #4c5270; stroke-width: 0.5"/>
    <path d="M 209.779311 173.453435 
C 211.230876 173.453435 212.623185 172.876722 213.649596 171.85031 
C 214.676008 170.823899 215.252721 169.43159 215.252721 167.980025 
C 215.252721 166.52846 214.676008 165.136152 213.649596 164.10974 
C 212.623185 163.083328 211.230876 162.506615 209.779311 162.506615 
C 208.327746 162.506615 206.935438 163.083328 205.909026 164.10974 
C 204.882614 165.136152 204.305901 166.52846 204.305901 167.980025 
C 204.305901 169.43159 204.882614 170.823899 205.909026 171.85031 
C 206.935438 172.876722 208.327746 173.453435 209.779311 173.453435 
z
" clip-path="url(#p188d0b6a68)" style="fill: #75e6da; stroke: #4c5270; stroke-width: 0.5"/>
    <path d="M 221.164331 164.973007 
C 222.604789 164.973007 223.986444 164.400707 225.005001 163.382149 
C 226.023559 162.363591 226.595859 160.981936 226.595859 159.541478 
C 226.595859 158.10102 226.023559 156.719365 225.005001 155.700808 
C 223.986444 154.68225 222.604789 154.10995 221.164331 154.10995 
C 219.723872 154.10995 218.342218 154.68225 217.32366 155.700808 
C 216.305102 156.719365 215.732802 158.10102 215.732802 159.541478 
C 215.732802 160.981936 216.305102 162.363591 217.32366 163.382149 
C 218.342218 164.400707 219.723872 164.973007 221.164331 164.973007 
z
" clip-path="url(#p188d0b6a68)" style="fill: #75e6da; stroke: #4c5270; stroke-width: 0.5"/>
    <path d="M 271.617615 162.791407 
C 272.861132 162.791407 274.053886 162.297352 274.933186 161.418052 
C 275.812485 160.538753 276.30654 159.345999 276.30654 158.102482 
C 276.30654 156.858964 275.812485 155.666211 274.933186 154.786911 
C 274.053886 153.907612 272.861132 153.413557 271.617615 153.413557 
C 270.374098 153.413557 269.181344 153.907612 268.302044 154.786911 
C 267.422745 155.666211 266.92869 156.858964 266.92869 158.102482 
C 266.92869 159.345999 267.422745 160.538753 268.302044 161.418052 
C 269.181344 162.297352 270.374098 162.791407 271.617615 162.791407 
z
" clip-path="url(#p188d0b6a68)" style="fill: #75e6da; stroke: #4c5270; stroke-width: 0.5"/>
    <path d="M 292.463641 153.257016 
C 293.66092 153.257016 294.809322 152.781332 295.655926 151.934728 
C 296.50253 151.088124 296.978214 149.939722 296.978214 148.742443 
C 296.978214 147.545164 296.50253 146.396762 295.655926 145.550158 
C 294.809322 144.703554 293.66092 144.22787 292.463641 144.22787 
C 291.266362 144.22787 290.11796 144.703554 289.271356 145.550158 
C 288.424752 146.396762 287.949068 147.545164 287.949068 148.742443 
C 287.949068 149.939722 288.424752 151.088124 289.271356 151.934728 
C 290.11796 152.781332 291.266362 153.257016 292.463641 153.257016 
z
" clip-path="url(#p188d0b6a68)" style="fill: #75e6da; stroke: #4c5270; stroke-width: 0.5"/>
    <path d="M 306.631402 146.965275 
C 307.823965 146.965275 308.967844 146.491465 309.811113 145.648196 
C 310.654382 144.804927 311.128192 143.661048 311.128192 142.468486 
C 311.128192 141.275923 310.654382 140.132044 309.811113 139.288775 
C 308.967844 138.445506 307.823965 137.971696 306.631402 137.971696 
C 305.43884 137.971696 304.294961 138.445506 303.451692 139.288775 
C 302.608423 140.132044 302.134613 141.275923 302.134613 142.468486 
C 302.134613 143.661048 302.608423 144.804927 303.451692 145.648196 
C 304.294961 146.491465 305.43884 146.965275 306.631402 146.965275 
z
" clip-path="url(#p188d0b6a68)" style="fill: #75e6da; stroke: #4c5270; stroke-width: 0.5"/>
    <path d="M 307.744633 138.44867 
C 308.901855 138.44867 310.011837 137.9889 310.830117 137.17062 
C 311.648398 136.35234 312.108167 135.242358 312.108167 134.085135 
C 312.108167 132.927912 311.648398 131.81793 310.830117 130.99965 
C 310.011837 130.18137 308.901855 129.721601 307.744633 129.721601 
C 306.58741 129.721601 305.477428 130.18137 304.659148 130.99965 
C 303.840867 131.81793 303.381098 132.927912 303.381098 134.085135 
C 303.381098 135.242358 303.840867 136.35234 304.659148 137.17062 
C 305.477428 137.9889 306.58741 138.44867 307.744633 138.44867 
z
" clip-path="url(#p188d0b6a68)" style="fill: #75e6da; stroke: #4c5270; stroke-width: 0.5"/>
    <path d="M 329.633257 131.128011 
C 330.736241 131.128011 331.794198 130.689791 332.574126 129.909864 
C 333.354053 129.129936 333.792273 128.071979 333.792273 126.968995 
C 333.792273 125.866011 333.354053 124.808054 332.574126 124.028126 
C 331.794198 123.248199 330.736241 122.809979 329.633257 122.809979 
C 328.530273 122.809979 327.472316 123.248199 326.692388 124.028126 
C 325.912461 124.808054 325.474241 125.866011 325.474241 126.968995 
C 325.474241 128.071979 325.912461 129.129936 326.692388 129.909864 
C 327.472316 130.689791 328.530273 131.128011 329.633257 131.128011 
z
" clip-path="url(#p188d0b6a68)" style="fill: #75e6da; stroke: #4c5270; stroke-width: 0.5"/>
    <path d="M 370.099443 129.148911 
C 371.023526 129.148911 371.909885 128.781769 372.56331 128.128344 
C 373.216736 127.474918 373.583878 126.588559 373.583878 125.664476 
C 373.583878 124.740394 373.216736 123.854034 372.56331 123.200609 
C 371.909885 122.547184 371.023526 122.180042 370.099443 122.180042 
C 369.17536 122.180042 368.289001 122.547184 367.635576 123.200609 
C 366.982151 123.854034 366.615009 124.740394 366.615009 125.664476 
C 366.615009 126.588559 366.982151 127.474918 367.635576 128.128344 
C 368.289001 128.781769 369.17536 129.148911 370.099443 129.148911 
z
" clip-path="url(#p188d0b6a68)" style="fill: #75e6da; stroke: #4c5270; stroke-width: 0.5"/>
    <path d="M 367.371575 123.260663 
C 368.268975 123.260663 369.129741 122.904122 369.764299 122.269565 
C 370.398856 121.635007 370.755397 120.774241 370.755397 119.876841 
C 370.755397 118.979441 370.398856 118.118675 369.764299 117.484117 
C 369.129741 116.84956 368.268975 116.493019 367.371575 116.493019 
C 366.474175 116.493019 365.613409 116.84956 364.978851 117.484117 
C 364.344294 118.118675 363.987753 118.979441 363.987753 119.876841 
C 363.987753 120.774241 364.344294 121.635007 364.978851 122.269565 
C 365.613409 122.904122 366.474175 123.260663 367.371575 123.260663 
z
" clip-path="url(#p188d0b6a68)" style="fill: #75e6da; stroke: #4c5270; stroke-width: 0.5"/>
    <path d="M 380.927727 115.355635 
C 381.732753 115.355635 382.504916 115.035794 383.074156 114.466555 
C 383.643395 113.897315 383.963235 113.125153 383.963235 112.320126 
C 383.963235 111.5151 383.643395 110.742938 383.074156 110.173698 
C 382.504916 109.604459 381.732753 109.284618 380.927727 109.284618 
C 380.122701 109.284618 379.350538 109.604459 378.781299 110.173698 
C 378.212059 110.742938 377.892219 111.5151 377.892219 112.320126 
C 377.892219 113.125153 378.212059 113.897315 378.781299 114.466555 
C 379.350538 115.035794 380.122701 115.355635 380.927727 115.355635 
z
" clip-path="url(#p188d0b6a68)" style="fill: #75e6da; stroke: #4c5270; stroke-width: 0.5"/>
    <path d="M 374.539331 110.20577 
C 375.335615 110.20577 376.099391 109.889404 376.662449 109.326346 
C 377.225506 108.763289 377.541873 107.999512 377.541873 107.203229 
C 377.541873 106.406946 377.225506 105.643169 376.662449 105.080112 
C 376.099391 104.517054 375.335615 104.200688 374.539331 104.200688 
C 373.743048 104.200688 372.979271 104.517054 372.416214 105.080112 
C 371.853157 105.643169 371.53679 106.406946 371.53679 107.203229 
C 371.53679 107.999512 371.853157 108.763289 372.416214 109.326346 
C 372.979271 109.889404 373.743048 110.20577 374.539331 110.20577 
z
" clip-path="url(#p188d0b6a68)" style="fill: #75e6da; stroke: #4c5270; stroke-width: 0.5"/>
    <path d="M 373.149353 103.047701 
C 373.857789 103.047701 374.537305 102.766236 375.038246 102.265296 
C 375.539186 101.764356 375.820651 101.084839 375.820651 100.376403 
C 375.820651 99.667966 375.539186 98.98845 375.038246 98.487509 
C 374.537305 97.986569 373.857789 97.705104 373.149353 97.705104 
C 372.440916 97.705104 371.7614 97.986569 371.260459 98.487509 
C 370.759519 98.98845 370.478054 99.667966 370.478054 100.376403 
C 370.478054 101.084839 370.759519 101.764356 371.260459 102.265296 
C 371.7614 102.766236 372.440916 103.047701 373.149353 103.047701 
z
" clip-path="url(#p188d0b6a68)" style="fill: #75e6da; stroke: #4c5270; stroke-width: 0.5"/>
   </g>
   <g id="PathCollection_3">
    <path d="M 46.843862 338.409889 
C 49.334435 338.409889 51.723337 337.420373 53.484439 335.659272 
C 55.24554 333.89817 56.235056 331.509269 56.235056 329.018695 
C 56.235056 326.528121 55.24554 324.139219 53.484439 322.378118 
C 51.723337 320.617016 49.334435 319.6275 46.843862 319.6275 
C 44.353288 319.6275 41.964386 320.617016 40.203284 322.378118 
C 38.442183 324.139219 37.452667 326.528121 37.452667 329.018695 
C 37.452667 331.509269 38.442183 333.89817 40.203284 335.659272 
C 41.964386 337.420373 44.353288 338.409889 46.843862 338.409889 
z
" clip-path="url(#p188d0b6a68)" style="fill: #2f5233; stroke: #4c5270; stroke-width: 0.5"/>
    <path d="M 48.612965 339.767962 
C 51.143073 339.767962 53.569894 338.76274 55.35895 336.973684 
C 57.148006 335.184627 58.153229 332.757806 58.153229 330.227699 
C 58.153229 327.697591 57.148006 325.27077 55.35895 323.481714 
C 53.569894 321.692658 51.143073 320.687435 48.612965 320.687435 
C 46.082858 320.687435 43.656036 321.692658 41.86698 323.481714 
C 40.077924 325.27077 39.072702 327.697591 39.072702 330.227699 
C 39.072702 332.757806 40.077924 335.184627 41.86698 336.973684 
C 43.656036 338.76274 46.082858 339.767962 48.612965 339.767962 
z
" clip-path="url(#p188d0b6a68)" style="fill: #2f5233; stroke: #4c5270; stroke-width: 0.5"/>
    <path d="M 51.133307 340.475893 
C 53.695055 340.475893 56.152226 339.458099 57.963655 337.64667 
C 59.775085 335.83524 60.792878 333.378069 60.792878 330.816321 
C 60.792878 328.254573 59.775085 325.797402 57.963655 323.985973 
C 56.152226 322.174543 53.695055 321.15675 51.133307 321.15675 
C 48.571559 321.15675 46.114388 322.174543 44.302958 323.985973 
C 42.491529 325.797402 41.473735 328.254573 41.473735 330.816321 
C 41.473735 333.378069 42.491529 335.83524 44.302958 337.64667 
C 46.114388 339.458099 48.571559 340.475893 51.133307 340.475893 
z
" clip-path="url(#p188d0b6a68)" style="fill: #2f5233; stroke: #4c5270; stroke-width: 0.5"/>
    <path d="M 55.248946 341.874103 
C 57.846666 341.874103 60.33834 340.842018 62.175205 339.005153 
C 64.01207 337.168288 65.044155 334.676614 65.044155 332.078894 
C 65.044155 329.481175 64.01207 326.989501 62.175205 325.152636 
C 60.33834 323.315771 57.846666 322.283686 55.248946 322.283686 
C 52.651227 322.283686 50.159553 323.315771 48.322688 325.152636 
C 46.485823 326.989501 45.453738 329.481175 45.453738 332.078894 
C 45.453738 334.676614 46.485823 337.168288 48.322688 339.005153 
C 50.159553 340.842018 52.651227 341.874103 55.248946 341.874103 
z
" clip-path="url(#p188d0b6a68)" style="fill: #2f5233; stroke: #4c5270; stroke-width: 0.5"/>
    <path d="M 61.29875 342.520986 
C 63.922341 342.520986 66.438829 341.478623 68.293988 339.623464 
C 70.149146 337.768306 71.19151 335.251818 71.19151 332.628227 
C 71.19151 330.004637 70.149146 327.488148 68.293988 325.63299 
C 66.438829 323.777831 63.922341 322.735468 61.29875 322.735468 
C 58.67516 322.735468 56.158672 323.777831 54.303513 325.63299 
C 52.448355 327.488148 51.405991 330.004637 51.405991 332.628227 
C 51.405991 335.251818 52.448355 337.768306 54.303513 339.623464 
C 56.158672 341.478623 58.67516 342.520986 61.29875 342.520986 
z
" clip-path="url(#p188d0b6a68)" style="fill: #2f5233; stroke: #4c5270; stroke-width: 0.5"/>
    <path d="M 53.160628 342.582634 
C 55.763987 342.582634 58.26107 341.548308 60.101923 339.707455 
C 61.942776 337.866602 62.977102 335.369519 62.977102 332.76616 
C 62.977102 330.162801 61.942776 327.665718 60.101923 325.824865 
C 58.26107 323.984012 55.763987 322.949687 53.160628 322.949687 
C 50.557269 322.949687 48.060186 323.984012 46.219333 325.824865 
C 44.37848 327.665718 43.344155 330.162801 43.344155 332.76616 
C 43.344155 335.369519 44.37848 337.866602 46.219333 339.707455 
C 48.060186 341.548308 50.557269 342.582634 53.160628 342.582634 
z
" clip-path="url(#p188d0b6a68)" style="fill: #2f5233; stroke: #4c5270; stroke-width: 0.5"/>
    <path d="M 75.535236 343.033829 
C 77.838992 343.033829 80.048702 342.118537 81.677703 340.489536 
C 83.306704 338.860535 84.221996 336.650825 84.221996 334.347069 
C 84.221996 332.043313 83.306704 329.833603 81.677703 328.204602 
C 80.048702 326.575601 77.838992 325.660309 75.535236 325.660309 
C 73.23148 325.660309 71.02177 326.575601 69.392769 328.204602 
C 67.763768 329.833603 66.848476 332.043313 66.848476 334.347069 
C 66.848476 336.650825 67.763768 338.860535 69.392769 340.489536 
C 71.02177 342.118537 73.23148 343.033829 75.535236 343.033829 
z
" clip-path="url(#p188d0b6a68)" style="fill: #2f5233; stroke: #4c5270; stroke-width: 0.5"/>
    <path d="M 63.66209 344.822391 
C 65.788481 344.822391 67.828066 343.977567 69.331652 342.473982 
C 70.835237 340.970396 71.680061 338.93081 71.680061 336.80442 
C 71.680061 334.678029 70.835237 332.638443 69.331652 331.134858 
C 67.828066 329.631272 65.788481 328.786448 63.66209 328.786448 
C 61.535699 328.786448 59.496113 329.631272 57.992528 331.134858 
C 56.488942 332.638443 55.644118 334.678029 55.644118 336.80442 
C 55.644118 338.93081 56.488942 340.970396 57.992528 342.473982 
C 59.496113 343.977567 61.535699 344.822391 63.66209 344.822391 
z
" clip-path="url(#p188d0b6a68)" style="fill: #2f5233; stroke: #4c5270; stroke-width: 0.5"/>
    <path d="M 57.864132 345.908649 
C 59.772896 345.908649 61.603739 345.150289 62.95344 343.800589 
C 64.30314 342.450888 65.0615 340.620045 65.0615 338.711281 
C 65.0615 336.802516 64.30314 334.971673 62.95344 333.621973 
C 61.603739 332.272272 59.772896 331.513912 57.864132 331.513912 
C 55.955367 331.513912 54.124524 332.272272 52.774824 333.621973 
C 51.425123 334.971673 50.666763 336.802516 50.666763 338.711281 
C 50.666763 340.620045 51.425123 342.450888 52.774824 343.800589 
C 54.124524 345.150289 55.955367 345.908649 57.864132 345.908649 
z
" clip-path="url(#p188d0b6a68)" style="fill: #2f5233; stroke: #4c5270; stroke-width: 0.5"/>
    <path d="M 61.34014 346.716734 
C 63.01256 346.716734 64.616708 346.052275 65.799287 344.869695 
C 66.981867 343.687115 67.646327 342.082967 67.646327 340.410547 
C 67.646327 338.738127 66.981867 337.133979 65.799287 335.951399 
C 64.616708 334.768819 63.01256 334.10436 61.34014 334.10436 
C 59.667719 334.10436 58.063572 334.768819 56.880992 335.951399 
C 55.698412 337.133979 55.033952 338.738127 55.033952 340.410547 
C 55.033952 342.082967 55.698412 343.687115 56.880992 344.869695 
C 58.063572 346.052275 59.667719 346.716734 61.34014 346.716734 
z
" clip-path="url(#p188d0b6a68)" style="fill: #2f5233; stroke: #4c5270; stroke-width: 0.5"/>
    <path d="M 75.666179 348.094525 
C 77.100288 348.094525 78.475852 347.524748 79.489919 346.51068 
C 80.503987 345.496612 81.073764 344.121049 81.073764 342.68694 
C 81.073764 341.252832 80.503987 339.877268 79.489919 338.863201 
C 78.475852 337.849133 77.100288 337.279356 75.666179 337.279356 
C 74.232071 337.279356 72.856507 337.849133 71.84244 338.863201 
C 70.828372 339.877268 70.258595 341.252832 70.258595 342.68694 
C 70.258595 344.121049 70.828372 345.496612 71.84244 346.51068 
C 72.856507 347.524748 74.232071 348.094525 75.666179 348.094525 
z
" clip-path="url(#p188d0b6a68)" style="fill: #2f5233; stroke: #4c5270; stroke-width: 0.5"/>
    <path d="M 88.023999 349.97903 
C 89.243515 349.97903 90.413247 349.494511 91.275575 348.632183 
C 92.137903 347.769855 92.622422 346.600123 92.622422 345.380607 
C 92.622422 344.161091 92.137903 342.991359 91.275575 342.129031 
C 90.413247 341.266703 89.243515 340.782184 88.023999 340.782184 
C 86.804484 340.782184 85.634752 341.266703 84.772424 342.129031 
C 83.910096 342.991359 83.425577 344.161091 83.425577 345.380607 
C 83.425577 346.600123 83.910096 347.769855 84.772424 348.632183 
C 85.634752 349.494511 86.804484 349.97903 88.023999 349.97903 
z
" clip-path="url(#p188d0b6a68)" style="fill: #2f5233; stroke: #4c5270; stroke-width: 0.5"/>
    <path d="M 88.958416 352.101862 
C 89.984384 352.101862 90.968469 351.69424 91.693938 350.968772 
C 92.419406 350.243303 92.827028 349.259218 92.827028 348.23325 
C 92.827028 347.207282 92.419406 346.223198 91.693938 345.497729 
C 90.968469 344.77226 89.984384 344.364639 88.958416 344.364639 
C 87.932448 344.364639 86.948364 344.77226 86.222895 345.497729 
C 85.497426 346.223198 85.089805 347.207282 85.089805 348.23325 
C 85.089805 349.259218 85.497426 350.243303 86.222895 350.968772 
C 86.948364 351.69424 87.932448 352.101862 88.958416 352.101862 
z
" clip-path="url(#p188d0b6a68)" style="fill: #2f5233; stroke: #4c5270; stroke-width: 0.5"/>
    <path d="M 79.738073 354.403923 
C 80.615806 354.403923 81.457708 354.055196 82.078359 353.434545 
C 82.699011 352.813893 83.047738 351.971992 83.047738 351.094258 
C 83.047738 350.216525 82.699011 349.374623 82.078359 348.753972 
C 81.457708 348.133321 80.615806 347.784593 79.738073 347.784593 
C 78.860339 347.784593 78.018438 348.133321 77.397786 348.753972 
C 76.777135 349.374623 76.428408 350.216525 76.428408 351.094258 
C 76.428408 351.971992 76.777135 352.813893 77.397786 353.434545 
C 78.018438 354.055196 78.860339 354.403923 79.738073 354.403923 
z
" clip-path="url(#p188d0b6a68)" style="fill: #2f5233; stroke: #4c5270; stroke-width: 0.5"/>
    <path d="M 70.624841 356.902073 
C 71.375412 356.902073 72.095342 356.603868 72.626076 356.073134 
C 73.156809 355.5424 73.455014 354.82247 73.455014 354.071899 
C 73.455014 353.321328 73.156809 352.601398 72.626076 352.070664 
C 72.095342 351.53993 71.375412 351.241725 70.624841 351.241725 
C 69.87427 351.241725 69.154339 351.53993 68.623606 352.070664 
C 68.092872 352.601398 67.794667 353.321328 67.794667 354.071899 
C 67.794667 354.82247 68.092872 355.5424 68.623606 356.073134 
C 69.154339 356.603868 69.87427 356.902073 70.624841 356.902073 
z
" clip-path="url(#p188d0b6a68)" style="fill: #2f5233; stroke: #4c5270; stroke-width: 0.5"/>
    <path d="M 65.480768 359.074975 
C 66.121186 359.074975 66.735461 358.820534 67.188305 358.36769 
C 67.64115 357.914846 67.895591 357.300571 67.895591 356.660152 
C 67.895591 356.019734 67.64115 355.405459 67.188305 354.952614 
C 66.735461 354.49977 66.121186 354.245329 65.480768 354.245329 
C 64.840349 354.245329 64.226074 354.49977 63.77323 354.952614 
C 63.320385 355.405459 63.065944 356.019734 63.065944 356.660152 
C 63.065944 357.300571 63.320385 357.914846 63.77323 358.36769 
C 64.226074 358.820534 64.840349 359.074975 65.480768 359.074975 
z
" clip-path="url(#p188d0b6a68)" style="fill: #2f5233; stroke: #4c5270; stroke-width: 0.5"/>
    <path d="M 59.142742 361.286562 
C 59.69575 361.286562 60.226182 361.06685 60.617217 360.675815 
C 61.008252 360.28478 61.227964 359.754348 61.227964 359.20134 
C 61.227964 358.648333 61.008252 358.117901 60.617217 357.726866 
C 60.226182 357.335831 59.69575 357.116119 59.142742 357.116119 
C 58.589735 357.116119 58.059303 357.335831 57.668268 357.726866 
C 57.277233 358.117901 57.057521 358.648333 57.057521 359.20134 
C 57.057521 359.754348 57.277233 360.28478 57.668268 360.675815 
C 58.059303 361.06685 58.589735 361.286562 59.142742 361.286562 
z
" clip-path="url(#p188d0b6a68)" style="fill: #2f5233; stroke: #4c5270; stroke-width: 0.5"/>
    <path d="M 55.66708 362.902936 
C 56.131895 362.902936 56.577735 362.718264 56.906408 362.38959 
C 57.235082 362.060916 57.419754 361.615077 57.419754 361.150262 
C 57.419754 360.685448 57.235082 360.239608 56.906408 359.910935 
C 56.577735 359.582261 56.131895 359.397589 55.66708 359.397589 
C 55.202266 359.397589 54.756426 359.582261 54.427753 359.910935 
C 54.099079 360.239608 53.914407 360.685448 53.914407 361.150262 
C 53.914407 361.615077 54.099079 362.060916 54.427753 362.38959 
C 54.756426 362.718264 55.202266 362.902936 55.66708 362.902936 
z
" clip-path="url(#p188d0b6a68)" style="fill: #2f5233; stroke: #4c5270; stroke-width: 0.5"/>
    <path d="M 53.754144 364.718221 
C 54.134435 364.718221 54.499201 364.56713 54.768108 364.298224 
C 55.037014 364.029318 55.188105 363.664551 55.188105 363.284261 
C 55.188105 362.90397 55.037014 362.539203 54.768108 362.270297 
C 54.499201 362.001391 54.134435 361.8503 53.754144 361.8503 
C 53.373853 361.8503 53.009087 362.001391 52.740181 362.270297 
C 52.471274 362.539203 52.320183 362.90397 52.320183 363.284261 
C 52.320183 363.664551 52.471274 364.029318 52.740181 364.298224 
C 53.009087 364.56713 53.373853 364.718221 53.754144 364.718221 
z
" clip-path="url(#p188d0b6a68)" style="fill: #2f5233; stroke: #4c5270; stroke-width: 0.5"/>
    <path d="M 51.924326 366.164693 
C 52.239527 366.164693 52.541862 366.039462 52.764743 365.816581 
C 52.987624 365.5937 53.112855 365.291365 53.112855 364.976164 
C 53.112855 364.660962 52.987624 364.358627 52.764743 364.135746 
C 52.541862 363.912865 52.239527 363.787634 51.924326 363.787634 
C 51.609124 363.787634 51.306789 363.912865 51.083908 364.135746 
C 50.861027 364.358627 50.735796 364.660962 50.735796 364.976164 
C 50.735796 365.291365 50.861027 365.5937 51.083908 365.816581 
C 51.306789 366.039462 51.609124 366.164693 51.924326 366.164693 
z
" clip-path="url(#p188d0b6a68)" style="fill: #2f5233; stroke: #4c5270; stroke-width: 0.5"/>
    <path d="M 50.174799 367.568529 
C 50.439912 367.568529 50.694203 367.463198 50.881667 367.275734 
C 51.06913 367.088271 51.174461 366.83398 51.174461 366.568866 
C 51.174461 366.303753 51.06913 366.049462 50.881667 365.861998 
C 50.694203 365.674535 50.439912 365.569204 50.174799 365.569204 
C 49.909685 365.569204 49.655394 365.674535 49.467931 365.861998 
C 49.280467 366.049462 49.175136 366.303753 49.175136 366.568866 
C 49.175136 366.83398 49.280467 367.088271 49.467931 367.275734 
C 49.655394 367.463198 49.909685 367.568529 50.174799 367.568529 
z
" clip-path="url(#p188d0b6a68)" style="fill: #2f5233; stroke: #4c5270; stroke-width: 0.5"/>
    <path d="M 47.882528 368.912128 
C 48.100868 368.912128 48.310295 368.82538 48.464684 368.670991 
C 48.619074 368.516601 48.705821 368.307175 48.705821 368.088835 
C 48.705821 367.870495 48.619074 367.661068 48.464684 367.506679 
C 48.310295 367.352289 48.100868 367.265542 47.882528 367.265542 
C 47.664188 367.265542 47.454762 367.352289 47.300372 367.506679 
C 47.145983 367.661068 47.059235 367.870495 47.059235 368.088835 
C 47.059235 368.307175 47.145983 368.516601 47.300372 368.670991 
C 47.454762 368.82538 47.664188 368.912128 47.882528 368.912128 
z
" clip-path="url(#p188d0b6a68)" style="fill: #2f5233; stroke: #4c5270; stroke-width: 0.5"/>
    <path d="M 45.915007 370.286863 
C 46.103615 370.286863 46.284522 370.211929 46.417888 370.078563 
C 46.551254 369.945197 46.626188 369.76429 46.626188 369.575682 
C 46.626188 369.387075 46.551254 369.206167 46.417888 369.072802 
C 46.284522 368.939436 46.103615 368.864502 45.915007 368.864502 
C 45.7264 368.864502 45.545492 368.939436 45.412127 369.072802 
C 45.278761 369.206167 45.203827 369.387075 45.203827 369.575682 
C 45.203827 369.76429 45.278761 369.945197 45.412127 370.078563 
C 45.545492 370.211929 45.7264 370.286863 45.915007 370.286863 
z
" clip-path="url(#p188d0b6a68)" style="fill: #2f5233; stroke: #4c5270; stroke-width: 0.5"/>
    <path d="M 44.742948 371.433841 
C 44.899652 371.433841 45.049959 371.371582 45.160766 371.260775 
C 45.271573 371.149969 45.333832 370.999662 45.333832 370.842957 
C 45.333832 370.686253 45.271573 370.535946 45.160766 370.425139 
C 45.049959 370.314333 44.899652 370.252073 44.742948 370.252073 
C 44.586244 370.252073 44.435937 370.314333 44.32513 370.425139 
C 44.214323 370.535946 44.152064 370.686253 44.152064 370.842957 
C 44.152064 370.999662 44.214323 371.149969 44.32513 371.260775 
C 44.435937 371.371582 44.586244 371.433841 44.742948 371.433841 
z
" clip-path="url(#p188d0b6a68)" style="fill: #2f5233; stroke: #4c5270; stroke-width: 0.5"/>
    <path d="M 43.992644 372.579821 
C 44.135533 372.579821 44.272588 372.523051 44.373626 372.422013 
C 44.474664 372.320976 44.531434 372.18392 44.531434 372.041031 
C 44.531434 371.898143 44.474664 371.761087 44.373626 371.66005 
C 44.272588 371.559012 44.135533 371.502242 43.992644 371.502242 
C 43.849756 371.502242 43.7127 371.559012 43.611662 371.66005 
C 43.510625 371.761087 43.453855 371.898143 43.453855 372.041031 
C 43.453855 372.18392 43.510625 372.320976 43.611662 372.422013 
C 43.7127 372.523051 43.849756 372.579821 43.992644 372.579821 
z
" clip-path="url(#p188d0b6a68)" style="fill: #2f5233; stroke: #4c5270; stroke-width: 0.5"/>
    <path d="M 43.782273 373.490702 
C 43.900042 373.490702 44.013004 373.443912 44.096279 373.360636 
C 44.179555 373.277361 44.226345 373.164399 44.226345 373.04663 
C 44.226345 372.92886 44.179555 372.815899 44.096279 372.732623 
C 44.013004 372.649347 43.900042 372.602557 43.782273 372.602557 
C 43.664503 372.602557 43.551542 372.649347 43.468266 372.732623 
C 43.38499 372.815899 43.3382 372.92886 43.3382 373.04663 
C 43.3382 373.164399 43.38499 373.277361 43.468266 373.360636 
C 43.551542 373.443912 43.664503 373.490702 43.782273 373.490702 
z
" clip-path="url(#p188d0b6a68)" style="fill: #2f5233; stroke: #4c5270; stroke-width: 0.5"/>
   </g>
   <g id="matplotlib.axis_1">
    <g id="xtick_1">
     <g id="line2d_1">
      <defs>
       <path id="m53a55102da" d="M 0 0 
L 0 3.5 
" style="stroke: #000000; stroke-width: 0.8"/>
      </defs>
      <g>
       <use xlink:href="#m53a55102da" x="43.456364" y="400.359219" style="stroke: #000000; stroke-width: 0.8"/>
      </g>
     </g>
     <g id="text_1">
      <!-- 0 -->
      <g transform="translate(40.275114 414.957656) scale(0.1 -0.1)">
       <defs>
        <path id="DejaVuSans-30" d="M 2034 4250 
Q 1547 4250 1301 3770 
Q 1056 3291 1056 2328 
Q 1056 1369 1301 889 
Q 1547 409 2034 409 
Q 2525 409 2770 889 
Q 3016 1369 3016 2328 
Q 3016 3291 2770 3770 
Q 2525 4250 2034 4250 
z
M 2034 4750 
Q 2819 4750 3233 4129 
Q 3647 3509 3647 2328 
Q 3647 1150 3233 529 
Q 2819 -91 2034 -91 
Q 1250 -91 836 529 
Q 422 1150 422 2328 
Q 422 3509 836 4129 
Q 1250 4750 2034 4750 
z
" transform="scale(0.015625)"/>
       </defs>
       <use xlink:href="#DejaVuSans-30"/>
      </g>
     </g>
    </g>
    <g id="xtick_2">
     <g id="line2d_2">
      <g>
       <use xlink:href="#m53a55102da" x="121.418823" y="400.359219" style="stroke: #000000; stroke-width: 0.8"/>
      </g>
     </g>
     <g id="text_2">
      <!-- 1000 -->
      <g transform="translate(108.693823 414.957656) scale(0.1 -0.1)">
       <defs>
        <path id="DejaVuSans-31" d="M 794 531 
L 1825 531 
L 1825 4091 
L 703 3866 
L 703 4441 
L 1819 4666 
L 2450 4666 
L 2450 531 
L 3481 531 
L 3481 0 
L 794 0 
L 794 531 
z
" transform="scale(0.015625)"/>
       </defs>
       <use xlink:href="#DejaVuSans-31"/>
       <use xlink:href="#DejaVuSans-30" x="63.623047"/>
       <use xlink:href="#DejaVuSans-30" x="127.246094"/>
       <use xlink:href="#DejaVuSans-30" x="190.869141"/>
      </g>
     </g>
    </g>
    <g id="xtick_3">
     <g id="line2d_3">
      <g>
       <use xlink:href="#m53a55102da" x="199.381281" y="400.359219" style="stroke: #000000; stroke-width: 0.8"/>
      </g>
     </g>
     <g id="text_3">
      <!-- 2000 -->
      <g transform="translate(186.656281 414.957656) scale(0.1 -0.1)">
       <defs>
        <path id="DejaVuSans-32" d="M 1228 531 
L 3431 531 
L 3431 0 
L 469 0 
L 469 531 
Q 828 903 1448 1529 
Q 2069 2156 2228 2338 
Q 2531 2678 2651 2914 
Q 2772 3150 2772 3378 
Q 2772 3750 2511 3984 
Q 2250 4219 1831 4219 
Q 1534 4219 1204 4116 
Q 875 4013 500 3803 
L 500 4441 
Q 881 4594 1212 4672 
Q 1544 4750 1819 4750 
Q 2544 4750 2975 4387 
Q 3406 4025 3406 3419 
Q 3406 3131 3298 2873 
Q 3191 2616 2906 2266 
Q 2828 2175 2409 1742 
Q 1991 1309 1228 531 
z
" transform="scale(0.015625)"/>
       </defs>
       <use xlink:href="#DejaVuSans-32"/>
       <use xlink:href="#DejaVuSans-30" x="63.623047"/>
       <use xlink:href="#DejaVuSans-30" x="127.246094"/>
       <use xlink:href="#DejaVuSans-30" x="190.869141"/>
      </g>
     </g>
    </g>
    <g id="xtick_4">
     <g id="line2d_4">
      <g>
       <use xlink:href="#m53a55102da" x="277.34374" y="400.359219" style="stroke: #000000; stroke-width: 0.8"/>
      </g>
     </g>
     <g id="text_4">
      <!-- 3000 -->
      <g transform="translate(264.61874 414.957656) scale(0.1 -0.1)">
       <defs>
        <path id="DejaVuSans-33" d="M 2597 2516 
Q 3050 2419 3304 2112 
Q 3559 1806 3559 1356 
Q 3559 666 3084 287 
Q 2609 -91 1734 -91 
Q 1441 -91 1130 -33 
Q 819 25 488 141 
L 488 750 
Q 750 597 1062 519 
Q 1375 441 1716 441 
Q 2309 441 2620 675 
Q 2931 909 2931 1356 
Q 2931 1769 2642 2001 
Q 2353 2234 1838 2234 
L 1294 2234 
L 1294 2753 
L 1863 2753 
Q 2328 2753 2575 2939 
Q 2822 3125 2822 3475 
Q 2822 3834 2567 4026 
Q 2313 4219 1838 4219 
Q 1578 4219 1281 4162 
Q 984 4106 628 3988 
L 628 4550 
Q 988 4650 1302 4700 
Q 1616 4750 1894 4750 
Q 2613 4750 3031 4423 
Q 3450 4097 3450 3541 
Q 3450 3153 3228 2886 
Q 3006 2619 2597 2516 
z
" transform="scale(0.015625)"/>
       </defs>
       <use xlink:href="#DejaVuSans-33"/>
       <use xlink:href="#DejaVuSans-30" x="63.623047"/>
       <use xlink:href="#DejaVuSans-30" x="127.246094"/>
       <use xlink:href="#DejaVuSans-30" x="190.869141"/>
      </g>
     </g>
    </g>
    <g id="xtick_5">
     <g id="line2d_5">
      <g>
       <use xlink:href="#m53a55102da" x="355.306199" y="400.359219" style="stroke: #000000; stroke-width: 0.8"/>
      </g>
     </g>
     <g id="text_5">
      <!-- 4000 -->
      <g transform="translate(342.581199 414.957656) scale(0.1 -0.1)">
       <defs>
        <path id="DejaVuSans-34" d="M 2419 4116 
L 825 1625 
L 2419 1625 
L 2419 4116 
z
M 2253 4666 
L 3047 4666 
L 3047 1625 
L 3713 1625 
L 3713 1100 
L 3047 1100 
L 3047 0 
L 2419 0 
L 2419 1100 
L 313 1100 
L 313 1709 
L 2253 4666 
z
" transform="scale(0.015625)"/>
       </defs>
       <use xlink:href="#DejaVuSans-34"/>
       <use xlink:href="#DejaVuSans-30" x="63.623047"/>
       <use xlink:href="#DejaVuSans-30" x="127.246094"/>
       <use xlink:href="#DejaVuSans-30" x="190.869141"/>
      </g>
     </g>
    </g>
   </g>
   <g id="matplotlib.axis_2">
    <g id="ytick_1">
     <g id="line2d_6">
      <defs>
       <path id="m0b8d064da4" d="M 0 0 
L -3.5 0 
" style="stroke: #000000; stroke-width: 0.8"/>
      </defs>
      <g>
       <use xlink:href="#m0b8d064da4" x="26.925" y="400.359219" style="stroke: #000000; stroke-width: 0.8"/>
      </g>
     </g>
     <g id="text_6">
      <!-- 0 -->
      <g transform="translate(13.5625 404.158438) scale(0.1 -0.1)">
       <use xlink:href="#DejaVuSans-30"/>
      </g>
     </g>
    </g>
    <g id="ytick_2">
     <g id="line2d_7">
      <g>
       <use xlink:href="#m0b8d064da4" x="26.925" y="351.689219" style="stroke: #000000; stroke-width: 0.8"/>
      </g>
     </g>
     <g id="text_7">
      <!-- 10 -->
      <g transform="translate(7.2 355.488438) scale(0.1 -0.1)">
       <use xlink:href="#DejaVuSans-31"/>
       <use xlink:href="#DejaVuSans-30" x="63.623047"/>
      </g>
     </g>
    </g>
    <g id="ytick_3">
     <g id="line2d_8">
      <g>
       <use xlink:href="#m0b8d064da4" x="26.925" y="303.019219" style="stroke: #000000; stroke-width: 0.8"/>
      </g>
     </g>
     <g id="text_8">
      <!-- 20 -->
      <g transform="translate(7.2 306.818438) scale(0.1 -0.1)">
       <use xlink:href="#DejaVuSans-32"/>
       <use xlink:href="#DejaVuSans-30" x="63.623047"/>
      </g>
     </g>
    </g>
    <g id="ytick_4">
     <g id="line2d_9">
      <g>
       <use xlink:href="#m0b8d064da4" x="26.925" y="254.349219" style="stroke: #000000; stroke-width: 0.8"/>
      </g>
     </g>
     <g id="text_9">
      <!-- 30 -->
      <g transform="translate(7.2 258.148438) scale(0.1 -0.1)">
       <use xlink:href="#DejaVuSans-33"/>
       <use xlink:href="#DejaVuSans-30" x="63.623047"/>
      </g>
     </g>
    </g>
    <g id="ytick_5">
     <g id="line2d_10">
      <g>
       <use xlink:href="#m0b8d064da4" x="26.925" y="205.679219" style="stroke: #000000; stroke-width: 0.8"/>
      </g>
     </g>
     <g id="text_10">
      <!-- 40 -->
      <g transform="translate(7.2 209.478438) scale(0.1 -0.1)">
       <use xlink:href="#DejaVuSans-34"/>
       <use xlink:href="#DejaVuSans-30" x="63.623047"/>
      </g>
     </g>
    </g>
    <g id="ytick_6">
     <g id="line2d_11">
      <g>
       <use xlink:href="#m0b8d064da4" x="26.925" y="157.009219" style="stroke: #000000; stroke-width: 0.8"/>
      </g>
     </g>
     <g id="text_11">
      <!-- 50 -->
      <g transform="translate(7.2 160.808438) scale(0.1 -0.1)">
       <defs>
        <path id="DejaVuSans-35" d="M 691 4666 
L 3169 4666 
L 3169 4134 
L 1269 4134 
L 1269 2991 
Q 1406 3038 1543 3061 
Q 1681 3084 1819 3084 
Q 2600 3084 3056 2656 
Q 3513 2228 3513 1497 
Q 3513 744 3044 326 
Q 2575 -91 1722 -91 
Q 1428 -91 1123 -41 
Q 819 9 494 109 
L 494 744 
Q 775 591 1075 516 
Q 1375 441 1709 441 
Q 2250 441 2565 725 
Q 2881 1009 2881 1497 
Q 2881 1984 2565 2268 
Q 2250 2553 1709 2553 
Q 1456 2553 1204 2497 
Q 953 2441 691 2322 
L 691 4666 
z
" transform="scale(0.015625)"/>
       </defs>
       <use xlink:href="#DejaVuSans-35"/>
       <use xlink:href="#DejaVuSans-30" x="63.623047"/>
      </g>
     </g>
    </g>
    <g id="ytick_7">
     <g id="line2d_12">
      <g>
       <use xlink:href="#m0b8d064da4" x="26.925" y="108.339219" style="stroke: #000000; stroke-width: 0.8"/>
      </g>
     </g>
     <g id="text_12">
      <!-- 60 -->
      <g transform="translate(7.2 112.138438) scale(0.1 -0.1)">
       <defs>
        <path id="DejaVuSans-36" d="M 2113 2584 
Q 1688 2584 1439 2293 
Q 1191 2003 1191 1497 
Q 1191 994 1439 701 
Q 1688 409 2113 409 
Q 2538 409 2786 701 
Q 3034 994 3034 1497 
Q 3034 2003 2786 2293 
Q 2538 2584 2113 2584 
z
M 3366 4563 
L 3366 3988 
Q 3128 4100 2886 4159 
Q 2644 4219 2406 4219 
Q 1781 4219 1451 3797 
Q 1122 3375 1075 2522 
Q 1259 2794 1537 2939 
Q 1816 3084 2150 3084 
Q 2853 3084 3261 2657 
Q 3669 2231 3669 1497 
Q 3669 778 3244 343 
Q 2819 -91 2113 -91 
Q 1303 -91 875 529 
Q 447 1150 447 2328 
Q 447 3434 972 4092 
Q 1497 4750 2381 4750 
Q 2619 4750 2861 4703 
Q 3103 4656 3366 4563 
z
" transform="scale(0.015625)"/>
       </defs>
       <use xlink:href="#DejaVuSans-36"/>
       <use xlink:href="#DejaVuSans-30" x="63.623047"/>
      </g>
     </g>
    </g>
    <g id="ytick_8">
     <g id="line2d_13">
      <g>
       <use xlink:href="#m0b8d064da4" x="26.925" y="59.669219" style="stroke: #000000; stroke-width: 0.8"/>
      </g>
     </g>
     <g id="text_13">
      <!-- 70 -->
      <g transform="translate(7.2 63.468438) scale(0.1 -0.1)">
       <defs>
        <path id="DejaVuSans-37" d="M 525 4666 
L 3525 4666 
L 3525 4397 
L 1831 0 
L 1172 0 
L 2766 4134 
L 525 4134 
L 525 4666 
z
" transform="scale(0.015625)"/>
       </defs>
       <use xlink:href="#DejaVuSans-37"/>
       <use xlink:href="#DejaVuSans-30" x="63.623047"/>
      </g>
     </g>
    </g>
    <g id="ytick_9">
     <g id="line2d_14">
      <g>
       <use xlink:href="#m0b8d064da4" x="26.925" y="10.999219" style="stroke: #000000; stroke-width: 0.8"/>
      </g>
     </g>
     <g id="text_14">
      <!-- 80 -->
      <g transform="translate(7.2 14.798438) scale(0.1 -0.1)">
       <defs>
        <path id="DejaVuSans-38" d="M 2034 2216 
Q 1584 2216 1326 1975 
Q 1069 1734 1069 1313 
Q 1069 891 1326 650 
Q 1584 409 2034 409 
Q 2484 409 2743 651 
Q 3003 894 3003 1313 
Q 3003 1734 2745 1975 
Q 2488 2216 2034 2216 
z
M 1403 2484 
Q 997 2584 770 2862 
Q 544 3141 544 3541 
Q 544 4100 942 4425 
Q 1341 4750 2034 4750 
Q 2731 4750 3128 4425 
Q 3525 4100 3525 3541 
Q 3525 3141 3298 2862 
Q 3072 2584 2669 2484 
Q 3125 2378 3379 2068 
Q 3634 1759 3634 1313 
Q 3634 634 3220 271 
Q 2806 -91 2034 -91 
Q 1263 -91 848 271 
Q 434 634 434 1313 
Q 434 1759 690 2068 
Q 947 2378 1403 2484 
z
M 1172 3481 
Q 1172 3119 1398 2916 
Q 1625 2713 2034 2713 
Q 2441 2713 2670 2916 
Q 2900 3119 2900 3481 
Q 2900 3844 2670 4047 
Q 2441 4250 2034 4250 
Q 1625 4250 1398 4047 
Q 1172 3844 1172 3481 
z
" transform="scale(0.015625)"/>
       </defs>
       <use xlink:href="#DejaVuSans-38"/>
       <use xlink:href="#DejaVuSans-30" x="63.623047"/>
      </g>
     </g>
    </g>
   </g>
   <g id="line2d_15">
    <path d="M 26.925 205.679219 
L 397.785 205.679219 
" clip-path="url(#p188d0b6a68)" style="fill: none; stroke-dasharray: 5.55,2.4; stroke-dashoffset: 0; stroke: #f9e8d4; stroke-width: 1.5"/>
   </g>
   <g id="patch_4">
    <path d="M 26.925 400.359219 
L 26.925 10.999219 
" style="fill: none; stroke: #000000; stroke-width: 0.8; stroke-linejoin: miter; stroke-linecap: square"/>
   </g>
   <g id="patch_5">
    <path d="M 397.785 400.359219 
L 397.785 10.999219 
" style="fill: none; stroke: #000000; stroke-width: 0.8; stroke-linejoin: miter; stroke-linecap: square"/>
   </g>
   <g id="patch_6">
    <path d="M 26.925 400.359219 
L 397.785 400.359219 
" style="fill: none; stroke: #000000; stroke-width: 0.8; stroke-linejoin: miter; stroke-linecap: square"/>
   </g>
   <g id="patch_7">
    <path d="M 26.925 10.999219 
L 397.785 10.999219 
" style="fill: none; stroke: #000000; stroke-width: 0.8; stroke-linejoin: miter; stroke-linecap: square"/>
   </g>
   <g id="legend_1">
    <g id="text_15">
     <!-- Pathways -->
     <g transform="translate(425.328 28.3575) scale(0.11 -0.11)">
      <defs>
       <path id="DejaVuSans-50" d="M 1259 4147 
L 1259 2394 
L 2053 2394 
Q 2494 2394 2734 2622 
Q 2975 2850 2975 3272 
Q 2975 3691 2734 3919 
Q 2494 4147 2053 4147 
L 1259 4147 
z
M 628 4666 
L 2053 4666 
Q 2838 4666 3239 4311 
Q 3641 3956 3641 3272 
Q 3641 2581 3239 2228 
Q 2838 1875 2053 1875 
L 1259 1875 
L 1259 0 
L 628 0 
L 628 4666 
z
" transform="scale(0.015625)"/>
       <path id="DejaVuSans-61" d="M 2194 1759 
Q 1497 1759 1228 1600 
Q 959 1441 959 1056 
Q 959 750 1161 570 
Q 1363 391 1709 391 
Q 2188 391 2477 730 
Q 2766 1069 2766 1631 
L 2766 1759 
L 2194 1759 
z
M 3341 1997 
L 3341 0 
L 2766 0 
L 2766 531 
Q 2569 213 2275 61 
Q 1981 -91 1556 -91 
Q 1019 -91 701 211 
Q 384 513 384 1019 
Q 384 1609 779 1909 
Q 1175 2209 1959 2209 
L 2766 2209 
L 2766 2266 
Q 2766 2663 2505 2880 
Q 2244 3097 1772 3097 
Q 1472 3097 1187 3025 
Q 903 2953 641 2809 
L 641 3341 
Q 956 3463 1253 3523 
Q 1550 3584 1831 3584 
Q 2591 3584 2966 3190 
Q 3341 2797 3341 1997 
z
" transform="scale(0.015625)"/>
       <path id="DejaVuSans-74" d="M 1172 4494 
L 1172 3500 
L 2356 3500 
L 2356 3053 
L 1172 3053 
L 1172 1153 
Q 1172 725 1289 603 
Q 1406 481 1766 481 
L 2356 481 
L 2356 0 
L 1766 0 
Q 1100 0 847 248 
Q 594 497 594 1153 
L 594 3053 
L 172 3053 
L 172 3500 
L 594 3500 
L 594 4494 
L 1172 4494 
z
" transform="scale(0.015625)"/>
       <path id="DejaVuSans-68" d="M 3513 2113 
L 3513 0 
L 2938 0 
L 2938 2094 
Q 2938 2591 2744 2837 
Q 2550 3084 2163 3084 
Q 1697 3084 1428 2787 
Q 1159 2491 1159 1978 
L 1159 0 
L 581 0 
L 581 4863 
L 1159 4863 
L 1159 2956 
Q 1366 3272 1645 3428 
Q 1925 3584 2291 3584 
Q 2894 3584 3203 3211 
Q 3513 2838 3513 2113 
z
" transform="scale(0.015625)"/>
       <path id="DejaVuSans-77" d="M 269 3500 
L 844 3500 
L 1563 769 
L 2278 3500 
L 2956 3500 
L 3675 769 
L 4391 3500 
L 4966 3500 
L 4050 0 
L 3372 0 
L 2619 2869 
L 1863 0 
L 1184 0 
L 269 3500 
z
" transform="scale(0.015625)"/>
       <path id="DejaVuSans-79" d="M 2059 -325 
Q 1816 -950 1584 -1140 
Q 1353 -1331 966 -1331 
L 506 -1331 
L 506 -850 
L 844 -850 
Q 1081 -850 1212 -737 
Q 1344 -625 1503 -206 
L 1606 56 
L 191 3500 
L 800 3500 
L 1894 763 
L 2988 3500 
L 3597 3500 
L 2059 -325 
z
" transform="scale(0.015625)"/>
       <path id="DejaVuSans-73" d="M 2834 3397 
L 2834 2853 
Q 2591 2978 2328 3040 
Q 2066 3103 1784 3103 
Q 1356 3103 1142 2972 
Q 928 2841 928 2578 
Q 928 2378 1081 2264 
Q 1234 2150 1697 2047 
L 1894 2003 
Q 2506 1872 2764 1633 
Q 3022 1394 3022 966 
Q 3022 478 2636 193 
Q 2250 -91 1575 -91 
Q 1294 -91 989 -36 
Q 684 19 347 128 
L 347 722 
Q 666 556 975 473 
Q 1284 391 1588 391 
Q 1994 391 2212 530 
Q 2431 669 2431 922 
Q 2431 1156 2273 1281 
Q 2116 1406 1581 1522 
L 1381 1569 
Q 847 1681 609 1914 
Q 372 2147 372 2553 
Q 372 3047 722 3315 
Q 1072 3584 1716 3584 
Q 2034 3584 2315 3537 
Q 2597 3491 2834 3397 
z
" transform="scale(0.015625)"/>
      </defs>
      <use xlink:href="#DejaVuSans-50"/>
      <use xlink:href="#DejaVuSans-61" x="55.802734"/>
      <use xlink:href="#DejaVuSans-74" x="117.082031"/>
      <use xlink:href="#DejaVuSans-68" x="156.291016"/>
      <use xlink:href="#DejaVuSans-77" x="219.669922"/>
      <use xlink:href="#DejaVuSans-61" x="301.457031"/>
      <use xlink:href="#DejaVuSans-79" x="362.736328"/>
      <use xlink:href="#DejaVuSans-73" x="421.916016"/>
     </g>
    </g>
    <g id="patch_8">
     <path d="M 430.725344 43.243594 
L 450.725344 43.243594 
L 450.725344 36.243594 
L 430.725344 36.243594 
z
" style="fill: #189ab4"/>
    </g>
    <g id="text_16">
     <!-- B2 -->
     <g transform="translate(458.725344 43.243594) scale(0.1 -0.1)">
      <defs>
       <path id="DejaVuSans-42" d="M 1259 2228 
L 1259 519 
L 2272 519 
Q 2781 519 3026 730 
Q 3272 941 3272 1375 
Q 3272 1813 3026 2020 
Q 2781 2228 2272 2228 
L 1259 2228 
z
M 1259 4147 
L 1259 2741 
L 2194 2741 
Q 2656 2741 2882 2914 
Q 3109 3088 3109 3444 
Q 3109 3797 2882 3972 
Q 2656 4147 2194 4147 
L 1259 4147 
z
M 628 4666 
L 2241 4666 
Q 2963 4666 3353 4366 
Q 3744 4066 3744 3513 
Q 3744 3084 3544 2831 
Q 3344 2578 2956 2516 
Q 3422 2416 3680 2098 
Q 3938 1781 3938 1306 
Q 3938 681 3513 340 
Q 3088 0 2303 0 
L 628 0 
L 628 4666 
z
" transform="scale(0.015625)"/>
      </defs>
      <use xlink:href="#DejaVuSans-42"/>
      <use xlink:href="#DejaVuSans-32" x="68.603516"/>
     </g>
    </g>
    <g id="patch_9">
     <path d="M 430.725344 57.921719 
L 450.725344 57.921719 
L 450.725344 50.921719 
L 430.725344 50.921719 
z
" style="fill: #75e6da"/>
    </g>
    <g id="text_17">
     <!-- B3 -->
     <g transform="translate(458.725344 57.921719) scale(0.1 -0.1)">
      <use xlink:href="#DejaVuSans-42"/>
      <use xlink:href="#DejaVuSans-33" x="68.603516"/>
     </g>
    </g>
    <g id="patch_10">
     <path d="M 430.725344 72.599844 
L 450.725344 72.599844 
L 450.725344 65.599844 
L 430.725344 65.599844 
z
" style="fill: #2f5233"/>
    </g>
    <g id="text_18">
     <!-- C1 -->
     <g transform="translate(458.725344 72.599844) scale(0.1 -0.1)">
      <defs>
       <path id="DejaVuSans-43" d="M 4122 4306 
L 4122 3641 
Q 3803 3938 3442 4084 
Q 3081 4231 2675 4231 
Q 1875 4231 1450 3742 
Q 1025 3253 1025 2328 
Q 1025 1406 1450 917 
Q 1875 428 2675 428 
Q 3081 428 3442 575 
Q 3803 722 4122 1019 
L 4122 359 
Q 3791 134 3420 21 
Q 3050 -91 2638 -91 
Q 1578 -91 968 557 
Q 359 1206 359 2328 
Q 359 3453 968 4101 
Q 1578 4750 2638 4750 
Q 3056 4750 3426 4639 
Q 3797 4528 4122 4306 
z
" transform="scale(0.015625)"/>
      </defs>
      <use xlink:href="#DejaVuSans-43"/>
      <use xlink:href="#DejaVuSans-31" x="69.824219"/>
     </g>
    </g>
   </g>
   <g id="legend_2">
    <g id="text_19">
     <!-- CO$_2$ emissions -->
     <g transform="translate(449.787688 184.1015) scale(0.11 -0.11)">
      <defs>
       <path id="DejaVuSans-4f" d="M 2522 4238 
Q 1834 4238 1429 3725 
Q 1025 3213 1025 2328 
Q 1025 1447 1429 934 
Q 1834 422 2522 422 
Q 3209 422 3611 934 
Q 4013 1447 4013 2328 
Q 4013 3213 3611 3725 
Q 3209 4238 2522 4238 
z
M 2522 4750 
Q 3503 4750 4090 4092 
Q 4678 3434 4678 2328 
Q 4678 1225 4090 567 
Q 3503 -91 2522 -91 
Q 1538 -91 948 565 
Q 359 1222 359 2328 
Q 359 3434 948 4092 
Q 1538 4750 2522 4750 
z
" transform="scale(0.015625)"/>
       <path id="DejaVuSans-20" transform="scale(0.015625)"/>
       <path id="DejaVuSans-65" d="M 3597 1894 
L 3597 1613 
L 953 1613 
Q 991 1019 1311 708 
Q 1631 397 2203 397 
Q 2534 397 2845 478 
Q 3156 559 3463 722 
L 3463 178 
Q 3153 47 2828 -22 
Q 2503 -91 2169 -91 
Q 1331 -91 842 396 
Q 353 884 353 1716 
Q 353 2575 817 3079 
Q 1281 3584 2069 3584 
Q 2775 3584 3186 3129 
Q 3597 2675 3597 1894 
z
M 3022 2063 
Q 3016 2534 2758 2815 
Q 2500 3097 2075 3097 
Q 1594 3097 1305 2825 
Q 1016 2553 972 2059 
L 3022 2063 
z
" transform="scale(0.015625)"/>
       <path id="DejaVuSans-6d" d="M 3328 2828 
Q 3544 3216 3844 3400 
Q 4144 3584 4550 3584 
Q 5097 3584 5394 3201 
Q 5691 2819 5691 2113 
L 5691 0 
L 5113 0 
L 5113 2094 
Q 5113 2597 4934 2840 
Q 4756 3084 4391 3084 
Q 3944 3084 3684 2787 
Q 3425 2491 3425 1978 
L 3425 0 
L 2847 0 
L 2847 2094 
Q 2847 2600 2669 2842 
Q 2491 3084 2119 3084 
Q 1678 3084 1418 2786 
Q 1159 2488 1159 1978 
L 1159 0 
L 581 0 
L 581 3500 
L 1159 3500 
L 1159 2956 
Q 1356 3278 1631 3431 
Q 1906 3584 2284 3584 
Q 2666 3584 2933 3390 
Q 3200 3197 3328 2828 
z
" transform="scale(0.015625)"/>
       <path id="DejaVuSans-69" d="M 603 3500 
L 1178 3500 
L 1178 0 
L 603 0 
L 603 3500 
z
M 603 4863 
L 1178 4863 
L 1178 4134 
L 603 4134 
L 603 4863 
z
" transform="scale(0.015625)"/>
       <path id="DejaVuSans-6f" d="M 1959 3097 
Q 1497 3097 1228 2736 
Q 959 2375 959 1747 
Q 959 1119 1226 758 
Q 1494 397 1959 397 
Q 2419 397 2687 759 
Q 2956 1122 2956 1747 
Q 2956 2369 2687 2733 
Q 2419 3097 1959 3097 
z
M 1959 3584 
Q 2709 3584 3137 3096 
Q 3566 2609 3566 1747 
Q 3566 888 3137 398 
Q 2709 -91 1959 -91 
Q 1206 -91 779 398 
Q 353 888 353 1747 
Q 353 2609 779 3096 
Q 1206 3584 1959 3584 
z
" transform="scale(0.015625)"/>
       <path id="DejaVuSans-6e" d="M 3513 2113 
L 3513 0 
L 2938 0 
L 2938 2094 
Q 2938 2591 2744 2837 
Q 2550 3084 2163 3084 
Q 1697 3084 1428 2787 
Q 1159 2491 1159 1978 
L 1159 0 
L 581 0 
L 581 3500 
L 1159 3500 
L 1159 2956 
Q 1366 3272 1645 3428 
Q 1925 3584 2291 3584 
Q 2894 3584 3203 3211 
Q 3513 2838 3513 2113 
z
" transform="scale(0.015625)"/>
      </defs>
      <use xlink:href="#DejaVuSans-43" transform="translate(0 0.015625)"/>
      <use xlink:href="#DejaVuSans-4f" transform="translate(69.824219 0.015625)"/>
      <use xlink:href="#DejaVuSans-32" transform="translate(149.492188 -16.390625) scale(0.7)"/>
      <use xlink:href="#DejaVuSans-20" transform="translate(196.762695 0.015625)"/>
      <use xlink:href="#DejaVuSans-65" transform="translate(228.549805 0.015625)"/>
      <use xlink:href="#DejaVuSans-6d" transform="translate(290.073242 0.015625)"/>
      <use xlink:href="#DejaVuSans-69" transform="translate(387.485352 0.015625)"/>
      <use xlink:href="#DejaVuSans-73" transform="translate(415.268555 0.015625)"/>
      <use xlink:href="#DejaVuSans-73" transform="translate(467.368164 0.015625)"/>
      <use xlink:href="#DejaVuSans-69" transform="translate(519.467773 0.015625)"/>
      <use xlink:href="#DejaVuSans-6f" transform="translate(547.250977 0.015625)"/>
      <use xlink:href="#DejaVuSans-6e" transform="translate(608.432617 0.015625)"/>
      <use xlink:href="#DejaVuSans-73" transform="translate(671.811523 0.015625)"/>
     </g>
    </g>
    <g id="line2d_16">
     <defs>
      <path id="m1098553bc6" d="M 0 2.5 
C 0.663008 2.5 1.29895 2.236584 1.767767 1.767767 
C 2.236584 1.29895 2.5 0.663008 2.5 0 
C 2.5 -0.663008 2.236584 -1.29895 1.767767 -1.767767 
C 1.29895 -2.236584 0.663008 -2.5 0 -2.5 
C -0.663008 -2.5 -1.29895 -2.236584 -1.767767 -1.767767 
C -2.236584 -1.29895 -2.5 -0.663008 -2.5 0 
C -2.5 0.663008 -2.236584 1.29895 -1.767767 1.767767 
C -1.29895 2.236584 -0.663008 2.5 0 2.5 
z
" style="stroke: #4c5270"/>
     </defs>
     <g>
      <use xlink:href="#m1098553bc6" x="435.328" y="200.487594" style="fill: #4c5270; stroke: #4c5270"/>
     </g>
    </g>
    <g id="text_20">
     <!-- 100 thousand-tons -->
     <g transform="translate(453.328 203.987594) scale(0.1 -0.1)">
      <defs>
       <path id="DejaVuSans-75" d="M 544 1381 
L 544 3500 
L 1119 3500 
L 1119 1403 
Q 1119 906 1312 657 
Q 1506 409 1894 409 
Q 2359 409 2629 706 
Q 2900 1003 2900 1516 
L 2900 3500 
L 3475 3500 
L 3475 0 
L 2900 0 
L 2900 538 
Q 2691 219 2414 64 
Q 2138 -91 1772 -91 
Q 1169 -91 856 284 
Q 544 659 544 1381 
z
M 1991 3584 
L 1991 3584 
z
" transform="scale(0.015625)"/>
       <path id="DejaVuSans-64" d="M 2906 2969 
L 2906 4863 
L 3481 4863 
L 3481 0 
L 2906 0 
L 2906 525 
Q 2725 213 2448 61 
Q 2172 -91 1784 -91 
Q 1150 -91 751 415 
Q 353 922 353 1747 
Q 353 2572 751 3078 
Q 1150 3584 1784 3584 
Q 2172 3584 2448 3432 
Q 2725 3281 2906 2969 
z
M 947 1747 
Q 947 1113 1208 752 
Q 1469 391 1925 391 
Q 2381 391 2643 752 
Q 2906 1113 2906 1747 
Q 2906 2381 2643 2742 
Q 2381 3103 1925 3103 
Q 1469 3103 1208 2742 
Q 947 2381 947 1747 
z
" transform="scale(0.015625)"/>
       <path id="DejaVuSans-2d" d="M 313 2009 
L 1997 2009 
L 1997 1497 
L 313 1497 
L 313 2009 
z
" transform="scale(0.015625)"/>
      </defs>
      <use xlink:href="#DejaVuSans-31"/>
      <use xlink:href="#DejaVuSans-30" x="63.623047"/>
      <use xlink:href="#DejaVuSans-30" x="127.246094"/>
      <use xlink:href="#DejaVuSans-20" x="190.869141"/>
      <use xlink:href="#DejaVuSans-74" x="222.65625"/>
      <use xlink:href="#DejaVuSans-68" x="261.865234"/>
      <use xlink:href="#DejaVuSans-6f" x="325.244141"/>
      <use xlink:href="#DejaVuSans-75" x="386.425781"/>
      <use xlink:href="#DejaVuSans-73" x="449.804688"/>
      <use xlink:href="#DejaVuSans-61" x="501.904297"/>
      <use xlink:href="#DejaVuSans-6e" x="563.183594"/>
      <use xlink:href="#DejaVuSans-64" x="626.5625"/>
      <use xlink:href="#DejaVuSans-2d" x="690.039062"/>
      <use xlink:href="#DejaVuSans-74" x="726.123047"/>
      <use xlink:href="#DejaVuSans-6f" x="765.332031"/>
      <use xlink:href="#DejaVuSans-6e" x="826.513672"/>
      <use xlink:href="#DejaVuSans-73" x="889.892578"/>
     </g>
    </g>
    <g id="line2d_17">
     <defs>
      <path id="m46bd83456a" d="M 0 5.59017 
C 1.48253 5.59017 2.90454 5.001154 3.952847 3.952847 
C 5.001154 2.90454 5.59017 1.48253 5.59017 0 
C 5.59017 -1.48253 5.001154 -2.90454 3.952847 -3.952847 
C 2.90454 -5.001154 1.48253 -5.59017 0 -5.59017 
C -1.48253 -5.59017 -2.90454 -5.001154 -3.952847 -3.952847 
C -5.001154 -2.90454 -5.59017 -1.48253 -5.59017 0 
C -5.59017 1.48253 -5.001154 2.90454 -3.952847 3.952847 
C -2.90454 5.001154 -1.48253 5.59017 0 5.59017 
z
" style="stroke: #4c5270"/>
     </defs>
     <g>
      <use xlink:href="#m46bd83456a" x="435.328" y="220.165719" style="fill: #4c5270; stroke: #4c5270"/>
     </g>
    </g>
    <g id="text_21">
     <!-- 500 thousand-tons -->
     <g transform="translate(453.328 223.665719) scale(0.1 -0.1)">
      <use xlink:href="#DejaVuSans-35"/>
      <use xlink:href="#DejaVuSans-30" x="63.623047"/>
      <use xlink:href="#DejaVuSans-30" x="127.246094"/>
      <use xlink:href="#DejaVuSans-20" x="190.869141"/>
      <use xlink:href="#DejaVuSans-74" x="222.65625"/>
      <use xlink:href="#DejaVuSans-68" x="261.865234"/>
      <use xlink:href="#DejaVuSans-6f" x="325.244141"/>
      <use xlink:href="#DejaVuSans-75" x="386.425781"/>
      <use xlink:href="#DejaVuSans-73" x="449.804688"/>
      <use xlink:href="#DejaVuSans-61" x="501.904297"/>
      <use xlink:href="#DejaVuSans-6e" x="563.183594"/>
      <use xlink:href="#DejaVuSans-64" x="626.5625"/>
      <use xlink:href="#DejaVuSans-2d" x="690.039062"/>
      <use xlink:href="#DejaVuSans-74" x="726.123047"/>
      <use xlink:href="#DejaVuSans-6f" x="765.332031"/>
      <use xlink:href="#DejaVuSans-6e" x="826.513672"/>
      <use xlink:href="#DejaVuSans-73" x="889.892578"/>
     </g>
    </g>
    <g id="line2d_18">
     <defs>
      <path id="m14e961cd1c" d="M 0 7.905694 
C 2.096615 7.905694 4.10764 7.0727 5.59017 5.59017 
C 7.0727 4.10764 7.905694 2.096615 7.905694 0 
C 7.905694 -2.096615 7.0727 -4.10764 5.59017 -5.59017 
C 4.10764 -7.0727 2.096615 -7.905694 0 -7.905694 
C -2.096615 -7.905694 -4.10764 -7.0727 -5.59017 -5.59017 
C -7.0727 -4.10764 -7.905694 -2.096615 -7.905694 0 
C -7.905694 2.096615 -7.0727 4.10764 -5.59017 5.59017 
C -4.10764 7.0727 -2.096615 7.905694 0 7.905694 
z
" style="stroke: #4c5270"/>
     </defs>
     <g>
      <use xlink:href="#m14e961cd1c" x="435.328" y="239.843844" style="fill: #4c5270; stroke: #4c5270"/>
     </g>
    </g>
    <g id="text_22">
     <!-- 1000 thousand-tons -->
     <g transform="translate(453.328 243.343844) scale(0.1 -0.1)">
      <use xlink:href="#DejaVuSans-31"/>
      <use xlink:href="#DejaVuSans-30" x="63.623047"/>
      <use xlink:href="#DejaVuSans-30" x="127.246094"/>
      <use xlink:href="#DejaVuSans-30" x="190.869141"/>
      <use xlink:href="#DejaVuSans-20" x="254.492188"/>
      <use xlink:href="#DejaVuSans-74" x="286.279297"/>
      <use xlink:href="#DejaVuSans-68" x="325.488281"/>
      <use xlink:href="#DejaVuSans-6f" x="388.867188"/>
      <use xlink:href="#DejaVuSans-75" x="450.048828"/>
      <use xlink:href="#DejaVuSans-73" x="513.427734"/>
      <use xlink:href="#DejaVuSans-61" x="565.527344"/>
      <use xlink:href="#DejaVuSans-6e" x="626.806641"/>
      <use xlink:href="#DejaVuSans-64" x="690.185547"/>
      <use xlink:href="#DejaVuSans-2d" x="753.662109"/>
      <use xlink:href="#DejaVuSans-74" x="789.746094"/>
      <use xlink:href="#DejaVuSans-6f" x="828.955078"/>
      <use xlink:href="#DejaVuSans-6e" x="890.136719"/>
      <use xlink:href="#DejaVuSans-73" x="953.515625"/>
     </g>
    </g>
   </g>
  </g>
 </g>
 <defs>
  <clipPath id="p188d0b6a68">
   <rect x="26.925" y="10.999219" width="370.86" height="389.36"/>
  </clipPath>
 </defs>
</svg>
